M48
; DRILL file {KiCad 7.0.9} date Di 21 Nov 2023 15:34:17
; FORMAT={-:-/ absolute / inch / decimal}
; #@! TF.CreationDate,2023-11-21T15:34:17+01:00
; #@! TF.GenerationSoftware,Kicad,Pcbnew,7.0.9
; #@! TF.FileFunction,Plated,1,2,PTH
FMAT,2
INCH
; #@! TA.AperFunction,Plated,PTH,ViaDrill
T1C0.0157
; #@! TA.AperFunction,Plated,PTH,ComponentDrill
T2C0.0394
; #@! TA.AperFunction,Plated,PTH,ComponentDrill
T3C0.0433
; #@! TA.AperFunction,Plated,PTH,ComponentDrill
T4C0.1260
%
G90
G05
T1
X5.5039Y-3.5394
X5.6102Y-3.3996
X5.7165Y-3.4016
X5.7264Y-3.2106
X6.0512Y-2.9134
X6.0516Y-2.6535
X6.0516Y-3.1732
T2
X5.1181Y-3.1283
X5.1181Y-3.2283
X5.1181Y-3.3283
X5.1181Y-3.4283
X5.1181Y-3.5283
X5.1181Y-3.6283
X5.2181Y-3.1283
X5.2181Y-3.2283
X5.2181Y-3.3283
X5.2181Y-3.4283
X5.2181Y-3.5283
X5.2181Y-3.6283
T3
X6.2433Y-2.8815
X6.2433Y-2.9717
X6.2433Y-3.0618
X6.2433Y-3.152
X6.2433Y-3.2421
X6.3433Y-2.8364
X6.3433Y-2.9266
X6.3433Y-3.0167
X6.3433Y-3.1069
X6.3433Y-3.197
X6.4433Y-2.8815
X6.4433Y-2.9717
X6.4433Y-3.0618
X6.4433Y-3.152
X6.4433Y-3.2421
T4
X6.3433Y-2.5596
X6.3433Y-3.5439
T0
M30
