%TF.GenerationSoftware,KiCad,Pcbnew,7.0.8*%
%TF.CreationDate,2023-10-23T19:29:07+02:00*%
%TF.ProjectId,tiny-vga,74696e79-2d76-4676-912e-6b696361645f,v1.0*%
%TF.SameCoordinates,Original*%
%TF.FileFunction,Paste,Top*%
%TF.FilePolarity,Positive*%
%FSLAX46Y46*%
G04 Gerber Fmt 4.6, Leading zero omitted, Abs format (unit mm)*
G04 Created by KiCad (PCBNEW 7.0.8) date 2023-10-23 19:29:07*
%MOMM*%
%LPD*%
G01*
G04 APERTURE LIST*
G04 Aperture macros list*
%AMRoundRect*
0 Rectangle with rounded corners*
0 $1 Rounding radius*
0 $2 $3 $4 $5 $6 $7 $8 $9 X,Y pos of 4 corners*
0 Add a 4 corners polygon primitive as box body*
4,1,4,$2,$3,$4,$5,$6,$7,$8,$9,$2,$3,0*
0 Add four circle primitives for the rounded corners*
1,1,$1+$1,$2,$3*
1,1,$1+$1,$4,$5*
1,1,$1+$1,$6,$7*
1,1,$1+$1,$8,$9*
0 Add four rect primitives between the rounded corners*
20,1,$1+$1,$2,$3,$4,$5,0*
20,1,$1+$1,$4,$5,$6,$7,0*
20,1,$1+$1,$6,$7,$8,$9,0*
20,1,$1+$1,$8,$9,$2,$3,0*%
G04 Aperture macros list end*
%ADD10RoundRect,0.135000X-0.035355X0.226274X-0.226274X0.035355X0.035355X-0.226274X0.226274X-0.035355X0*%
%ADD11R,0.500000X0.400000*%
%ADD12R,0.500000X0.300000*%
%ADD13RoundRect,0.135000X0.135000X0.185000X-0.135000X0.185000X-0.135000X-0.185000X0.135000X-0.185000X0*%
%ADD14RoundRect,0.135000X-0.135000X-0.185000X0.135000X-0.185000X0.135000X0.185000X-0.135000X0.185000X0*%
%ADD15RoundRect,0.135000X0.226274X0.035355X0.035355X0.226274X-0.226274X-0.035355X-0.035355X-0.226274X0*%
%ADD16RoundRect,0.100000X0.637500X0.100000X-0.637500X0.100000X-0.637500X-0.100000X0.637500X-0.100000X0*%
%ADD17RoundRect,0.237500X-0.237500X0.300000X-0.237500X-0.300000X0.237500X-0.300000X0.237500X0.300000X0*%
G04 APERTURE END LIST*
D10*
%TO.C,R1*%
X150460624Y-80139376D03*
X149739376Y-80860624D03*
%TD*%
D11*
%TO.C,RN3*%
X153000000Y-88250000D03*
D12*
X153000000Y-87750000D03*
X153000000Y-87250000D03*
D11*
X153000000Y-86750000D03*
X152000000Y-86750000D03*
D12*
X152000000Y-87250000D03*
X152000000Y-87750000D03*
D11*
X152000000Y-88250000D03*
%TD*%
D13*
%TO.C,R2*%
X150700000Y-83600000D03*
X149680000Y-83600000D03*
%TD*%
D14*
%TO.C,R4*%
X151990000Y-91700000D03*
X153010000Y-91700000D03*
%TD*%
%TO.C,R5*%
X151990000Y-90000000D03*
X153010000Y-90000000D03*
%TD*%
D11*
%TO.C,RN1*%
X153000000Y-80100000D03*
D12*
X153000000Y-79600000D03*
X153000000Y-79100000D03*
D11*
X153000000Y-78600000D03*
X152000000Y-78600000D03*
D12*
X152000000Y-79100000D03*
X152000000Y-79600000D03*
D11*
X152000000Y-80100000D03*
%TD*%
D15*
%TO.C,R3*%
X150460624Y-86760624D03*
X149739376Y-86039376D03*
%TD*%
D11*
%TO.C,RN2*%
X153000000Y-84200000D03*
D12*
X153000000Y-83700000D03*
X153000000Y-83200000D03*
D11*
X153000000Y-82700000D03*
X152000000Y-82700000D03*
D12*
X152000000Y-83200000D03*
X152000000Y-83700000D03*
D11*
X152000000Y-84200000D03*
%TD*%
D16*
%TO.C,U1*%
X146862500Y-87000000D03*
X146862500Y-86350000D03*
X146862500Y-85700000D03*
X146862500Y-85050000D03*
X146862500Y-84400000D03*
X146862500Y-83750000D03*
X146862500Y-83100000D03*
X146862500Y-82450000D03*
X146862500Y-81800000D03*
X146862500Y-81150000D03*
X141137500Y-81150000D03*
X141137500Y-81800000D03*
X141137500Y-82450000D03*
X141137500Y-83100000D03*
X141137500Y-83750000D03*
X141137500Y-84400000D03*
X141137500Y-85050000D03*
X141137500Y-85700000D03*
X141137500Y-86350000D03*
X141137500Y-87000000D03*
%TD*%
D17*
%TO.C,C1*%
X142400000Y-89537500D03*
X142400000Y-91262500D03*
%TD*%
M02*
