%TF.GenerationSoftware,KiCad,Pcbnew,7.0.8*%
%TF.CreationDate,2023-10-23T19:29:07+02:00*%
%TF.ProjectId,tiny-vga,74696e79-2d76-4676-912e-6b696361645f,v1.0*%
%TF.SameCoordinates,Original*%
%TF.FileFunction,Copper,L1,Top*%
%TF.FilePolarity,Positive*%
%FSLAX46Y46*%
G04 Gerber Fmt 4.6, Leading zero omitted, Abs format (unit mm)*
G04 Created by KiCad (PCBNEW 7.0.8) date 2023-10-23 19:29:07*
%MOMM*%
%LPD*%
G01*
G04 APERTURE LIST*
G04 Aperture macros list*
%AMRoundRect*
0 Rectangle with rounded corners*
0 $1 Rounding radius*
0 $2 $3 $4 $5 $6 $7 $8 $9 X,Y pos of 4 corners*
0 Add a 4 corners polygon primitive as box body*
4,1,4,$2,$3,$4,$5,$6,$7,$8,$9,$2,$3,0*
0 Add four circle primitives for the rounded corners*
1,1,$1+$1,$2,$3*
1,1,$1+$1,$4,$5*
1,1,$1+$1,$6,$7*
1,1,$1+$1,$8,$9*
0 Add four rect primitives between the rounded corners*
20,1,$1+$1,$2,$3,$4,$5,0*
20,1,$1+$1,$4,$5,$6,$7,0*
20,1,$1+$1,$6,$7,$8,$9,0*
20,1,$1+$1,$8,$9,$2,$3,0*%
%AMFreePoly0*
4,1,19,0.550000,-0.750000,0.000000,-0.750000,0.000000,-0.744911,-0.071157,-0.744911,-0.207708,-0.704816,-0.327430,-0.627875,-0.420627,-0.520320,-0.479746,-0.390866,-0.500000,-0.250000,-0.500000,0.250000,-0.479746,0.390866,-0.420627,0.520320,-0.327430,0.627875,-0.207708,0.704816,-0.071157,0.744911,0.000000,0.744911,0.000000,0.750000,0.550000,0.750000,0.550000,-0.750000,0.550000,-0.750000,
$1*%
%AMFreePoly1*
4,1,19,0.000000,0.744911,0.071157,0.744911,0.207708,0.704816,0.327430,0.627875,0.420627,0.520320,0.479746,0.390866,0.500000,0.250000,0.500000,-0.250000,0.479746,-0.390866,0.420627,-0.520320,0.327430,-0.627875,0.207708,-0.704816,0.071157,-0.744911,0.000000,-0.744911,0.000000,-0.750000,-0.550000,-0.750000,-0.550000,0.750000,0.000000,0.750000,0.000000,0.744911,0.000000,0.744911,
$1*%
G04 Aperture macros list end*
%TA.AperFunction,SMDPad,CuDef*%
%ADD10RoundRect,0.135000X-0.035355X0.226274X-0.226274X0.035355X0.035355X-0.226274X0.226274X-0.035355X0*%
%TD*%
%TA.AperFunction,SMDPad,CuDef*%
%ADD11R,0.500000X0.400000*%
%TD*%
%TA.AperFunction,SMDPad,CuDef*%
%ADD12R,0.500000X0.300000*%
%TD*%
%TA.AperFunction,SMDPad,CuDef*%
%ADD13FreePoly0,90.000000*%
%TD*%
%TA.AperFunction,SMDPad,CuDef*%
%ADD14R,1.500000X1.000000*%
%TD*%
%TA.AperFunction,SMDPad,CuDef*%
%ADD15FreePoly1,90.000000*%
%TD*%
%TA.AperFunction,ComponentPad*%
%ADD16R,1.700000X1.700000*%
%TD*%
%TA.AperFunction,ComponentPad*%
%ADD17O,1.700000X1.700000*%
%TD*%
%TA.AperFunction,SMDPad,CuDef*%
%ADD18RoundRect,0.135000X0.135000X0.185000X-0.135000X0.185000X-0.135000X-0.185000X0.135000X-0.185000X0*%
%TD*%
%TA.AperFunction,ComponentPad*%
%ADD19C,4.000000*%
%TD*%
%TA.AperFunction,ComponentPad*%
%ADD20R,1.600000X1.600000*%
%TD*%
%TA.AperFunction,ComponentPad*%
%ADD21C,1.600000*%
%TD*%
%TA.AperFunction,SMDPad,CuDef*%
%ADD22RoundRect,0.135000X-0.135000X-0.185000X0.135000X-0.185000X0.135000X0.185000X-0.135000X0.185000X0*%
%TD*%
%TA.AperFunction,SMDPad,CuDef*%
%ADD23RoundRect,0.135000X0.226274X0.035355X0.035355X0.226274X-0.226274X-0.035355X-0.035355X-0.226274X0*%
%TD*%
%TA.AperFunction,SMDPad,CuDef*%
%ADD24RoundRect,0.100000X0.637500X0.100000X-0.637500X0.100000X-0.637500X-0.100000X0.637500X-0.100000X0*%
%TD*%
%TA.AperFunction,SMDPad,CuDef*%
%ADD25RoundRect,0.237500X-0.237500X0.300000X-0.237500X-0.300000X0.237500X-0.300000X0.237500X0.300000X0*%
%TD*%
%TA.AperFunction,ViaPad*%
%ADD26C,0.800000*%
%TD*%
%TA.AperFunction,Conductor*%
%ADD27C,0.250000*%
%TD*%
%TA.AperFunction,Conductor*%
%ADD28C,0.150000*%
%TD*%
%TA.AperFunction,Conductor*%
%ADD29C,0.350000*%
%TD*%
G04 APERTURE END LIST*
%TA.AperFunction,EtchedComponent*%
%TO.C,JP1*%
G36*
X145300000Y-91300000D02*
G01*
X144900000Y-91300000D01*
X144900000Y-90800000D01*
X145300000Y-90800000D01*
X145300000Y-91300000D01*
G37*
%TD.AperFunction*%
%TA.AperFunction,EtchedComponent*%
G36*
X146100000Y-91300000D02*
G01*
X145700000Y-91300000D01*
X145700000Y-90800000D01*
X146100000Y-90800000D01*
X146100000Y-91300000D01*
G37*
%TD.AperFunction*%
%TD*%
D10*
%TO.P,R1,1*%
%TO.N,Net-(RN1A-R1.2)*%
X150460624Y-80139376D03*
%TO.P,R1,2*%
%TO.N,GND*%
X149739376Y-80860624D03*
%TD*%
D11*
%TO.P,RN3,1,R1.1*%
%TO.N,B0*%
X153000000Y-88250000D03*
D12*
%TO.P,RN3,2,R2.1*%
%TO.N,AnalogB*%
X153000000Y-87750000D03*
%TO.P,RN3,3,R3.1*%
X153000000Y-87250000D03*
D11*
%TO.P,RN3,4,R4.1*%
X153000000Y-86750000D03*
%TO.P,RN3,5,R4.2*%
%TO.N,B1*%
X152000000Y-86750000D03*
D12*
%TO.P,RN3,6,R3.2*%
%TO.N,Net-(RN3A-R1.2)*%
X152000000Y-87250000D03*
%TO.P,RN3,7,R2.2*%
X152000000Y-87750000D03*
D11*
%TO.P,RN3,8,R1.2*%
X152000000Y-88250000D03*
%TD*%
D13*
%TO.P,JP1,1,A*%
%TO.N,GND*%
X145500000Y-91700000D03*
D14*
%TO.P,JP1,2,C*%
%TO.N,Net-(JP1-C)*%
X145500000Y-90400000D03*
D15*
%TO.P,JP1,3,B*%
%TO.N,+3.3V*%
X145500000Y-89100000D03*
%TD*%
D16*
%TO.P,J1,1,Pin_1*%
%TO.N,PMOD1*%
X132540000Y-79460000D03*
D17*
%TO.P,J1,2,Pin_2*%
%TO.N,PMOD2*%
X132540000Y-82000000D03*
%TO.P,J1,3,Pin_3*%
%TO.N,PMOD3*%
X132540000Y-84540000D03*
%TO.P,J1,4,Pin_4*%
%TO.N,PMOD4*%
X132540000Y-87080000D03*
%TO.P,J1,5,Pin_5*%
%TO.N,GND*%
X132540000Y-89620000D03*
%TO.P,J1,6,Pin_6*%
%TO.N,+3.3V*%
X132540000Y-92160000D03*
%TO.P,J1,7,Pin_7*%
%TO.N,PMOD5*%
X130000000Y-79460000D03*
%TO.P,J1,8,Pin_8*%
%TO.N,PMOD6*%
X130000000Y-82000000D03*
%TO.P,J1,9,Pin_9*%
%TO.N,PMOD7*%
X130000000Y-84540000D03*
%TO.P,J1,10,Pin_10*%
%TO.N,PMOD8*%
X130000000Y-87080000D03*
%TO.P,J1,11,Pin_11*%
%TO.N,GND*%
X130000000Y-89620000D03*
%TO.P,J1,12,Pin_12*%
%TO.N,+3.3V*%
X130000000Y-92160000D03*
%TD*%
D18*
%TO.P,R2,1*%
%TO.N,Net-(RN2A-R1.2)*%
X150700000Y-83600000D03*
%TO.P,R2,2*%
%TO.N,GND*%
X149680000Y-83600000D03*
%TD*%
D19*
%TO.P,J2,0*%
%TO.N,GND*%
X161120000Y-90015000D03*
X161120000Y-65015000D03*
D20*
%TO.P,J2,1*%
%TO.N,AnalogR*%
X158580000Y-73190000D03*
D21*
%TO.P,J2,2*%
%TO.N,AnalogG*%
X158580000Y-75480000D03*
%TO.P,J2,3*%
%TO.N,AnalogB*%
X158580000Y-77770000D03*
%TO.P,J2,4*%
%TO.N,unconnected-(J2-Pad4)*%
X158580000Y-80060000D03*
%TO.P,J2,5*%
%TO.N,GND*%
X158580000Y-82350000D03*
%TO.P,J2,6*%
X161120000Y-72045000D03*
%TO.P,J2,7*%
X161120000Y-74335000D03*
%TO.P,J2,8*%
X161120000Y-76625000D03*
%TO.P,J2,9*%
%TO.N,unconnected-(J2-Pad9)*%
X161120000Y-78915000D03*
%TO.P,J2,10*%
%TO.N,GND*%
X161120000Y-81205000D03*
%TO.P,J2,11*%
%TO.N,unconnected-(J2-Pad11)*%
X163660000Y-73190000D03*
%TO.P,J2,12*%
%TO.N,unconnected-(J2-Pad12)*%
X163660000Y-75480000D03*
%TO.P,J2,13*%
%TO.N,Net-(J2-Pad13)*%
X163660000Y-77770000D03*
%TO.P,J2,14*%
%TO.N,Net-(J2-Pad14)*%
X163660000Y-80060000D03*
%TO.P,J2,15*%
%TO.N,unconnected-(J2-Pad15)*%
X163660000Y-82350000D03*
%TD*%
D22*
%TO.P,R4,1*%
%TO.N,Hsync*%
X151990000Y-91700000D03*
%TO.P,R4,2*%
%TO.N,Net-(J2-Pad13)*%
X153010000Y-91700000D03*
%TD*%
%TO.P,R5,1*%
%TO.N,Vsync*%
X151990000Y-90000000D03*
%TO.P,R5,2*%
%TO.N,Net-(J2-Pad14)*%
X153010000Y-90000000D03*
%TD*%
D11*
%TO.P,RN1,1,R1.1*%
%TO.N,R0*%
X153000000Y-80100000D03*
D12*
%TO.P,RN1,2,R2.1*%
%TO.N,AnalogR*%
X153000000Y-79600000D03*
%TO.P,RN1,3,R3.1*%
X153000000Y-79100000D03*
D11*
%TO.P,RN1,4,R4.1*%
X153000000Y-78600000D03*
%TO.P,RN1,5,R4.2*%
%TO.N,R1*%
X152000000Y-78600000D03*
D12*
%TO.P,RN1,6,R3.2*%
%TO.N,Net-(RN1A-R1.2)*%
X152000000Y-79100000D03*
%TO.P,RN1,7,R2.2*%
X152000000Y-79600000D03*
D11*
%TO.P,RN1,8,R1.2*%
X152000000Y-80100000D03*
%TD*%
D23*
%TO.P,R3,1*%
%TO.N,Net-(RN3A-R1.2)*%
X150460624Y-86760624D03*
%TO.P,R3,2*%
%TO.N,GND*%
X149739376Y-86039376D03*
%TD*%
D11*
%TO.P,RN2,1,R1.1*%
%TO.N,G0*%
X153000000Y-84200000D03*
D12*
%TO.P,RN2,2,R2.1*%
%TO.N,AnalogG*%
X153000000Y-83700000D03*
%TO.P,RN2,3,R3.1*%
X153000000Y-83200000D03*
D11*
%TO.P,RN2,4,R4.1*%
X153000000Y-82700000D03*
%TO.P,RN2,5,R4.2*%
%TO.N,G1*%
X152000000Y-82700000D03*
D12*
%TO.P,RN2,6,R3.2*%
%TO.N,Net-(RN2A-R1.2)*%
X152000000Y-83200000D03*
%TO.P,RN2,7,R2.2*%
X152000000Y-83700000D03*
D11*
%TO.P,RN2,8,R1.2*%
X152000000Y-84200000D03*
%TD*%
D24*
%TO.P,U1,1,DIR*%
%TO.N,Net-(JP1-C)*%
X146862500Y-87000000D03*
%TO.P,U1,2,A1*%
%TO.N,Hsync*%
X146862500Y-86350000D03*
%TO.P,U1,3,A2*%
%TO.N,Vsync*%
X146862500Y-85700000D03*
%TO.P,U1,4,A3*%
%TO.N,B0*%
X146862500Y-85050000D03*
%TO.P,U1,5,A4*%
%TO.N,B1*%
X146862500Y-84400000D03*
%TO.P,U1,6,A5*%
%TO.N,G0*%
X146862500Y-83750000D03*
%TO.P,U1,7,A6*%
%TO.N,G1*%
X146862500Y-83100000D03*
%TO.P,U1,8,A7*%
%TO.N,R0*%
X146862500Y-82450000D03*
%TO.P,U1,9,A8*%
%TO.N,R1*%
X146862500Y-81800000D03*
%TO.P,U1,10,GND*%
%TO.N,GND*%
X146862500Y-81150000D03*
%TO.P,U1,11,B8*%
%TO.N,PMOD1*%
X141137500Y-81150000D03*
%TO.P,U1,12,B7*%
%TO.N,PMOD5*%
X141137500Y-81800000D03*
%TO.P,U1,13,B6*%
%TO.N,PMOD2*%
X141137500Y-82450000D03*
%TO.P,U1,14,B5*%
%TO.N,PMOD6*%
X141137500Y-83100000D03*
%TO.P,U1,15,B4*%
%TO.N,PMOD3*%
X141137500Y-83750000D03*
%TO.P,U1,16,B3*%
%TO.N,PMOD7*%
X141137500Y-84400000D03*
%TO.P,U1,17,B2*%
%TO.N,PMOD4*%
X141137500Y-85050000D03*
%TO.P,U1,18,B1*%
%TO.N,PMOD8*%
X141137500Y-85700000D03*
%TO.P,U1,19,~{OE}*%
%TO.N,GND*%
X141137500Y-86350000D03*
%TO.P,U1,20,Vcc*%
%TO.N,+3.3V*%
X141137500Y-87000000D03*
%TD*%
D25*
%TO.P,C1,1*%
%TO.N,+3.3V*%
X142400000Y-89537500D03*
%TO.P,C1,2*%
%TO.N,GND*%
X142400000Y-91262500D03*
%TD*%
D26*
%TO.N,GND*%
X142500000Y-86350000D03*
X144000000Y-92700000D03*
X149100000Y-81500000D03*
X142400000Y-92700000D03*
X148800000Y-83600000D03*
X149100000Y-85401500D03*
X145450000Y-81550000D03*
%TD*%
D27*
%TO.N,GND*%
X161120000Y-74335000D02*
X161120000Y-76625000D01*
D28*
X149101500Y-85401500D02*
X149739376Y-86039376D01*
D27*
X145850000Y-81150000D02*
X146862500Y-81150000D01*
X145450000Y-81550000D02*
X145850000Y-81150000D01*
D28*
X149739376Y-80860624D02*
X149100000Y-81500000D01*
D27*
X159975000Y-82350000D02*
X161120000Y-81205000D01*
X145000000Y-91700000D02*
X144000000Y-92700000D01*
X142400000Y-91262500D02*
X142400000Y-92700000D01*
D28*
X149100000Y-85401500D02*
X149101500Y-85401500D01*
D27*
X161120000Y-72045000D02*
X161120000Y-74335000D01*
D28*
X148800000Y-83600000D02*
X149680000Y-83600000D01*
D27*
X142500000Y-86350000D02*
X141137500Y-86350000D01*
X158580000Y-82350000D02*
X159975000Y-82350000D01*
X145500000Y-91700000D02*
X145000000Y-91700000D01*
D28*
%TO.N,R0*%
X146862500Y-82450000D02*
X149450000Y-82450000D01*
X149450000Y-82450000D02*
X150900000Y-81000000D01*
X150900000Y-81000000D02*
X152100000Y-81000000D01*
X152100000Y-81000000D02*
X153000000Y-80100000D01*
%TO.N,R1*%
X150800000Y-78600000D02*
X152000000Y-78600000D01*
X147600000Y-81800000D02*
X150800000Y-78600000D01*
X146862500Y-81800000D02*
X147600000Y-81800000D01*
D29*
%TO.N,+3.3V*%
X144700000Y-88300000D02*
X145500000Y-89100000D01*
X142400000Y-88262500D02*
X142437500Y-88300000D01*
X134840000Y-92160000D02*
X140000000Y-87000000D01*
X140000000Y-87000000D02*
X141137500Y-87000000D01*
X141137500Y-87000000D02*
X142400000Y-88262500D01*
X142437500Y-88300000D02*
X144700000Y-88300000D01*
X142400000Y-88262500D02*
X142400000Y-89537500D01*
X132540000Y-92160000D02*
X134840000Y-92160000D01*
X130000000Y-92160000D02*
X132540000Y-92160000D01*
D28*
%TO.N,Net-(JP1-C)*%
X146862500Y-89787500D02*
X146250000Y-90400000D01*
X146862500Y-87000000D02*
X146862500Y-89787500D01*
X146250000Y-90400000D02*
X145500000Y-90400000D01*
%TO.N,AnalogR*%
X153000000Y-78600000D02*
X153000000Y-76900000D01*
X156710000Y-73190000D02*
X158580000Y-73190000D01*
X153000000Y-76900000D02*
X156710000Y-73190000D01*
X153000000Y-79100000D02*
X153000000Y-78600000D01*
X153000000Y-79600000D02*
X153000000Y-79100000D01*
%TO.N,Hsync*%
X147600000Y-86350000D02*
X150500000Y-89250000D01*
X150500000Y-90800000D02*
X151400000Y-91700000D01*
X146862500Y-86350000D02*
X147600000Y-86350000D01*
X150500000Y-89250000D02*
X150500000Y-90800000D01*
X151400000Y-91700000D02*
X151990000Y-91700000D01*
%TO.N,G0*%
X152525000Y-84675000D02*
X153000000Y-84200000D01*
X146862500Y-83750000D02*
X147850000Y-83750000D01*
X151636090Y-84675000D02*
X152525000Y-84675000D01*
X151261090Y-84300000D02*
X151636090Y-84675000D01*
X148400000Y-84300000D02*
X151261090Y-84300000D01*
X147850000Y-83750000D02*
X148400000Y-84300000D01*
%TO.N,AnalogG*%
X153000000Y-83200000D02*
X153000000Y-82700000D01*
X153000000Y-83700000D02*
X153000000Y-83200000D01*
X157120000Y-75480000D02*
X158580000Y-75480000D01*
X154800000Y-77800000D02*
X157120000Y-75480000D01*
X153000000Y-81900000D02*
X154800000Y-80100000D01*
X154800000Y-80100000D02*
X154800000Y-77800000D01*
X153000000Y-82700000D02*
X153000000Y-81900000D01*
%TO.N,G1*%
X146862500Y-83100000D02*
X147600000Y-83100000D01*
X151300000Y-82800000D02*
X151400000Y-82700000D01*
X147900000Y-82800000D02*
X151300000Y-82800000D01*
X151400000Y-82700000D02*
X152000000Y-82700000D01*
X147600000Y-83100000D02*
X147900000Y-82800000D01*
%TO.N,B0*%
X146862500Y-85050000D02*
X147600000Y-85050000D01*
X151350000Y-88800000D02*
X152800000Y-88800000D01*
X153000000Y-88600000D02*
X153000000Y-88250000D01*
X147600000Y-85050000D02*
X151350000Y-88800000D01*
X152800000Y-88800000D02*
X153000000Y-88600000D01*
%TO.N,AnalogB*%
X156927669Y-79422331D02*
X158580000Y-77770000D01*
X153000000Y-87750000D02*
X153000000Y-87250000D01*
X153000000Y-86750000D02*
X154500000Y-85250000D01*
X154500000Y-82329669D02*
X156927669Y-79902000D01*
X153000000Y-86750000D02*
X153000000Y-87250000D01*
X154500000Y-85250000D02*
X154500000Y-82329669D01*
X156927669Y-79902000D02*
X156927669Y-79422331D01*
%TO.N,B1*%
X149900000Y-84800000D02*
X151850000Y-86750000D01*
X151850000Y-86750000D02*
X152000000Y-86750000D01*
X148005026Y-84400000D02*
X148405026Y-84800000D01*
X146862500Y-84400000D02*
X148005026Y-84400000D01*
X148405026Y-84800000D02*
X149900000Y-84800000D01*
%TO.N,Vsync*%
X151900000Y-90000000D02*
X151990000Y-90000000D01*
X147600000Y-85700000D02*
X151900000Y-90000000D01*
X146862500Y-85700000D02*
X147600000Y-85700000D01*
D27*
%TO.N,PMOD1*%
X136460000Y-79460000D02*
X138150000Y-81150000D01*
X132540000Y-79460000D02*
X136460000Y-79460000D01*
X138150000Y-81150000D02*
X141137500Y-81150000D01*
%TO.N,PMOD2*%
X132540000Y-82000000D02*
X132990000Y-82450000D01*
X132990000Y-82450000D02*
X141137500Y-82450000D01*
%TO.N,PMOD3*%
X132540000Y-84540000D02*
X132680000Y-84400000D01*
X135800000Y-84400000D02*
X136450000Y-83750000D01*
X136450000Y-83750000D02*
X141137500Y-83750000D01*
X132680000Y-84400000D02*
X135800000Y-84400000D01*
%TO.N,PMOD4*%
X138250000Y-85050000D02*
X141137500Y-85050000D01*
X136220000Y-87080000D02*
X138250000Y-85050000D01*
X132540000Y-87080000D02*
X136220000Y-87080000D01*
%TO.N,PMOD5*%
X136000000Y-80700000D02*
X137100000Y-81800000D01*
X137100000Y-81800000D02*
X141137500Y-81800000D01*
X130000000Y-79500000D02*
X131200000Y-80700000D01*
X130000000Y-79460000D02*
X130000000Y-79500000D01*
X131200000Y-80700000D02*
X136000000Y-80700000D01*
%TO.N,PMOD6*%
X130000000Y-82000000D02*
X131300000Y-83300000D01*
X131300000Y-83300000D02*
X135100000Y-83300000D01*
X135100000Y-83300000D02*
X135300000Y-83100000D01*
X135300000Y-83100000D02*
X141137500Y-83100000D01*
%TO.N,PMOD7*%
X131260000Y-85800000D02*
X136000000Y-85800000D01*
X136000000Y-85800000D02*
X137400000Y-84400000D01*
X137400000Y-84400000D02*
X141137500Y-84400000D01*
X130000000Y-84540000D02*
X131260000Y-85800000D01*
%TO.N,PMOD8*%
X131220000Y-88300000D02*
X136500000Y-88300000D01*
X136500000Y-88300000D02*
X139100000Y-85700000D01*
X130000000Y-87080000D02*
X131220000Y-88300000D01*
X139100000Y-85700000D02*
X141137500Y-85700000D01*
D28*
%TO.N,Net-(RN1A-R1.2)*%
X152000000Y-80100000D02*
X150500000Y-80100000D01*
X152000000Y-79600000D02*
X152000000Y-80100000D01*
X152000000Y-79100000D02*
X152000000Y-79600000D01*
X150500000Y-80100000D02*
X150460624Y-80139376D01*
%TO.N,Net-(RN2A-R1.2)*%
X152000000Y-84200000D02*
X152000000Y-83700000D01*
X150800000Y-83700000D02*
X150700000Y-83600000D01*
X152000000Y-83700000D02*
X150800000Y-83700000D01*
X152000000Y-83200000D02*
X152000000Y-83700000D01*
%TO.N,Net-(RN3A-R1.2)*%
X150460624Y-86760624D02*
X151450000Y-87750000D01*
X152000000Y-88250000D02*
X152000000Y-87750000D01*
X151450000Y-87750000D02*
X152000000Y-87750000D01*
X152000000Y-87250000D02*
X152000000Y-87750000D01*
%TO.N,Net-(J2-Pad13)*%
X160000000Y-86600000D02*
X163700000Y-86600000D01*
X163700000Y-86600000D02*
X166300000Y-84000000D01*
X154900000Y-91700000D02*
X160000000Y-86600000D01*
X166300000Y-79200000D02*
X164870000Y-77770000D01*
X166300000Y-84000000D02*
X166300000Y-79200000D01*
X153010000Y-91700000D02*
X154900000Y-91700000D01*
X164870000Y-77770000D02*
X163660000Y-77770000D01*
%TO.N,Net-(J2-Pad14)*%
X155300000Y-90000000D02*
X159800000Y-85500000D01*
X164060000Y-80060000D02*
X163660000Y-80060000D01*
X163200000Y-85500000D02*
X165100000Y-83600000D01*
X153010000Y-90000000D02*
X155300000Y-90000000D01*
X165100000Y-83600000D02*
X165100000Y-81100000D01*
X165100000Y-81100000D02*
X164060000Y-80060000D01*
X159800000Y-85500000D02*
X163200000Y-85500000D01*
%TD*%
M02*
