%TF.GenerationSoftware,KiCad,Pcbnew,7.0.8*%
%TF.CreationDate,2023-10-08T11:25:24+02:00*%
%TF.ProjectId,tiny-vga,74696e79-2d76-4676-912e-6b696361645f,v1.0*%
%TF.SameCoordinates,Original*%
%TF.FileFunction,Copper,L2,Bot*%
%TF.FilePolarity,Positive*%
%FSLAX46Y46*%
G04 Gerber Fmt 4.6, Leading zero omitted, Abs format (unit mm)*
G04 Created by KiCad (PCBNEW 7.0.8) date 2023-10-08 11:25:24*
%MOMM*%
%LPD*%
G01*
G04 APERTURE LIST*
%TA.AperFunction,ComponentPad*%
%ADD10R,1.700000X1.700000*%
%TD*%
%TA.AperFunction,ComponentPad*%
%ADD11O,1.700000X1.700000*%
%TD*%
%TA.AperFunction,ComponentPad*%
%ADD12C,4.000000*%
%TD*%
%TA.AperFunction,ComponentPad*%
%ADD13R,1.600000X1.600000*%
%TD*%
%TA.AperFunction,ComponentPad*%
%ADD14C,1.600000*%
%TD*%
%TA.AperFunction,ViaPad*%
%ADD15C,0.800000*%
%TD*%
G04 APERTURE END LIST*
D10*
%TO.P,J1,1,Pin_1*%
%TO.N,PMOD1*%
X132540000Y-79460000D03*
D11*
%TO.P,J1,2,Pin_2*%
%TO.N,PMOD2*%
X132540000Y-82000000D03*
%TO.P,J1,3,Pin_3*%
%TO.N,PMOD3*%
X132540000Y-84540000D03*
%TO.P,J1,4,Pin_4*%
%TO.N,PMOD4*%
X132540000Y-87080000D03*
%TO.P,J1,5,Pin_5*%
%TO.N,GND*%
X132540000Y-89620000D03*
%TO.P,J1,6,Pin_6*%
%TO.N,+3.3V*%
X132540000Y-92160000D03*
%TO.P,J1,7,Pin_7*%
%TO.N,PMOD5*%
X130000000Y-79460000D03*
%TO.P,J1,8,Pin_8*%
%TO.N,PMOD6*%
X130000000Y-82000000D03*
%TO.P,J1,9,Pin_9*%
%TO.N,PMOD7*%
X130000000Y-84540000D03*
%TO.P,J1,10,Pin_10*%
%TO.N,PMOD8*%
X130000000Y-87080000D03*
%TO.P,J1,11,Pin_11*%
%TO.N,GND*%
X130000000Y-89620000D03*
%TO.P,J1,12,Pin_12*%
%TO.N,+3.3V*%
X130000000Y-92160000D03*
%TD*%
D12*
%TO.P,J2,0*%
%TO.N,GND*%
X161120000Y-90015000D03*
X161120000Y-65015000D03*
D13*
%TO.P,J2,1*%
%TO.N,AnalogR*%
X158580000Y-73190000D03*
D14*
%TO.P,J2,2*%
%TO.N,AnalogG*%
X158580000Y-75480000D03*
%TO.P,J2,3*%
%TO.N,AnalogB*%
X158580000Y-77770000D03*
%TO.P,J2,4*%
%TO.N,unconnected-(J2-Pad4)*%
X158580000Y-80060000D03*
%TO.P,J2,5*%
%TO.N,GND*%
X158580000Y-82350000D03*
%TO.P,J2,6*%
X161120000Y-72045000D03*
%TO.P,J2,7*%
X161120000Y-74335000D03*
%TO.P,J2,8*%
X161120000Y-76625000D03*
%TO.P,J2,9*%
%TO.N,unconnected-(J2-Pad9)*%
X161120000Y-78915000D03*
%TO.P,J2,10*%
%TO.N,GND*%
X161120000Y-81205000D03*
%TO.P,J2,11*%
%TO.N,unconnected-(J2-Pad11)*%
X163660000Y-73190000D03*
%TO.P,J2,12*%
%TO.N,unconnected-(J2-Pad12)*%
X163660000Y-75480000D03*
%TO.P,J2,13*%
%TO.N,Net-(J2-Pad13)*%
X163660000Y-77770000D03*
%TO.P,J2,14*%
%TO.N,Net-(J2-Pad14)*%
X163660000Y-80060000D03*
%TO.P,J2,15*%
%TO.N,unconnected-(J2-Pad15)*%
X163660000Y-82350000D03*
%TD*%
D15*
%TO.N,GND*%
X142500000Y-86350000D03*
X144000000Y-92700000D03*
X149100000Y-81500000D03*
X142400000Y-92700000D03*
X148800000Y-83600000D03*
X149100000Y-85401500D03*
X145450000Y-81550000D03*
%TD*%
%TA.AperFunction,Conductor*%
%TO.N,GND*%
G36*
X132080507Y-89410156D02*
G01*
X132040000Y-89548111D01*
X132040000Y-89691889D01*
X132080507Y-89829844D01*
X132106314Y-89870000D01*
X130433686Y-89870000D01*
X130459493Y-89829844D01*
X130500000Y-89691889D01*
X130500000Y-89548111D01*
X130459493Y-89410156D01*
X130433686Y-89370000D01*
X132106314Y-89370000D01*
X132080507Y-89410156D01*
G37*
%TD.AperFunction*%
%TA.AperFunction,Conductor*%
G36*
X159810281Y-80817281D02*
G01*
X159845696Y-80877510D01*
X159845202Y-80939794D01*
X159834860Y-80978389D01*
X159834858Y-80978400D01*
X159815034Y-81204997D01*
X159815034Y-81205002D01*
X159834858Y-81431599D01*
X159834861Y-81431613D01*
X159846179Y-81473855D01*
X159844516Y-81543705D01*
X159805352Y-81601567D01*
X159741123Y-81629070D01*
X159715598Y-81629475D01*
X159659026Y-81624526D01*
X159105929Y-82177622D01*
X159103116Y-82164085D01*
X159033558Y-82029844D01*
X158930362Y-81919348D01*
X158801181Y-81840791D01*
X158749996Y-81826449D01*
X159305471Y-81270974D01*
X159300884Y-81218538D01*
X159314650Y-81150038D01*
X159353288Y-81106155D01*
X159419139Y-81060047D01*
X159580047Y-80899139D01*
X159623852Y-80836577D01*
X159678428Y-80792953D01*
X159747926Y-80785759D01*
X159810281Y-80817281D01*
G37*
%TD.AperFunction*%
%TA.AperFunction,Conductor*%
G36*
X160029593Y-79652362D02*
G01*
X160076985Y-79692775D01*
X160078833Y-79695413D01*
X160119955Y-79754142D01*
X160280858Y-79915045D01*
X160346709Y-79961154D01*
X160390334Y-80015730D01*
X160399114Y-80073536D01*
X160394526Y-80125973D01*
X160948432Y-80679878D01*
X160831542Y-80730651D01*
X160714261Y-80826066D01*
X160627072Y-80949585D01*
X160596645Y-81035198D01*
X160040973Y-80479526D01*
X159984932Y-80484430D01*
X159916432Y-80470664D01*
X159866249Y-80422049D01*
X159850315Y-80354020D01*
X159854350Y-80328807D01*
X159865635Y-80286692D01*
X159885468Y-80060000D01*
X159865635Y-79833308D01*
X159855636Y-79795991D01*
X159857299Y-79726141D01*
X159896462Y-79668279D01*
X159960690Y-79640775D01*
X160029593Y-79652362D01*
G37*
%TD.AperFunction*%
%TA.AperFunction,Conductor*%
G36*
X162349441Y-79673477D02*
G01*
X162384856Y-79733706D01*
X162384364Y-79795988D01*
X162374366Y-79833303D01*
X162374364Y-79833313D01*
X162354532Y-80059998D01*
X162354532Y-80060001D01*
X162374364Y-80286686D01*
X162374366Y-80286697D01*
X162385650Y-80328808D01*
X162383987Y-80398657D01*
X162344824Y-80456520D01*
X162280596Y-80484024D01*
X162255068Y-80484429D01*
X162199025Y-80479526D01*
X161645929Y-81032622D01*
X161643116Y-81019085D01*
X161573558Y-80884844D01*
X161470362Y-80774348D01*
X161341181Y-80695791D01*
X161289996Y-80681449D01*
X161845471Y-80125974D01*
X161840884Y-80073538D01*
X161854650Y-80005038D01*
X161893288Y-79961155D01*
X161959139Y-79915047D01*
X162120047Y-79754139D01*
X162163013Y-79692775D01*
X162217588Y-79649151D01*
X162287086Y-79641956D01*
X162349441Y-79673477D01*
G37*
%TD.AperFunction*%
%TA.AperFunction,Conductor*%
G36*
X162199025Y-77350472D02*
G01*
X162255067Y-77345569D01*
X162323567Y-77359335D01*
X162373750Y-77407950D01*
X162389684Y-77475979D01*
X162385650Y-77501189D01*
X162374367Y-77543299D01*
X162374364Y-77543313D01*
X162354532Y-77769998D01*
X162354532Y-77770001D01*
X162374364Y-77996686D01*
X162374367Y-77996703D01*
X162384363Y-78034010D01*
X162382699Y-78103860D01*
X162343536Y-78161721D01*
X162279307Y-78189224D01*
X162210405Y-78177637D01*
X162163013Y-78137224D01*
X162120047Y-78075861D01*
X162120045Y-78075859D01*
X162120044Y-78075857D01*
X161959142Y-77914955D01*
X161948914Y-77907793D01*
X161893289Y-77868844D01*
X161849664Y-77814269D01*
X161840884Y-77756462D01*
X161845472Y-77704024D01*
X161291569Y-77150121D01*
X161408458Y-77099349D01*
X161525739Y-77003934D01*
X161612928Y-76880415D01*
X161643354Y-76794801D01*
X162199025Y-77350472D01*
G37*
%TD.AperFunction*%
%TA.AperFunction,Conductor*%
G36*
X160596884Y-76810915D02*
G01*
X160666442Y-76945156D01*
X160769638Y-77055652D01*
X160898819Y-77134209D01*
X160950002Y-77148549D01*
X160394526Y-77704025D01*
X160399114Y-77756463D01*
X160385347Y-77824963D01*
X160346710Y-77868845D01*
X160280856Y-77914956D01*
X160119953Y-78075859D01*
X160076986Y-78137224D01*
X160022409Y-78180849D01*
X159952911Y-78188043D01*
X159890556Y-78156520D01*
X159855142Y-78096290D01*
X159855635Y-78034009D01*
X159865635Y-77996692D01*
X159885468Y-77770000D01*
X159865635Y-77543308D01*
X159854349Y-77501188D01*
X159856012Y-77431340D01*
X159895174Y-77373477D01*
X159959402Y-77345973D01*
X159984933Y-77345568D01*
X160040974Y-77350471D01*
X160594070Y-76797375D01*
X160596884Y-76810915D01*
G37*
%TD.AperFunction*%
%TA.AperFunction,Conductor*%
G36*
X160596884Y-74520915D02*
G01*
X160666442Y-74655156D01*
X160769638Y-74765652D01*
X160898819Y-74844209D01*
X160950002Y-74858549D01*
X160394526Y-75414025D01*
X160399353Y-75469198D01*
X160399353Y-75490813D01*
X160394526Y-75545973D01*
X160948432Y-76099878D01*
X160831542Y-76150651D01*
X160714261Y-76246066D01*
X160627072Y-76369585D01*
X160596645Y-76455198D01*
X160040973Y-75899526D01*
X159984932Y-75904430D01*
X159916432Y-75890664D01*
X159866249Y-75842049D01*
X159850315Y-75774020D01*
X159854350Y-75748807D01*
X159865635Y-75706692D01*
X159885468Y-75480000D01*
X159865635Y-75253308D01*
X159854349Y-75211188D01*
X159856012Y-75141340D01*
X159895174Y-75083477D01*
X159959402Y-75055973D01*
X159984933Y-75055568D01*
X160040974Y-75060471D01*
X160594070Y-74507375D01*
X160596884Y-74520915D01*
G37*
%TD.AperFunction*%
%TA.AperFunction,Conductor*%
G36*
X162199025Y-75060472D02*
G01*
X162255067Y-75055569D01*
X162323567Y-75069335D01*
X162373750Y-75117950D01*
X162389684Y-75185979D01*
X162385650Y-75211189D01*
X162374367Y-75253299D01*
X162374364Y-75253313D01*
X162354532Y-75479998D01*
X162354532Y-75480001D01*
X162374364Y-75706686D01*
X162374366Y-75706697D01*
X162385650Y-75748808D01*
X162383987Y-75818657D01*
X162344824Y-75876520D01*
X162280596Y-75904024D01*
X162255068Y-75904429D01*
X162199025Y-75899526D01*
X161645929Y-76452622D01*
X161643116Y-76439085D01*
X161573558Y-76304844D01*
X161470362Y-76194348D01*
X161341181Y-76115791D01*
X161289996Y-76101449D01*
X161845471Y-75545974D01*
X161840645Y-75490813D01*
X161840645Y-75469196D01*
X161845472Y-75414025D01*
X161291568Y-74860121D01*
X161408458Y-74809349D01*
X161525739Y-74713934D01*
X161612928Y-74590415D01*
X161643354Y-74504801D01*
X162199025Y-75060472D01*
G37*
%TD.AperFunction*%
%TA.AperFunction,Conductor*%
G36*
X160596884Y-72230915D02*
G01*
X160666442Y-72365156D01*
X160769638Y-72475652D01*
X160898819Y-72554209D01*
X160950002Y-72568549D01*
X160394526Y-73124025D01*
X160399353Y-73179198D01*
X160399353Y-73200813D01*
X160394526Y-73255973D01*
X160948432Y-73809878D01*
X160831542Y-73860651D01*
X160714261Y-73956066D01*
X160627072Y-74079585D01*
X160596645Y-74165198D01*
X160040973Y-73609526D01*
X160015306Y-73611772D01*
X159946806Y-73598005D01*
X159896623Y-73549390D01*
X159880499Y-73488246D01*
X159880499Y-72891752D01*
X159900184Y-72824715D01*
X159952988Y-72778960D01*
X160015308Y-72768226D01*
X160040974Y-72770471D01*
X160594070Y-72217375D01*
X160596884Y-72230915D01*
G37*
%TD.AperFunction*%
%TA.AperFunction,Conductor*%
G36*
X162199025Y-72770472D02*
G01*
X162255067Y-72765569D01*
X162323567Y-72779335D01*
X162373750Y-72827950D01*
X162389684Y-72895979D01*
X162385650Y-72921189D01*
X162374367Y-72963299D01*
X162374364Y-72963313D01*
X162354532Y-73189998D01*
X162354532Y-73190001D01*
X162374364Y-73416686D01*
X162374366Y-73416697D01*
X162385650Y-73458808D01*
X162383987Y-73528657D01*
X162344824Y-73586520D01*
X162280596Y-73614024D01*
X162255068Y-73614429D01*
X162199025Y-73609526D01*
X161645929Y-74162622D01*
X161643116Y-74149085D01*
X161573558Y-74014844D01*
X161470362Y-73904348D01*
X161341181Y-73825791D01*
X161289996Y-73811449D01*
X161845471Y-73255974D01*
X161840645Y-73200813D01*
X161840645Y-73179196D01*
X161845472Y-73124025D01*
X161291568Y-72570121D01*
X161408458Y-72519349D01*
X161525739Y-72423934D01*
X161612928Y-72300415D01*
X161643354Y-72214801D01*
X162199025Y-72770472D01*
G37*
%TD.AperFunction*%
%TA.AperFunction,Conductor*%
G36*
X164001423Y-61000566D02*
G01*
X164040986Y-61002394D01*
X164172950Y-61008495D01*
X164372549Y-61018302D01*
X164378048Y-61018819D01*
X164563357Y-61044668D01*
X164749828Y-61072329D01*
X164754871Y-61073294D01*
X164939341Y-61116681D01*
X165120221Y-61161989D01*
X165124797Y-61163327D01*
X165305568Y-61223916D01*
X165480339Y-61286450D01*
X165484471Y-61288100D01*
X165542986Y-61313936D01*
X165659474Y-61365370D01*
X165826973Y-61444592D01*
X165830601Y-61446457D01*
X165998128Y-61539770D01*
X165998142Y-61539778D01*
X166156964Y-61634972D01*
X166160119Y-61636996D01*
X166318603Y-61745559D01*
X166467377Y-61855897D01*
X166470001Y-61857957D01*
X166618027Y-61980876D01*
X166755321Y-62105314D01*
X166757514Y-62107402D01*
X166892596Y-62242484D01*
X166894695Y-62244688D01*
X167019129Y-62381980D01*
X167142034Y-62529989D01*
X167144109Y-62532632D01*
X167254443Y-62681400D01*
X167363002Y-62839879D01*
X167365032Y-62843044D01*
X167460221Y-63001857D01*
X167553527Y-63169371D01*
X167555410Y-63173034D01*
X167634638Y-63340547D01*
X167711899Y-63515527D01*
X167713558Y-63519685D01*
X167776093Y-63694459D01*
X167836662Y-63875173D01*
X167838018Y-63879812D01*
X167883317Y-64060654D01*
X167926696Y-64245090D01*
X167927672Y-64250189D01*
X167955337Y-64436689D01*
X167981177Y-64621933D01*
X167981697Y-64627459D01*
X167991512Y-64827238D01*
X167999434Y-64998575D01*
X167999500Y-65001439D01*
X167999500Y-89998560D01*
X167999434Y-90001424D01*
X167991512Y-90172761D01*
X167981697Y-90372539D01*
X167981177Y-90378065D01*
X167955337Y-90563310D01*
X167927672Y-90749809D01*
X167926696Y-90754908D01*
X167883317Y-90939345D01*
X167838018Y-91120186D01*
X167836662Y-91124825D01*
X167776093Y-91305540D01*
X167713557Y-91480314D01*
X167711899Y-91484470D01*
X167634638Y-91659452D01*
X167555410Y-91826964D01*
X167553527Y-91830627D01*
X167460221Y-91998142D01*
X167365032Y-92156954D01*
X167363002Y-92160118D01*
X167254437Y-92318608D01*
X167144121Y-92467350D01*
X167142021Y-92470025D01*
X167019132Y-92618016D01*
X166894695Y-92755310D01*
X166892596Y-92757514D01*
X166757514Y-92892596D01*
X166755310Y-92894695D01*
X166618016Y-93019132D01*
X166470025Y-93142021D01*
X166467350Y-93144121D01*
X166318608Y-93254437D01*
X166160118Y-93363002D01*
X166156954Y-93365032D01*
X165998142Y-93460221D01*
X165830627Y-93553527D01*
X165826964Y-93555410D01*
X165659452Y-93634638D01*
X165484470Y-93711899D01*
X165480314Y-93713557D01*
X165305540Y-93776093D01*
X165124825Y-93836662D01*
X165120186Y-93838018D01*
X164939345Y-93883317D01*
X164754908Y-93926696D01*
X164749809Y-93927672D01*
X164563310Y-93955337D01*
X164378065Y-93981177D01*
X164372539Y-93981697D01*
X164172761Y-93991512D01*
X164001424Y-93999434D01*
X163998560Y-93999500D01*
X129002710Y-93999500D01*
X128997303Y-93999264D01*
X128995015Y-93999063D01*
X128954554Y-93995523D01*
X128828238Y-93983082D01*
X128808299Y-93979454D01*
X128741669Y-93961601D01*
X128648435Y-93933319D01*
X128632027Y-93927040D01*
X128570602Y-93898398D01*
X128564618Y-93895607D01*
X128561605Y-93894101D01*
X128477671Y-93849236D01*
X128471331Y-93845341D01*
X128405170Y-93799015D01*
X128401398Y-93796154D01*
X128329190Y-93736895D01*
X128324688Y-93732815D01*
X128267182Y-93675309D01*
X128263103Y-93670808D01*
X128203844Y-93598600D01*
X128200983Y-93594828D01*
X128154657Y-93528667D01*
X128150762Y-93522327D01*
X128117565Y-93460221D01*
X128105888Y-93438375D01*
X128104406Y-93435411D01*
X128072958Y-93367971D01*
X128066682Y-93351570D01*
X128038403Y-93258349D01*
X128020541Y-93191685D01*
X128016918Y-93171771D01*
X128004482Y-93045519D01*
X128000735Y-93002695D01*
X128000500Y-92997293D01*
X128000500Y-92160000D01*
X128644341Y-92160000D01*
X128664936Y-92395398D01*
X128664938Y-92395413D01*
X128726094Y-92623655D01*
X128726096Y-92623659D01*
X128726097Y-92623663D01*
X128730000Y-92632032D01*
X128825965Y-92837830D01*
X128825967Y-92837834D01*
X128865782Y-92894695D01*
X128961505Y-93031401D01*
X129128599Y-93198495D01*
X129214025Y-93258311D01*
X129322165Y-93334032D01*
X129322167Y-93334033D01*
X129322170Y-93334035D01*
X129536337Y-93433903D01*
X129536343Y-93433904D01*
X129536344Y-93433905D01*
X129553027Y-93438375D01*
X129764592Y-93495063D01*
X129952918Y-93511539D01*
X129999999Y-93515659D01*
X130000000Y-93515659D01*
X130000001Y-93515659D01*
X130039234Y-93512226D01*
X130235408Y-93495063D01*
X130463663Y-93433903D01*
X130677830Y-93334035D01*
X130871401Y-93198495D01*
X131038495Y-93031401D01*
X131168425Y-92845842D01*
X131223002Y-92802217D01*
X131292500Y-92795023D01*
X131354855Y-92826546D01*
X131371575Y-92845842D01*
X131501500Y-93031395D01*
X131501505Y-93031401D01*
X131668599Y-93198495D01*
X131754025Y-93258311D01*
X131862165Y-93334032D01*
X131862167Y-93334033D01*
X131862170Y-93334035D01*
X132076337Y-93433903D01*
X132076343Y-93433904D01*
X132076344Y-93433905D01*
X132093027Y-93438375D01*
X132304592Y-93495063D01*
X132492918Y-93511539D01*
X132539999Y-93515659D01*
X132540000Y-93515659D01*
X132540001Y-93515659D01*
X132579234Y-93512226D01*
X132775408Y-93495063D01*
X133003663Y-93433903D01*
X133217830Y-93334035D01*
X133411401Y-93198495D01*
X133578495Y-93031401D01*
X133714035Y-92837830D01*
X133813903Y-92623663D01*
X133875063Y-92395408D01*
X133895659Y-92160000D01*
X133875063Y-91924592D01*
X133813903Y-91696337D01*
X133714035Y-91482171D01*
X133708425Y-91474158D01*
X133578494Y-91288597D01*
X133411402Y-91121506D01*
X133411401Y-91121505D01*
X133225405Y-90991269D01*
X133181781Y-90936692D01*
X133174588Y-90867193D01*
X133206110Y-90804839D01*
X133225405Y-90788119D01*
X133411082Y-90658105D01*
X133578105Y-90491082D01*
X133713600Y-90297578D01*
X133813429Y-90083492D01*
X133813432Y-90083486D01*
X133831782Y-90015005D01*
X158615057Y-90015005D01*
X158634807Y-90328942D01*
X158634808Y-90328949D01*
X158693755Y-90637958D01*
X158790963Y-90937132D01*
X158790965Y-90937137D01*
X158924900Y-91221761D01*
X158924903Y-91221767D01*
X159093457Y-91487367D01*
X159093460Y-91487371D01*
X159184286Y-91597160D01*
X159822266Y-90959180D01*
X159985130Y-91149870D01*
X160175818Y-91312732D01*
X159534971Y-91953579D01*
X159534972Y-91953581D01*
X159777772Y-92129985D01*
X159777790Y-92129996D01*
X160053447Y-92281540D01*
X160053455Y-92281544D01*
X160345926Y-92397340D01*
X160650620Y-92475573D01*
X160650629Y-92475575D01*
X160962701Y-92514999D01*
X160962715Y-92515000D01*
X161277285Y-92515000D01*
X161277298Y-92514999D01*
X161589370Y-92475575D01*
X161589379Y-92475573D01*
X161894073Y-92397340D01*
X162186544Y-92281544D01*
X162186552Y-92281540D01*
X162462209Y-92129996D01*
X162462219Y-92129990D01*
X162705026Y-91953579D01*
X162705027Y-91953579D01*
X162064180Y-91312733D01*
X162254870Y-91149870D01*
X162417733Y-90959181D01*
X163055712Y-91597160D01*
X163146544Y-91487364D01*
X163315096Y-91221767D01*
X163315099Y-91221761D01*
X163449034Y-90937137D01*
X163449036Y-90937132D01*
X163546244Y-90637958D01*
X163605191Y-90328949D01*
X163605192Y-90328942D01*
X163624943Y-90015005D01*
X163624943Y-90014994D01*
X163605192Y-89701057D01*
X163605191Y-89701050D01*
X163546244Y-89392041D01*
X163449036Y-89092867D01*
X163449034Y-89092862D01*
X163315099Y-88808238D01*
X163315096Y-88808232D01*
X163146542Y-88542632D01*
X163146539Y-88542628D01*
X163055712Y-88432838D01*
X162417732Y-89070818D01*
X162254870Y-88880130D01*
X162064180Y-88717266D01*
X162705027Y-88076419D01*
X162705026Y-88076417D01*
X162462227Y-87900014D01*
X162462209Y-87900003D01*
X162186552Y-87748459D01*
X162186544Y-87748455D01*
X161894073Y-87632659D01*
X161589379Y-87554426D01*
X161589370Y-87554424D01*
X161277298Y-87515000D01*
X160962701Y-87515000D01*
X160650629Y-87554424D01*
X160650620Y-87554426D01*
X160345926Y-87632659D01*
X160053455Y-87748455D01*
X160053447Y-87748459D01*
X159777787Y-87900004D01*
X159777782Y-87900007D01*
X159534972Y-88076418D01*
X159534971Y-88076419D01*
X160175819Y-88717266D01*
X159985130Y-88880130D01*
X159822266Y-89070818D01*
X159184286Y-88432838D01*
X159184285Y-88432838D01*
X159093459Y-88542629D01*
X159093457Y-88542632D01*
X158924903Y-88808232D01*
X158924900Y-88808238D01*
X158790965Y-89092862D01*
X158790963Y-89092867D01*
X158693755Y-89392041D01*
X158634808Y-89701050D01*
X158634807Y-89701057D01*
X158615057Y-90014994D01*
X158615057Y-90015005D01*
X133831782Y-90015005D01*
X133870636Y-89870000D01*
X132973686Y-89870000D01*
X132999493Y-89829844D01*
X133040000Y-89691889D01*
X133040000Y-89548111D01*
X132999493Y-89410156D01*
X132973686Y-89370000D01*
X133870636Y-89370000D01*
X133870635Y-89369999D01*
X133813432Y-89156513D01*
X133813429Y-89156507D01*
X133713600Y-88942422D01*
X133713599Y-88942420D01*
X133578113Y-88748926D01*
X133578108Y-88748920D01*
X133411078Y-88581890D01*
X133225405Y-88451879D01*
X133181780Y-88397302D01*
X133174588Y-88327804D01*
X133206110Y-88265449D01*
X133225406Y-88248730D01*
X133411401Y-88118495D01*
X133578495Y-87951401D01*
X133714035Y-87757830D01*
X133813903Y-87543663D01*
X133875063Y-87315408D01*
X133895659Y-87080000D01*
X133875063Y-86844592D01*
X133813903Y-86616337D01*
X133714035Y-86402171D01*
X133708425Y-86394158D01*
X133578494Y-86208597D01*
X133411402Y-86041506D01*
X133411396Y-86041501D01*
X133225842Y-85911575D01*
X133182217Y-85856998D01*
X133175023Y-85787500D01*
X133206546Y-85725145D01*
X133225842Y-85708425D01*
X133248026Y-85692891D01*
X133411401Y-85578495D01*
X133578495Y-85411401D01*
X133714035Y-85217830D01*
X133813903Y-85003663D01*
X133875063Y-84775408D01*
X133895659Y-84540000D01*
X133875063Y-84304592D01*
X133813903Y-84076337D01*
X133714035Y-83862171D01*
X133708425Y-83854158D01*
X133578494Y-83668597D01*
X133411402Y-83501506D01*
X133411396Y-83501501D01*
X133225842Y-83371575D01*
X133182217Y-83316998D01*
X133175023Y-83247500D01*
X133206546Y-83185145D01*
X133225842Y-83168425D01*
X133358592Y-83075472D01*
X133411401Y-83038495D01*
X133578495Y-82871401D01*
X133714035Y-82677830D01*
X133813903Y-82463663D01*
X133875063Y-82235408D01*
X133895659Y-82000000D01*
X133875063Y-81764592D01*
X133813903Y-81536337D01*
X133714035Y-81322171D01*
X133708424Y-81314158D01*
X133578496Y-81128600D01*
X133541943Y-81092047D01*
X133456567Y-81006671D01*
X133423084Y-80945351D01*
X133428068Y-80875659D01*
X133469939Y-80819725D01*
X133500915Y-80802810D01*
X133632331Y-80753796D01*
X133747546Y-80667546D01*
X133833796Y-80552331D01*
X133884091Y-80417483D01*
X133890500Y-80357873D01*
X133890500Y-80060001D01*
X157274532Y-80060001D01*
X157294364Y-80286686D01*
X157294366Y-80286697D01*
X157353258Y-80506488D01*
X157353261Y-80506497D01*
X157449431Y-80712732D01*
X157449432Y-80712734D01*
X157579954Y-80899141D01*
X157740858Y-81060045D01*
X157806709Y-81106154D01*
X157850334Y-81160730D01*
X157859114Y-81218536D01*
X157854526Y-81270973D01*
X158408432Y-81824878D01*
X158291542Y-81875651D01*
X158174261Y-81971066D01*
X158087072Y-82094585D01*
X158056645Y-82180198D01*
X157500973Y-81624526D01*
X157500972Y-81624527D01*
X157449868Y-81697513D01*
X157353734Y-81903673D01*
X157353730Y-81903682D01*
X157294860Y-82123389D01*
X157294858Y-82123400D01*
X157275034Y-82349997D01*
X157275034Y-82350002D01*
X157294858Y-82576599D01*
X157294860Y-82576610D01*
X157353730Y-82796317D01*
X157353734Y-82796326D01*
X157449865Y-83002481D01*
X157449866Y-83002483D01*
X157500973Y-83075471D01*
X157500974Y-83075472D01*
X158054070Y-82522375D01*
X158056884Y-82535915D01*
X158126442Y-82670156D01*
X158229638Y-82780652D01*
X158358819Y-82859209D01*
X158410002Y-82873549D01*
X157854526Y-83429025D01*
X157854526Y-83429026D01*
X157927512Y-83480131D01*
X157927516Y-83480133D01*
X158133673Y-83576265D01*
X158133682Y-83576269D01*
X158353389Y-83635139D01*
X158353400Y-83635141D01*
X158579998Y-83654966D01*
X158580002Y-83654966D01*
X158806599Y-83635141D01*
X158806610Y-83635139D01*
X159026317Y-83576269D01*
X159026331Y-83576264D01*
X159232478Y-83480136D01*
X159305472Y-83429025D01*
X158751568Y-82875121D01*
X158868458Y-82824349D01*
X158985739Y-82728934D01*
X159072928Y-82605415D01*
X159103354Y-82519801D01*
X159659025Y-83075472D01*
X159710136Y-83002478D01*
X159806264Y-82796331D01*
X159806269Y-82796317D01*
X159865139Y-82576610D01*
X159865141Y-82576599D01*
X159884966Y-82350002D01*
X159884966Y-82349997D01*
X159865141Y-82123400D01*
X159865138Y-82123385D01*
X159853820Y-82081145D01*
X159855482Y-82011295D01*
X159894643Y-81953432D01*
X159958872Y-81925927D01*
X159984402Y-81925522D01*
X160040974Y-81930471D01*
X160594070Y-81377375D01*
X160596884Y-81390915D01*
X160666442Y-81525156D01*
X160769638Y-81635652D01*
X160898819Y-81714209D01*
X160950002Y-81728549D01*
X160394526Y-82284025D01*
X160394526Y-82284026D01*
X160467512Y-82335131D01*
X160467516Y-82335133D01*
X160673673Y-82431265D01*
X160673682Y-82431269D01*
X160893389Y-82490139D01*
X160893400Y-82490141D01*
X161119998Y-82509966D01*
X161120002Y-82509966D01*
X161346599Y-82490141D01*
X161346610Y-82490139D01*
X161566317Y-82431269D01*
X161566331Y-82431264D01*
X161772478Y-82335136D01*
X161845472Y-82284025D01*
X161291568Y-81730121D01*
X161408458Y-81679349D01*
X161525739Y-81583934D01*
X161612928Y-81460415D01*
X161643354Y-81374801D01*
X162199025Y-81930472D01*
X162255067Y-81925569D01*
X162323567Y-81939335D01*
X162373750Y-81987950D01*
X162389684Y-82055979D01*
X162385650Y-82081189D01*
X162374367Y-82123299D01*
X162374364Y-82123313D01*
X162354532Y-82349998D01*
X162354532Y-82350001D01*
X162374364Y-82576686D01*
X162374366Y-82576697D01*
X162433258Y-82796488D01*
X162433261Y-82796497D01*
X162529431Y-83002732D01*
X162529432Y-83002734D01*
X162659954Y-83189141D01*
X162820858Y-83350045D01*
X162843594Y-83365965D01*
X163007266Y-83480568D01*
X163213504Y-83576739D01*
X163433308Y-83635635D01*
X163595230Y-83649801D01*
X163659998Y-83655468D01*
X163660000Y-83655468D01*
X163660002Y-83655468D01*
X163716673Y-83650509D01*
X163886692Y-83635635D01*
X164106496Y-83576739D01*
X164312734Y-83480568D01*
X164499139Y-83350047D01*
X164660047Y-83189139D01*
X164790568Y-83002734D01*
X164886739Y-82796496D01*
X164945635Y-82576692D01*
X164965468Y-82350000D01*
X164945635Y-82123308D01*
X164886739Y-81903504D01*
X164790568Y-81697266D01*
X164660047Y-81510861D01*
X164660046Y-81510860D01*
X164660045Y-81510858D01*
X164499142Y-81349955D01*
X164475576Y-81333454D01*
X164437188Y-81306574D01*
X164393563Y-81251999D01*
X164386369Y-81182501D01*
X164417891Y-81120146D01*
X164437188Y-81103425D01*
X164499139Y-81060047D01*
X164660047Y-80899139D01*
X164790568Y-80712734D01*
X164886739Y-80506496D01*
X164945635Y-80286692D01*
X164965468Y-80060000D01*
X164945635Y-79833308D01*
X164886739Y-79613504D01*
X164790568Y-79407266D01*
X164662662Y-79224596D01*
X164660045Y-79220858D01*
X164499142Y-79059955D01*
X164488079Y-79052208D01*
X164437188Y-79016574D01*
X164393563Y-78961999D01*
X164386369Y-78892501D01*
X164417891Y-78830146D01*
X164437188Y-78813425D01*
X164499139Y-78770047D01*
X164660047Y-78609139D01*
X164790568Y-78422734D01*
X164886739Y-78216496D01*
X164945635Y-77996692D01*
X164965468Y-77770000D01*
X164945635Y-77543308D01*
X164886739Y-77323504D01*
X164790568Y-77117266D01*
X164660047Y-76930861D01*
X164660046Y-76930860D01*
X164660045Y-76930858D01*
X164499142Y-76769955D01*
X164488079Y-76762208D01*
X164437188Y-76726574D01*
X164393563Y-76671999D01*
X164386369Y-76602501D01*
X164417891Y-76540146D01*
X164437188Y-76523425D01*
X164499139Y-76480047D01*
X164660047Y-76319139D01*
X164790568Y-76132734D01*
X164886739Y-75926496D01*
X164945635Y-75706692D01*
X164965468Y-75480000D01*
X164945635Y-75253308D01*
X164886739Y-75033504D01*
X164790568Y-74827266D01*
X164660047Y-74640861D01*
X164660046Y-74640860D01*
X164660045Y-74640858D01*
X164499142Y-74479955D01*
X164488079Y-74472208D01*
X164437188Y-74436574D01*
X164393563Y-74381999D01*
X164386369Y-74312501D01*
X164417891Y-74250146D01*
X164437188Y-74233425D01*
X164499139Y-74190047D01*
X164660047Y-74029139D01*
X164790568Y-73842734D01*
X164886739Y-73636496D01*
X164945635Y-73416692D01*
X164965468Y-73190000D01*
X164945635Y-72963308D01*
X164886739Y-72743504D01*
X164790568Y-72537266D01*
X164660047Y-72350861D01*
X164660046Y-72350860D01*
X164660045Y-72350858D01*
X164499141Y-72189954D01*
X164312734Y-72059432D01*
X164312732Y-72059431D01*
X164106497Y-71963261D01*
X164106488Y-71963258D01*
X163886697Y-71904366D01*
X163886693Y-71904365D01*
X163886692Y-71904365D01*
X163886691Y-71904364D01*
X163886686Y-71904364D01*
X163660002Y-71884532D01*
X163659998Y-71884532D01*
X163433313Y-71904364D01*
X163433302Y-71904366D01*
X163213511Y-71963258D01*
X163213502Y-71963261D01*
X163007267Y-72059431D01*
X163007265Y-72059432D01*
X162820858Y-72189954D01*
X162659952Y-72350860D01*
X162616146Y-72413422D01*
X162561569Y-72457047D01*
X162492071Y-72464239D01*
X162429716Y-72432717D01*
X162394303Y-72372486D01*
X162394798Y-72310202D01*
X162405139Y-72271610D01*
X162405141Y-72271599D01*
X162424966Y-72045002D01*
X162424966Y-72044997D01*
X162405141Y-71818400D01*
X162405139Y-71818389D01*
X162346269Y-71598682D01*
X162346265Y-71598673D01*
X162250133Y-71392516D01*
X162250131Y-71392512D01*
X162199026Y-71319526D01*
X162199025Y-71319526D01*
X161645929Y-71872622D01*
X161643116Y-71859085D01*
X161573558Y-71724844D01*
X161470362Y-71614348D01*
X161341181Y-71535791D01*
X161289996Y-71521449D01*
X161845472Y-70965974D01*
X161845471Y-70965973D01*
X161772483Y-70914866D01*
X161772481Y-70914865D01*
X161566326Y-70818734D01*
X161566317Y-70818730D01*
X161346610Y-70759860D01*
X161346599Y-70759858D01*
X161120002Y-70740034D01*
X161119998Y-70740034D01*
X160893400Y-70759858D01*
X160893389Y-70759860D01*
X160673682Y-70818730D01*
X160673673Y-70818734D01*
X160467513Y-70914868D01*
X160394527Y-70965972D01*
X160394526Y-70965973D01*
X160948432Y-71519878D01*
X160831542Y-71570651D01*
X160714261Y-71666066D01*
X160627072Y-71789585D01*
X160596645Y-71875198D01*
X160040973Y-71319526D01*
X160040972Y-71319527D01*
X159989868Y-71392513D01*
X159893734Y-71598673D01*
X159893730Y-71598682D01*
X159834860Y-71818389D01*
X159834858Y-71818399D01*
X159830725Y-71865646D01*
X159805272Y-71930715D01*
X159748681Y-71971693D01*
X159678919Y-71975571D01*
X159632888Y-71954106D01*
X159622334Y-71946205D01*
X159622328Y-71946202D01*
X159487482Y-71895908D01*
X159487483Y-71895908D01*
X159427883Y-71889501D01*
X159427881Y-71889500D01*
X159427873Y-71889500D01*
X159427864Y-71889500D01*
X157732129Y-71889500D01*
X157732123Y-71889501D01*
X157672516Y-71895908D01*
X157537671Y-71946202D01*
X157537664Y-71946206D01*
X157422455Y-72032452D01*
X157422452Y-72032455D01*
X157336206Y-72147664D01*
X157336202Y-72147671D01*
X157285908Y-72282517D01*
X157279501Y-72342116D01*
X157279500Y-72342135D01*
X157279500Y-74037870D01*
X157279501Y-74037876D01*
X157285908Y-74097483D01*
X157336202Y-74232328D01*
X157336206Y-74232335D01*
X157422452Y-74347544D01*
X157422455Y-74347547D01*
X157537664Y-74433793D01*
X157537675Y-74433799D01*
X157538497Y-74434106D01*
X157539198Y-74434631D01*
X157545454Y-74438047D01*
X157544962Y-74438946D01*
X157594431Y-74475977D01*
X157618847Y-74541442D01*
X157603995Y-74609715D01*
X157582851Y-74637962D01*
X157579953Y-74640860D01*
X157449432Y-74827265D01*
X157449431Y-74827267D01*
X157353261Y-75033502D01*
X157353258Y-75033511D01*
X157294366Y-75253302D01*
X157294364Y-75253313D01*
X157274532Y-75479998D01*
X157274532Y-75480001D01*
X157294364Y-75706686D01*
X157294366Y-75706697D01*
X157353258Y-75926488D01*
X157353261Y-75926497D01*
X157449431Y-76132732D01*
X157449432Y-76132734D01*
X157579954Y-76319141D01*
X157740859Y-76480046D01*
X157802811Y-76523425D01*
X157846436Y-76578002D01*
X157853630Y-76647500D01*
X157822107Y-76709855D01*
X157802811Y-76726575D01*
X157740859Y-76769953D01*
X157579954Y-76930858D01*
X157449432Y-77117265D01*
X157449431Y-77117267D01*
X157353261Y-77323502D01*
X157353258Y-77323511D01*
X157294366Y-77543302D01*
X157294364Y-77543313D01*
X157274532Y-77769998D01*
X157274532Y-77770001D01*
X157294364Y-77996686D01*
X157294366Y-77996697D01*
X157353258Y-78216488D01*
X157353261Y-78216497D01*
X157449431Y-78422732D01*
X157449432Y-78422734D01*
X157579954Y-78609141D01*
X157740859Y-78770046D01*
X157802811Y-78813425D01*
X157846436Y-78868002D01*
X157853630Y-78937500D01*
X157822107Y-78999855D01*
X157802811Y-79016575D01*
X157740859Y-79059953D01*
X157579954Y-79220858D01*
X157449432Y-79407265D01*
X157449431Y-79407267D01*
X157353261Y-79613502D01*
X157353258Y-79613511D01*
X157294366Y-79833302D01*
X157294364Y-79833313D01*
X157274532Y-80059998D01*
X157274532Y-80060001D01*
X133890500Y-80060001D01*
X133890499Y-78562128D01*
X133884091Y-78502517D01*
X133882810Y-78499083D01*
X133833797Y-78367671D01*
X133833793Y-78367664D01*
X133747547Y-78252455D01*
X133747544Y-78252452D01*
X133632335Y-78166206D01*
X133632328Y-78166202D01*
X133497482Y-78115908D01*
X133497483Y-78115908D01*
X133437883Y-78109501D01*
X133437881Y-78109500D01*
X133437873Y-78109500D01*
X133437864Y-78109500D01*
X131642129Y-78109500D01*
X131642123Y-78109501D01*
X131582516Y-78115908D01*
X131447671Y-78166202D01*
X131447664Y-78166206D01*
X131332455Y-78252452D01*
X131332452Y-78252455D01*
X131246206Y-78367664D01*
X131246203Y-78367669D01*
X131197189Y-78499083D01*
X131155317Y-78555016D01*
X131089853Y-78579433D01*
X131021580Y-78564581D01*
X130993326Y-78543430D01*
X130871402Y-78421506D01*
X130871395Y-78421501D01*
X130677834Y-78285967D01*
X130677830Y-78285965D01*
X130627007Y-78262266D01*
X130463663Y-78186097D01*
X130463659Y-78186096D01*
X130463655Y-78186094D01*
X130235413Y-78124938D01*
X130235403Y-78124936D01*
X130000001Y-78104341D01*
X129999999Y-78104341D01*
X129764596Y-78124936D01*
X129764586Y-78124938D01*
X129536344Y-78186094D01*
X129536335Y-78186098D01*
X129322171Y-78285964D01*
X129322169Y-78285965D01*
X129128597Y-78421505D01*
X128961505Y-78588597D01*
X128825965Y-78782169D01*
X128825964Y-78782171D01*
X128726098Y-78996335D01*
X128726094Y-78996344D01*
X128664938Y-79224586D01*
X128664936Y-79224596D01*
X128644341Y-79459999D01*
X128644341Y-79460000D01*
X128664936Y-79695403D01*
X128664938Y-79695413D01*
X128726094Y-79923655D01*
X128726096Y-79923659D01*
X128726097Y-79923663D01*
X128789671Y-80059998D01*
X128825965Y-80137830D01*
X128825967Y-80137834D01*
X128930195Y-80286686D01*
X128959689Y-80328808D01*
X128961501Y-80331395D01*
X128961506Y-80331402D01*
X129128597Y-80498493D01*
X129128603Y-80498498D01*
X129314158Y-80628425D01*
X129357783Y-80683002D01*
X129364977Y-80752500D01*
X129333454Y-80814855D01*
X129314158Y-80831575D01*
X129128597Y-80961505D01*
X128961505Y-81128597D01*
X128825965Y-81322169D01*
X128825964Y-81322171D01*
X128726098Y-81536335D01*
X128726094Y-81536344D01*
X128664938Y-81764586D01*
X128664936Y-81764596D01*
X128644341Y-81999999D01*
X128644341Y-82000000D01*
X128664936Y-82235403D01*
X128664938Y-82235413D01*
X128726094Y-82463655D01*
X128726096Y-82463659D01*
X128726097Y-82463663D01*
X128778806Y-82576697D01*
X128825965Y-82677830D01*
X128825967Y-82677834D01*
X128928559Y-82824349D01*
X128961501Y-82871396D01*
X128961506Y-82871402D01*
X129128597Y-83038493D01*
X129128603Y-83038498D01*
X129314158Y-83168425D01*
X129357783Y-83223002D01*
X129364977Y-83292500D01*
X129333454Y-83354855D01*
X129314158Y-83371575D01*
X129128597Y-83501505D01*
X128961505Y-83668597D01*
X128825965Y-83862169D01*
X128825964Y-83862171D01*
X128726098Y-84076335D01*
X128726094Y-84076344D01*
X128664938Y-84304586D01*
X128664936Y-84304596D01*
X128644341Y-84539999D01*
X128644341Y-84540000D01*
X128664936Y-84775403D01*
X128664938Y-84775413D01*
X128726094Y-85003655D01*
X128726096Y-85003659D01*
X128726097Y-85003663D01*
X128730000Y-85012032D01*
X128825965Y-85217830D01*
X128825967Y-85217834D01*
X128934281Y-85372521D01*
X128961501Y-85411396D01*
X128961506Y-85411402D01*
X129128597Y-85578493D01*
X129128603Y-85578498D01*
X129314158Y-85708425D01*
X129357783Y-85763002D01*
X129364977Y-85832500D01*
X129333454Y-85894855D01*
X129314158Y-85911575D01*
X129128597Y-86041505D01*
X128961505Y-86208597D01*
X128825965Y-86402169D01*
X128825964Y-86402171D01*
X128726098Y-86616335D01*
X128726094Y-86616344D01*
X128664938Y-86844586D01*
X128664936Y-86844596D01*
X128644341Y-87079999D01*
X128644341Y-87080000D01*
X128664936Y-87315403D01*
X128664938Y-87315413D01*
X128726094Y-87543655D01*
X128726096Y-87543659D01*
X128726097Y-87543663D01*
X128730000Y-87552032D01*
X128825965Y-87757830D01*
X128825967Y-87757834D01*
X128925523Y-87900014D01*
X128961501Y-87951396D01*
X128961506Y-87951402D01*
X129128597Y-88118493D01*
X129128603Y-88118498D01*
X129314594Y-88248730D01*
X129358219Y-88303307D01*
X129365413Y-88372805D01*
X129333890Y-88435160D01*
X129314595Y-88451880D01*
X129128922Y-88581890D01*
X129128920Y-88581891D01*
X128961891Y-88748920D01*
X128961886Y-88748926D01*
X128826400Y-88942420D01*
X128826399Y-88942422D01*
X128726570Y-89156507D01*
X128726567Y-89156513D01*
X128669364Y-89369999D01*
X128669364Y-89370000D01*
X129566314Y-89370000D01*
X129540507Y-89410156D01*
X129500000Y-89548111D01*
X129500000Y-89691889D01*
X129540507Y-89829844D01*
X129566314Y-89870000D01*
X128669364Y-89870000D01*
X128726567Y-90083486D01*
X128726570Y-90083492D01*
X128826399Y-90297578D01*
X128961894Y-90491082D01*
X129128917Y-90658105D01*
X129314595Y-90788119D01*
X129358219Y-90842696D01*
X129365412Y-90912195D01*
X129333890Y-90974549D01*
X129314595Y-90991269D01*
X129128594Y-91121508D01*
X128961505Y-91288597D01*
X128825965Y-91482169D01*
X128825964Y-91482171D01*
X128726098Y-91696335D01*
X128726094Y-91696344D01*
X128664938Y-91924586D01*
X128664936Y-91924596D01*
X128644341Y-92159999D01*
X128644341Y-92160000D01*
X128000500Y-92160000D01*
X128000500Y-89286369D01*
X128000501Y-78002679D01*
X128000735Y-77997331D01*
X128004482Y-77954507D01*
X128016917Y-77828236D01*
X128020539Y-77808328D01*
X128038417Y-77741606D01*
X128066685Y-77648421D01*
X128072947Y-77632055D01*
X128104415Y-77564573D01*
X128105906Y-77561592D01*
X128115682Y-77543302D01*
X128150770Y-77477657D01*
X128154635Y-77471364D01*
X128201021Y-77405118D01*
X128203833Y-77401413D01*
X128263118Y-77329174D01*
X128267156Y-77324718D01*
X128324717Y-77267157D01*
X128329175Y-77263117D01*
X128401423Y-77203825D01*
X128405132Y-77201011D01*
X128471356Y-77154641D01*
X128477664Y-77150766D01*
X128561611Y-77105895D01*
X128564533Y-77104434D01*
X128632062Y-77072945D01*
X128648440Y-77066679D01*
X128699104Y-77051310D01*
X128741600Y-77038420D01*
X128796765Y-77023637D01*
X128808315Y-77020542D01*
X128828244Y-77016915D01*
X128954304Y-77004499D01*
X128995470Y-77000898D01*
X128997328Y-77000736D01*
X129002732Y-77000500D01*
X146184951Y-77000500D01*
X146184954Y-77000500D01*
X146421799Y-76978553D01*
X146553276Y-76966370D01*
X146553277Y-76966370D01*
X146553279Y-76966369D01*
X146553285Y-76966369D01*
X146916895Y-76898398D01*
X147272682Y-76797168D01*
X147617612Y-76663542D01*
X147948740Y-76498659D01*
X148263243Y-76303928D01*
X148558436Y-76081008D01*
X148831802Y-75831802D01*
X149081008Y-75558436D01*
X149303928Y-75263243D01*
X149498659Y-74948740D01*
X149663542Y-74617612D01*
X149797168Y-74272682D01*
X149898398Y-73916895D01*
X149966369Y-73553285D01*
X150000500Y-73184954D01*
X150000500Y-73000000D01*
X150000500Y-72999500D01*
X150000500Y-65015005D01*
X158615057Y-65015005D01*
X158634807Y-65328942D01*
X158634808Y-65328949D01*
X158693755Y-65637958D01*
X158790963Y-65937132D01*
X158790965Y-65937137D01*
X158924900Y-66221761D01*
X158924903Y-66221767D01*
X159093457Y-66487367D01*
X159093460Y-66487371D01*
X159184286Y-66597160D01*
X159822266Y-65959180D01*
X159985130Y-66149870D01*
X160175818Y-66312732D01*
X159534971Y-66953579D01*
X159534972Y-66953581D01*
X159777772Y-67129985D01*
X159777790Y-67129996D01*
X160053447Y-67281540D01*
X160053455Y-67281544D01*
X160345926Y-67397340D01*
X160650620Y-67475573D01*
X160650629Y-67475575D01*
X160962701Y-67514999D01*
X160962715Y-67515000D01*
X161277285Y-67515000D01*
X161277298Y-67514999D01*
X161589370Y-67475575D01*
X161589379Y-67475573D01*
X161894073Y-67397340D01*
X162186544Y-67281544D01*
X162186552Y-67281540D01*
X162462209Y-67129996D01*
X162462219Y-67129990D01*
X162705026Y-66953579D01*
X162705027Y-66953579D01*
X162064180Y-66312733D01*
X162254870Y-66149870D01*
X162417733Y-65959181D01*
X163055712Y-66597160D01*
X163146544Y-66487364D01*
X163315096Y-66221767D01*
X163315099Y-66221761D01*
X163449034Y-65937137D01*
X163449036Y-65937132D01*
X163546244Y-65637958D01*
X163605191Y-65328949D01*
X163605192Y-65328942D01*
X163624943Y-65015005D01*
X163624943Y-65014994D01*
X163605192Y-64701057D01*
X163605191Y-64701050D01*
X163546244Y-64392041D01*
X163449036Y-64092867D01*
X163449034Y-64092862D01*
X163315099Y-63808238D01*
X163315096Y-63808232D01*
X163146542Y-63542632D01*
X163146539Y-63542628D01*
X163055712Y-63432838D01*
X162417732Y-64070818D01*
X162254870Y-63880130D01*
X162064180Y-63717266D01*
X162705027Y-63076419D01*
X162705026Y-63076417D01*
X162462227Y-62900014D01*
X162462209Y-62900003D01*
X162186552Y-62748459D01*
X162186544Y-62748455D01*
X161894073Y-62632659D01*
X161589379Y-62554426D01*
X161589370Y-62554424D01*
X161277298Y-62515000D01*
X160962701Y-62515000D01*
X160650629Y-62554424D01*
X160650620Y-62554426D01*
X160345926Y-62632659D01*
X160053455Y-62748455D01*
X160053447Y-62748459D01*
X159777787Y-62900004D01*
X159777782Y-62900007D01*
X159534972Y-63076418D01*
X159534971Y-63076419D01*
X160175819Y-63717266D01*
X159985130Y-63880130D01*
X159822266Y-64070818D01*
X159184286Y-63432838D01*
X159184285Y-63432838D01*
X159093459Y-63542629D01*
X159093457Y-63542632D01*
X158924903Y-63808232D01*
X158924900Y-63808238D01*
X158790965Y-64092862D01*
X158790963Y-64092867D01*
X158693755Y-64392041D01*
X158634808Y-64701050D01*
X158634807Y-64701057D01*
X158615057Y-65014994D01*
X158615057Y-65015005D01*
X150000500Y-65015005D01*
X150000500Y-65001439D01*
X150000566Y-64998576D01*
X150008487Y-64827238D01*
X150014686Y-64701050D01*
X150018302Y-64627446D01*
X150018818Y-64621955D01*
X150044670Y-64436633D01*
X150051285Y-64392041D01*
X150072331Y-64250162D01*
X150073292Y-64245137D01*
X150116689Y-64060626D01*
X150161993Y-63879764D01*
X150163323Y-63875216D01*
X150223915Y-63694431D01*
X150286457Y-63519641D01*
X150288100Y-63515527D01*
X150299988Y-63488604D01*
X150365368Y-63340530D01*
X150444615Y-63172977D01*
X150446444Y-63169423D01*
X150539781Y-63001852D01*
X150634990Y-62843005D01*
X150636979Y-62839904D01*
X150745570Y-62681381D01*
X150855924Y-62532586D01*
X150857928Y-62530033D01*
X150980875Y-62381973D01*
X151105351Y-62244636D01*
X151107361Y-62242526D01*
X151242526Y-62107361D01*
X151244636Y-62105351D01*
X151381973Y-61980875D01*
X151530033Y-61857928D01*
X151532586Y-61855924D01*
X151681381Y-61745570D01*
X151839904Y-61636979D01*
X151843005Y-61634990D01*
X152001858Y-61539778D01*
X152169423Y-61446444D01*
X152172977Y-61444615D01*
X152340530Y-61365368D01*
X152515538Y-61288095D01*
X152519641Y-61286457D01*
X152694431Y-61223915D01*
X152875216Y-61163323D01*
X152879764Y-61161993D01*
X153060626Y-61116689D01*
X153245137Y-61073292D01*
X153250162Y-61072331D01*
X153436651Y-61044667D01*
X153621955Y-61018818D01*
X153627446Y-61018302D01*
X153826958Y-61008500D01*
X153968945Y-61001935D01*
X153998577Y-61000566D01*
X154001440Y-61000500D01*
X163998560Y-61000500D01*
X164001423Y-61000566D01*
G37*
%TD.AperFunction*%
%TD*%
M02*
