M48
; DRILL file {KiCad 7.0.8} date Mo 23 Okt 2023 19:29:07
; FORMAT={-:-/ absolute / inch / decimal}
; #@! TF.CreationDate,2023-10-23T19:29:07+02:00
; #@! TF.GenerationSoftware,Kicad,Pcbnew,7.0.8
; #@! TF.FileFunction,Plated,1,2,PTH
FMAT,2
INCH
; #@! TA.AperFunction,Plated,PTH,ViaDrill
T1C0.0157
; #@! TA.AperFunction,Plated,PTH,ComponentDrill
T2C0.0394
; #@! TA.AperFunction,Plated,PTH,ComponentDrill
T3C0.0433
; #@! TA.AperFunction,Plated,PTH,ComponentDrill
T4C0.1260
%
G90
G05
T1
X5.6063Y-3.6496
X5.6102Y-3.3996
X5.6693Y-3.6496
X5.7264Y-3.2106
X5.8583Y-3.2913
X5.8701Y-3.2087
X5.8701Y-3.3623
T2
X5.1181Y-3.1283
X5.1181Y-3.2283
X5.1181Y-3.3283
X5.1181Y-3.4283
X5.1181Y-3.5283
X5.1181Y-3.6283
X5.2181Y-3.1283
X5.2181Y-3.2283
X5.2181Y-3.3283
X5.2181Y-3.4283
X5.2181Y-3.5283
X5.2181Y-3.6283
T3
X6.2433Y-2.8815
X6.2433Y-2.9717
X6.2433Y-3.0618
X6.2433Y-3.152
X6.2433Y-3.2421
X6.3433Y-2.8364
X6.3433Y-2.9266
X6.3433Y-3.0167
X6.3433Y-3.1069
X6.3433Y-3.197
X6.4433Y-2.8815
X6.4433Y-2.9717
X6.4433Y-3.0618
X6.4433Y-3.152
X6.4433Y-3.2421
T4
X6.3433Y-2.5596
X6.3433Y-3.5439
T0
M30
