%TF.GenerationSoftware,KiCad,Pcbnew,7.0.10*%
%TF.CreationDate,2024-02-03T18:14:04+01:00*%
%TF.ProjectId,tiny-vga,74696e79-2d76-4676-912e-6b696361645f,v1.0*%
%TF.SameCoordinates,Original*%
%TF.FileFunction,Legend,Bot*%
%TF.FilePolarity,Positive*%
%FSLAX46Y46*%
G04 Gerber Fmt 4.6, Leading zero omitted, Abs format (unit mm)*
G04 Created by KiCad (PCBNEW 7.0.10) date 2024-02-03 18:14:04*
%MOMM*%
%LPD*%
G01*
G04 APERTURE LIST*
%ADD10C,0.010000*%
%ADD11C,4.000000*%
%ADD12R,1.600000X1.600000*%
%ADD13C,1.600000*%
%ADD14R,1.700000X1.700000*%
%ADD15O,1.700000X1.700000*%
G04 APERTURE END LIST*
%TO.C,REF\u002A\u002A*%
D10*
X139707002Y-88814242D02*
X139741247Y-88835142D01*
X139776729Y-88863873D01*
X139776729Y-89725871D01*
X139741247Y-89754602D01*
X139699495Y-89777867D01*
X139651832Y-89778980D01*
X139609976Y-89751696D01*
X139604815Y-89745486D01*
X139597538Y-89732881D01*
X139591937Y-89714666D01*
X139587794Y-89687347D01*
X139584892Y-89647433D01*
X139583014Y-89591430D01*
X139581941Y-89515847D01*
X139581457Y-89417190D01*
X139581344Y-89291966D01*
X139581344Y-88863873D01*
X139616826Y-88835142D01*
X139648396Y-88815477D01*
X139679037Y-88806410D01*
X139707002Y-88814242D01*
G36*
X139707002Y-88814242D02*
G01*
X139741247Y-88835142D01*
X139776729Y-88863873D01*
X139776729Y-89725871D01*
X139741247Y-89754602D01*
X139699495Y-89777867D01*
X139651832Y-89778980D01*
X139609976Y-89751696D01*
X139604815Y-89745486D01*
X139597538Y-89732881D01*
X139591937Y-89714666D01*
X139587794Y-89687347D01*
X139584892Y-89647433D01*
X139583014Y-89591430D01*
X139581941Y-89515847D01*
X139581457Y-89417190D01*
X139581344Y-89291966D01*
X139581344Y-88863873D01*
X139616826Y-88835142D01*
X139648396Y-88815477D01*
X139679037Y-88806410D01*
X139707002Y-88814242D01*
G37*
X149200579Y-88812264D02*
X149246051Y-88843301D01*
X149282942Y-88880192D01*
X149282942Y-89296978D01*
X149282887Y-89408852D01*
X149282543Y-89507668D01*
X149281650Y-89583226D01*
X149279949Y-89639104D01*
X149277181Y-89678882D01*
X149273088Y-89706136D01*
X149267409Y-89724447D01*
X149259888Y-89737391D01*
X149250263Y-89748548D01*
X149208374Y-89777125D01*
X149161556Y-89779476D01*
X149117617Y-89753274D01*
X149110551Y-89745461D01*
X149103296Y-89733367D01*
X149097750Y-89715605D01*
X149093683Y-89688690D01*
X149090869Y-89649138D01*
X149089077Y-89593465D01*
X149088081Y-89518185D01*
X149087650Y-89419816D01*
X149087557Y-89294872D01*
X149087610Y-89194140D01*
X149087949Y-89090414D01*
X149088807Y-89010519D01*
X149090410Y-88950971D01*
X149092988Y-88908284D01*
X149096769Y-88878975D01*
X149101982Y-88859559D01*
X149108855Y-88846552D01*
X149117617Y-88836470D01*
X149156470Y-88811145D01*
X149200579Y-88812264D01*
G36*
X149200579Y-88812264D02*
G01*
X149246051Y-88843301D01*
X149282942Y-88880192D01*
X149282942Y-89296978D01*
X149282887Y-89408852D01*
X149282543Y-89507668D01*
X149281650Y-89583226D01*
X149279949Y-89639104D01*
X149277181Y-89678882D01*
X149273088Y-89706136D01*
X149267409Y-89724447D01*
X149259888Y-89737391D01*
X149250263Y-89748548D01*
X149208374Y-89777125D01*
X149161556Y-89779476D01*
X149117617Y-89753274D01*
X149110551Y-89745461D01*
X149103296Y-89733367D01*
X149097750Y-89715605D01*
X149093683Y-89688690D01*
X149090869Y-89649138D01*
X149089077Y-89593465D01*
X149088081Y-89518185D01*
X149087650Y-89419816D01*
X149087557Y-89294872D01*
X149087610Y-89194140D01*
X149087949Y-89090414D01*
X149088807Y-89010519D01*
X149090410Y-88950971D01*
X149092988Y-88908284D01*
X149096769Y-88878975D01*
X149101982Y-88859559D01*
X149108855Y-88846552D01*
X149117617Y-88836470D01*
X149156470Y-88811145D01*
X149200579Y-88812264D01*
G37*
X149286337Y-80270839D02*
X149425779Y-80305005D01*
X149557955Y-80366325D01*
X149678699Y-80454810D01*
X149783846Y-80570470D01*
X149869230Y-80713313D01*
X149892121Y-80763633D01*
X149910666Y-80814636D01*
X149921072Y-80865624D01*
X149925633Y-80928691D01*
X149926643Y-81015929D01*
X149926032Y-81088539D01*
X149922350Y-81155270D01*
X149913322Y-81207334D01*
X149896694Y-81256686D01*
X149870212Y-81315286D01*
X149862552Y-81330902D01*
X149772006Y-81473893D01*
X149658125Y-81591543D01*
X149524141Y-81681089D01*
X149373286Y-81739772D01*
X149295881Y-81756147D01*
X149138849Y-81763810D01*
X148986753Y-81739016D01*
X148844054Y-81684306D01*
X148715212Y-81602223D01*
X148604686Y-81495309D01*
X148516936Y-81366107D01*
X148456423Y-81217158D01*
X148434283Y-81095265D01*
X148432288Y-80960751D01*
X148450295Y-80829908D01*
X148487446Y-80716572D01*
X148530372Y-80635543D01*
X148625933Y-80506987D01*
X148739221Y-80405527D01*
X148866071Y-80331172D01*
X149002318Y-80283933D01*
X149143795Y-80263818D01*
X149286337Y-80270839D01*
G36*
X149286337Y-80270839D02*
G01*
X149425779Y-80305005D01*
X149557955Y-80366325D01*
X149678699Y-80454810D01*
X149783846Y-80570470D01*
X149869230Y-80713313D01*
X149892121Y-80763633D01*
X149910666Y-80814636D01*
X149921072Y-80865624D01*
X149925633Y-80928691D01*
X149926643Y-81015929D01*
X149926032Y-81088539D01*
X149922350Y-81155270D01*
X149913322Y-81207334D01*
X149896694Y-81256686D01*
X149870212Y-81315286D01*
X149862552Y-81330902D01*
X149772006Y-81473893D01*
X149658125Y-81591543D01*
X149524141Y-81681089D01*
X149373286Y-81739772D01*
X149295881Y-81756147D01*
X149138849Y-81763810D01*
X148986753Y-81739016D01*
X148844054Y-81684306D01*
X148715212Y-81602223D01*
X148604686Y-81495309D01*
X148516936Y-81366107D01*
X148456423Y-81217158D01*
X148434283Y-81095265D01*
X148432288Y-80960751D01*
X148450295Y-80829908D01*
X148487446Y-80716572D01*
X148530372Y-80635543D01*
X148625933Y-80506987D01*
X148739221Y-80405527D01*
X148866071Y-80331172D01*
X149002318Y-80283933D01*
X149143795Y-80263818D01*
X149286337Y-80270839D01*
G37*
X138775531Y-88806412D02*
X138900843Y-88806532D01*
X139000048Y-88806984D01*
X139076478Y-88807972D01*
X139133459Y-88809697D01*
X139174323Y-88812361D01*
X139202397Y-88816169D01*
X139221012Y-88821321D01*
X139233496Y-88828020D01*
X139243179Y-88836470D01*
X139268216Y-88880029D01*
X139270142Y-88930057D01*
X139248364Y-88974310D01*
X139246553Y-88976245D01*
X139231638Y-88987376D01*
X139208868Y-88994771D01*
X139172696Y-88999157D01*
X139117573Y-89001256D01*
X139037950Y-89001795D01*
X138852409Y-89001795D01*
X138852409Y-89352963D01*
X138852309Y-89453918D01*
X138851766Y-89542674D01*
X138850458Y-89608955D01*
X138848067Y-89656773D01*
X138844271Y-89690146D01*
X138838752Y-89713086D01*
X138831188Y-89729610D01*
X138821259Y-89743733D01*
X138818210Y-89747469D01*
X138776700Y-89777614D01*
X138730929Y-89779696D01*
X138687084Y-89753274D01*
X138677793Y-89742523D01*
X138670508Y-89728412D01*
X138665156Y-89707319D01*
X138661440Y-89675398D01*
X138659064Y-89628802D01*
X138657734Y-89563685D01*
X138657153Y-89476201D01*
X138657025Y-89362505D01*
X138657025Y-89001795D01*
X138462731Y-89001795D01*
X138447953Y-89001794D01*
X138372708Y-89001494D01*
X138320992Y-88999977D01*
X138287185Y-88996250D01*
X138265668Y-88989318D01*
X138250821Y-88978186D01*
X138237024Y-88961860D01*
X138215926Y-88921003D01*
X138220056Y-88876029D01*
X138254197Y-88832712D01*
X138260775Y-88827763D01*
X138274369Y-88821325D01*
X138294906Y-88816314D01*
X138325689Y-88812557D01*
X138370020Y-88809876D01*
X138431201Y-88808096D01*
X138512535Y-88807043D01*
X138617323Y-88806539D01*
X138748867Y-88806410D01*
X138775531Y-88806412D01*
G36*
X138775531Y-88806412D02*
G01*
X138900843Y-88806532D01*
X139000048Y-88806984D01*
X139076478Y-88807972D01*
X139133459Y-88809697D01*
X139174323Y-88812361D01*
X139202397Y-88816169D01*
X139221012Y-88821321D01*
X139233496Y-88828020D01*
X139243179Y-88836470D01*
X139268216Y-88880029D01*
X139270142Y-88930057D01*
X139248364Y-88974310D01*
X139246553Y-88976245D01*
X139231638Y-88987376D01*
X139208868Y-88994771D01*
X139172696Y-88999157D01*
X139117573Y-89001256D01*
X139037950Y-89001795D01*
X138852409Y-89001795D01*
X138852409Y-89352963D01*
X138852309Y-89453918D01*
X138851766Y-89542674D01*
X138850458Y-89608955D01*
X138848067Y-89656773D01*
X138844271Y-89690146D01*
X138838752Y-89713086D01*
X138831188Y-89729610D01*
X138821259Y-89743733D01*
X138818210Y-89747469D01*
X138776700Y-89777614D01*
X138730929Y-89779696D01*
X138687084Y-89753274D01*
X138677793Y-89742523D01*
X138670508Y-89728412D01*
X138665156Y-89707319D01*
X138661440Y-89675398D01*
X138659064Y-89628802D01*
X138657734Y-89563685D01*
X138657153Y-89476201D01*
X138657025Y-89362505D01*
X138657025Y-89001795D01*
X138462731Y-89001795D01*
X138447953Y-89001794D01*
X138372708Y-89001494D01*
X138320992Y-88999977D01*
X138287185Y-88996250D01*
X138265668Y-88989318D01*
X138250821Y-88978186D01*
X138237024Y-88961860D01*
X138215926Y-88921003D01*
X138220056Y-88876029D01*
X138254197Y-88832712D01*
X138260775Y-88827763D01*
X138274369Y-88821325D01*
X138294906Y-88816314D01*
X138325689Y-88812557D01*
X138370020Y-88809876D01*
X138431201Y-88808096D01*
X138512535Y-88807043D01*
X138617323Y-88806539D01*
X138748867Y-88806410D01*
X138775531Y-88806412D01*
G37*
X137875486Y-88836470D02*
X137882985Y-88844711D01*
X137889762Y-88855636D01*
X137895202Y-88871315D01*
X137899434Y-88894559D01*
X137902584Y-88928181D01*
X137904782Y-88974992D01*
X137906155Y-89037803D01*
X137906832Y-89119427D01*
X137906940Y-89222674D01*
X137906608Y-89350357D01*
X137905964Y-89505286D01*
X137905872Y-89524158D01*
X137905092Y-89606386D01*
X137903331Y-89664544D01*
X137899942Y-89703660D01*
X137894277Y-89728761D01*
X137885688Y-89744876D01*
X137873527Y-89757032D01*
X137828983Y-89780220D01*
X137782454Y-89776357D01*
X137741311Y-89743733D01*
X137729316Y-89726155D01*
X137719396Y-89701477D01*
X137713581Y-89666824D01*
X137710845Y-89615505D01*
X137710161Y-89540833D01*
X137710161Y-89377535D01*
X137048859Y-89377535D01*
X137048859Y-89557038D01*
X137048762Y-89604688D01*
X137047747Y-89666370D01*
X137044849Y-89707022D01*
X137039128Y-89732358D01*
X137029644Y-89748092D01*
X137015456Y-89759937D01*
X136972518Y-89780000D01*
X136925539Y-89776449D01*
X136884625Y-89743733D01*
X136878426Y-89735405D01*
X136870524Y-89721394D01*
X136864491Y-89702848D01*
X136860077Y-89676123D01*
X136857029Y-89637570D01*
X136855097Y-89583544D01*
X136854028Y-89510398D01*
X136853571Y-89414486D01*
X136853475Y-89292162D01*
X136853475Y-88880192D01*
X136890365Y-88843301D01*
X136932141Y-88813688D01*
X136976381Y-88810107D01*
X137018800Y-88836470D01*
X137029831Y-88849478D01*
X137039699Y-88870636D01*
X137045474Y-88902545D01*
X137048184Y-88951636D01*
X137048859Y-89024339D01*
X137048859Y-89182150D01*
X137710161Y-89182150D01*
X137710161Y-89028360D01*
X137710744Y-88959533D01*
X137713359Y-88913568D01*
X137719371Y-88883511D01*
X137730147Y-88862407D01*
X137747052Y-88843301D01*
X137788828Y-88813688D01*
X137833067Y-88810107D01*
X137875486Y-88836470D01*
G36*
X137875486Y-88836470D02*
G01*
X137882985Y-88844711D01*
X137889762Y-88855636D01*
X137895202Y-88871315D01*
X137899434Y-88894559D01*
X137902584Y-88928181D01*
X137904782Y-88974992D01*
X137906155Y-89037803D01*
X137906832Y-89119427D01*
X137906940Y-89222674D01*
X137906608Y-89350357D01*
X137905964Y-89505286D01*
X137905872Y-89524158D01*
X137905092Y-89606386D01*
X137903331Y-89664544D01*
X137899942Y-89703660D01*
X137894277Y-89728761D01*
X137885688Y-89744876D01*
X137873527Y-89757032D01*
X137828983Y-89780220D01*
X137782454Y-89776357D01*
X137741311Y-89743733D01*
X137729316Y-89726155D01*
X137719396Y-89701477D01*
X137713581Y-89666824D01*
X137710845Y-89615505D01*
X137710161Y-89540833D01*
X137710161Y-89377535D01*
X137048859Y-89377535D01*
X137048859Y-89557038D01*
X137048762Y-89604688D01*
X137047747Y-89666370D01*
X137044849Y-89707022D01*
X137039128Y-89732358D01*
X137029644Y-89748092D01*
X137015456Y-89759937D01*
X136972518Y-89780000D01*
X136925539Y-89776449D01*
X136884625Y-89743733D01*
X136878426Y-89735405D01*
X136870524Y-89721394D01*
X136864491Y-89702848D01*
X136860077Y-89676123D01*
X136857029Y-89637570D01*
X136855097Y-89583544D01*
X136854028Y-89510398D01*
X136853571Y-89414486D01*
X136853475Y-89292162D01*
X136853475Y-88880192D01*
X136890365Y-88843301D01*
X136932141Y-88813688D01*
X136976381Y-88810107D01*
X137018800Y-88836470D01*
X137029831Y-88849478D01*
X137039699Y-88870636D01*
X137045474Y-88902545D01*
X137048184Y-88951636D01*
X137048859Y-89024339D01*
X137048859Y-89182150D01*
X137710161Y-89182150D01*
X137710161Y-89028360D01*
X137710744Y-88959533D01*
X137713359Y-88913568D01*
X137719371Y-88883511D01*
X137730147Y-88862407D01*
X137747052Y-88843301D01*
X137788828Y-88813688D01*
X137833067Y-88810107D01*
X137875486Y-88836470D01*
G37*
X144140071Y-89620311D02*
X144137449Y-89663950D01*
X144133550Y-89694466D01*
X144128122Y-89715504D01*
X144120914Y-89730711D01*
X144111674Y-89743733D01*
X144080524Y-89783334D01*
X143859928Y-89782543D01*
X143813602Y-89782146D01*
X143682485Y-89777579D01*
X143574696Y-89767351D01*
X143485369Y-89750632D01*
X143409637Y-89726595D01*
X143342634Y-89694409D01*
X143338162Y-89691857D01*
X143261194Y-89642972D01*
X143204805Y-89593757D01*
X143161115Y-89535862D01*
X143122239Y-89460937D01*
X143116539Y-89448135D01*
X143086480Y-89364012D01*
X143078845Y-89303362D01*
X143277544Y-89303362D01*
X143285017Y-89336284D01*
X143292640Y-89357424D01*
X143336482Y-89437183D01*
X143399506Y-89498097D01*
X143484401Y-89542212D01*
X143593851Y-89571575D01*
X143597570Y-89572243D01*
X143659193Y-89580181D01*
X143734277Y-89585810D01*
X143807418Y-89587949D01*
X143932409Y-89587949D01*
X143932409Y-89001795D01*
X143815930Y-89002392D01*
X143726836Y-89005688D01*
X143603821Y-89020668D01*
X143498224Y-89046682D01*
X143415713Y-89082594D01*
X143374521Y-89110191D01*
X143337083Y-89149820D01*
X143306010Y-89206307D01*
X143296521Y-89227564D01*
X143280779Y-89270836D01*
X143277544Y-89303362D01*
X143078845Y-89303362D01*
X143077199Y-89290284D01*
X143088651Y-89217024D01*
X143120792Y-89134304D01*
X143121851Y-89132050D01*
X143175707Y-89039624D01*
X143243186Y-88964271D01*
X143326697Y-88904935D01*
X143428647Y-88860563D01*
X143551445Y-88830101D01*
X143697499Y-88812493D01*
X143869217Y-88806687D01*
X143873972Y-88806681D01*
X143953881Y-88806867D01*
X144009706Y-88808247D01*
X144047135Y-88811701D01*
X144071857Y-88818108D01*
X144089560Y-88828348D01*
X144105933Y-88843301D01*
X144142824Y-88880192D01*
X144142824Y-89292162D01*
X144142790Y-89374181D01*
X144142490Y-89479072D01*
X144141668Y-89559900D01*
X144140926Y-89587949D01*
X144140071Y-89620311D01*
G36*
X144140071Y-89620311D02*
G01*
X144137449Y-89663950D01*
X144133550Y-89694466D01*
X144128122Y-89715504D01*
X144120914Y-89730711D01*
X144111674Y-89743733D01*
X144080524Y-89783334D01*
X143859928Y-89782543D01*
X143813602Y-89782146D01*
X143682485Y-89777579D01*
X143574696Y-89767351D01*
X143485369Y-89750632D01*
X143409637Y-89726595D01*
X143342634Y-89694409D01*
X143338162Y-89691857D01*
X143261194Y-89642972D01*
X143204805Y-89593757D01*
X143161115Y-89535862D01*
X143122239Y-89460937D01*
X143116539Y-89448135D01*
X143086480Y-89364012D01*
X143078845Y-89303362D01*
X143277544Y-89303362D01*
X143285017Y-89336284D01*
X143292640Y-89357424D01*
X143336482Y-89437183D01*
X143399506Y-89498097D01*
X143484401Y-89542212D01*
X143593851Y-89571575D01*
X143597570Y-89572243D01*
X143659193Y-89580181D01*
X143734277Y-89585810D01*
X143807418Y-89587949D01*
X143932409Y-89587949D01*
X143932409Y-89001795D01*
X143815930Y-89002392D01*
X143726836Y-89005688D01*
X143603821Y-89020668D01*
X143498224Y-89046682D01*
X143415713Y-89082594D01*
X143374521Y-89110191D01*
X143337083Y-89149820D01*
X143306010Y-89206307D01*
X143296521Y-89227564D01*
X143280779Y-89270836D01*
X143277544Y-89303362D01*
X143078845Y-89303362D01*
X143077199Y-89290284D01*
X143088651Y-89217024D01*
X143120792Y-89134304D01*
X143121851Y-89132050D01*
X143175707Y-89039624D01*
X143243186Y-88964271D01*
X143326697Y-88904935D01*
X143428647Y-88860563D01*
X143551445Y-88830101D01*
X143697499Y-88812493D01*
X143869217Y-88806687D01*
X143873972Y-88806681D01*
X143953881Y-88806867D01*
X144009706Y-88808247D01*
X144047135Y-88811701D01*
X144071857Y-88818108D01*
X144089560Y-88828348D01*
X144105933Y-88843301D01*
X144142824Y-88880192D01*
X144142824Y-89292162D01*
X144142790Y-89374181D01*
X144142490Y-89479072D01*
X144141668Y-89559900D01*
X144140926Y-89587949D01*
X144140071Y-89620311D01*
G37*
X153581662Y-89053192D02*
X153581734Y-89160519D01*
X153581403Y-89294872D01*
X153581351Y-89395605D01*
X153581011Y-89499330D01*
X153580154Y-89579225D01*
X153578551Y-89638773D01*
X153575973Y-89681460D01*
X153572192Y-89710769D01*
X153566979Y-89730185D01*
X153560106Y-89743192D01*
X153551344Y-89753274D01*
X153542068Y-89761574D01*
X153524763Y-89771293D01*
X153499270Y-89777622D01*
X153460123Y-89781266D01*
X153401855Y-89782935D01*
X153319000Y-89783334D01*
X153253834Y-89782834D01*
X153111566Y-89776938D01*
X152992771Y-89763508D01*
X152893188Y-89741423D01*
X152808552Y-89709563D01*
X152734600Y-89666808D01*
X152667067Y-89612038D01*
X152659095Y-89604246D01*
X152610011Y-89539663D01*
X152568607Y-89458705D01*
X152540005Y-89373174D01*
X152532974Y-89321593D01*
X152728974Y-89321593D01*
X152753314Y-89389406D01*
X152792816Y-89450538D01*
X152854986Y-89507000D01*
X152936717Y-89546678D01*
X153042090Y-89572155D01*
X153044074Y-89572472D01*
X153109272Y-89580183D01*
X153187415Y-89585696D01*
X153262025Y-89587835D01*
X153386019Y-89587949D01*
X153386019Y-89001795D01*
X153284569Y-89001776D01*
X153280538Y-89001788D01*
X153212479Y-89004404D01*
X153132461Y-89010694D01*
X153056961Y-89019386D01*
X152990449Y-89031763D01*
X152890927Y-89066735D01*
X152814362Y-89119056D01*
X152759109Y-89189665D01*
X152730861Y-89257919D01*
X152728974Y-89321593D01*
X152532974Y-89321593D01*
X152529332Y-89294872D01*
X152531035Y-89266625D01*
X152547427Y-89190184D01*
X152577421Y-89110421D01*
X152616337Y-89038462D01*
X152659495Y-88985433D01*
X152685512Y-88962769D01*
X152758353Y-88910597D01*
X152838638Y-88870483D01*
X152930763Y-88841246D01*
X153039125Y-88821699D01*
X153168119Y-88810660D01*
X153322143Y-88806944D01*
X153374708Y-88806409D01*
X153435566Y-88805859D01*
X153483229Y-88808261D01*
X153519297Y-88816625D01*
X153545368Y-88833960D01*
X153563041Y-88863275D01*
X153573915Y-88907579D01*
X153579590Y-88969881D01*
X153580384Y-89001795D01*
X153581662Y-89053192D01*
G36*
X153581662Y-89053192D02*
G01*
X153581734Y-89160519D01*
X153581403Y-89294872D01*
X153581351Y-89395605D01*
X153581011Y-89499330D01*
X153580154Y-89579225D01*
X153578551Y-89638773D01*
X153575973Y-89681460D01*
X153572192Y-89710769D01*
X153566979Y-89730185D01*
X153560106Y-89743192D01*
X153551344Y-89753274D01*
X153542068Y-89761574D01*
X153524763Y-89771293D01*
X153499270Y-89777622D01*
X153460123Y-89781266D01*
X153401855Y-89782935D01*
X153319000Y-89783334D01*
X153253834Y-89782834D01*
X153111566Y-89776938D01*
X152992771Y-89763508D01*
X152893188Y-89741423D01*
X152808552Y-89709563D01*
X152734600Y-89666808D01*
X152667067Y-89612038D01*
X152659095Y-89604246D01*
X152610011Y-89539663D01*
X152568607Y-89458705D01*
X152540005Y-89373174D01*
X152532974Y-89321593D01*
X152728974Y-89321593D01*
X152753314Y-89389406D01*
X152792816Y-89450538D01*
X152854986Y-89507000D01*
X152936717Y-89546678D01*
X153042090Y-89572155D01*
X153044074Y-89572472D01*
X153109272Y-89580183D01*
X153187415Y-89585696D01*
X153262025Y-89587835D01*
X153386019Y-89587949D01*
X153386019Y-89001795D01*
X153284569Y-89001776D01*
X153280538Y-89001788D01*
X153212479Y-89004404D01*
X153132461Y-89010694D01*
X153056961Y-89019386D01*
X152990449Y-89031763D01*
X152890927Y-89066735D01*
X152814362Y-89119056D01*
X152759109Y-89189665D01*
X152730861Y-89257919D01*
X152728974Y-89321593D01*
X152532974Y-89321593D01*
X152529332Y-89294872D01*
X152531035Y-89266625D01*
X152547427Y-89190184D01*
X152577421Y-89110421D01*
X152616337Y-89038462D01*
X152659495Y-88985433D01*
X152685512Y-88962769D01*
X152758353Y-88910597D01*
X152838638Y-88870483D01*
X152930763Y-88841246D01*
X153039125Y-88821699D01*
X153168119Y-88810660D01*
X153322143Y-88806944D01*
X153374708Y-88806409D01*
X153435566Y-88805859D01*
X153483229Y-88808261D01*
X153519297Y-88816625D01*
X153545368Y-88833960D01*
X153563041Y-88863275D01*
X153573915Y-88907579D01*
X153579590Y-88969881D01*
X153580384Y-89001795D01*
X153581662Y-89053192D01*
G37*
X146998184Y-88804846D02*
X147013372Y-88813017D01*
X147027416Y-88827212D01*
X147042443Y-88846011D01*
X147048371Y-88853948D01*
X147056357Y-88867920D01*
X147062454Y-88886327D01*
X147066916Y-88912827D01*
X147069997Y-88951083D01*
X147071951Y-89004755D01*
X147073033Y-89077503D01*
X147073495Y-89172988D01*
X147073593Y-89294872D01*
X147073562Y-89372797D01*
X147073272Y-89478091D01*
X147072461Y-89559227D01*
X147070875Y-89619866D01*
X147068262Y-89663669D01*
X147064366Y-89694296D01*
X147058933Y-89715409D01*
X147051710Y-89730667D01*
X147042443Y-89743733D01*
X147001931Y-89776209D01*
X146955410Y-89780042D01*
X146906175Y-89754626D01*
X146900605Y-89750000D01*
X146889720Y-89738646D01*
X146881651Y-89723268D01*
X146875816Y-89699526D01*
X146871633Y-89663084D01*
X146868521Y-89609604D01*
X146865897Y-89534747D01*
X146863179Y-89434177D01*
X146855664Y-89142435D01*
X146502469Y-89462814D01*
X146404169Y-89551718D01*
X146317391Y-89629091D01*
X146247902Y-89688946D01*
X146193217Y-89732777D01*
X146150854Y-89762077D01*
X146118332Y-89778340D01*
X146093166Y-89783060D01*
X146072875Y-89777731D01*
X146054976Y-89763846D01*
X146036987Y-89742899D01*
X146028672Y-89731605D01*
X146021174Y-89717523D01*
X146015568Y-89698673D01*
X146011638Y-89671443D01*
X146009168Y-89632221D01*
X146007944Y-89577394D01*
X146007751Y-89503348D01*
X146008373Y-89406471D01*
X146009594Y-89283150D01*
X146014007Y-88863835D01*
X146049489Y-88835123D01*
X146084191Y-88813566D01*
X146127937Y-88809877D01*
X146173910Y-88835110D01*
X146179651Y-88839882D01*
X146190478Y-88851238D01*
X146198505Y-88866671D01*
X146204310Y-88890510D01*
X146208474Y-88927084D01*
X146211576Y-88980722D01*
X146214193Y-89055754D01*
X146216906Y-89156508D01*
X146224421Y-89449207D01*
X146464895Y-89231138D01*
X146580374Y-89126448D01*
X146681253Y-89035392D01*
X146763979Y-88961702D01*
X146830678Y-88903960D01*
X146883476Y-88860749D01*
X146924499Y-88830649D01*
X146955874Y-88812244D01*
X146979727Y-88804116D01*
X146998184Y-88804846D01*
G36*
X146998184Y-88804846D02*
G01*
X147013372Y-88813017D01*
X147027416Y-88827212D01*
X147042443Y-88846011D01*
X147048371Y-88853948D01*
X147056357Y-88867920D01*
X147062454Y-88886327D01*
X147066916Y-88912827D01*
X147069997Y-88951083D01*
X147071951Y-89004755D01*
X147073033Y-89077503D01*
X147073495Y-89172988D01*
X147073593Y-89294872D01*
X147073562Y-89372797D01*
X147073272Y-89478091D01*
X147072461Y-89559227D01*
X147070875Y-89619866D01*
X147068262Y-89663669D01*
X147064366Y-89694296D01*
X147058933Y-89715409D01*
X147051710Y-89730667D01*
X147042443Y-89743733D01*
X147001931Y-89776209D01*
X146955410Y-89780042D01*
X146906175Y-89754626D01*
X146900605Y-89750000D01*
X146889720Y-89738646D01*
X146881651Y-89723268D01*
X146875816Y-89699526D01*
X146871633Y-89663084D01*
X146868521Y-89609604D01*
X146865897Y-89534747D01*
X146863179Y-89434177D01*
X146855664Y-89142435D01*
X146502469Y-89462814D01*
X146404169Y-89551718D01*
X146317391Y-89629091D01*
X146247902Y-89688946D01*
X146193217Y-89732777D01*
X146150854Y-89762077D01*
X146118332Y-89778340D01*
X146093166Y-89783060D01*
X146072875Y-89777731D01*
X146054976Y-89763846D01*
X146036987Y-89742899D01*
X146028672Y-89731605D01*
X146021174Y-89717523D01*
X146015568Y-89698673D01*
X146011638Y-89671443D01*
X146009168Y-89632221D01*
X146007944Y-89577394D01*
X146007751Y-89503348D01*
X146008373Y-89406471D01*
X146009594Y-89283150D01*
X146014007Y-88863835D01*
X146049489Y-88835123D01*
X146084191Y-88813566D01*
X146127937Y-88809877D01*
X146173910Y-88835110D01*
X146179651Y-88839882D01*
X146190478Y-88851238D01*
X146198505Y-88866671D01*
X146204310Y-88890510D01*
X146208474Y-88927084D01*
X146211576Y-88980722D01*
X146214193Y-89055754D01*
X146216906Y-89156508D01*
X146224421Y-89449207D01*
X146464895Y-89231138D01*
X146580374Y-89126448D01*
X146681253Y-89035392D01*
X146763979Y-88961702D01*
X146830678Y-88903960D01*
X146883476Y-88860749D01*
X146924499Y-88830649D01*
X146955874Y-88812244D01*
X146979727Y-88804116D01*
X146998184Y-88804846D01*
G37*
X148059621Y-88813217D02*
X148200754Y-88834938D01*
X148325652Y-88872285D01*
X148430557Y-88924083D01*
X148511709Y-88989162D01*
X148546418Y-89032913D01*
X148585703Y-89098414D01*
X148619349Y-89170119D01*
X148642847Y-89238241D01*
X148651688Y-89292993D01*
X148649611Y-89319241D01*
X148632381Y-89387583D01*
X148601543Y-89462840D01*
X148561746Y-89534622D01*
X148517640Y-89592542D01*
X148504065Y-89606319D01*
X148414750Y-89675250D01*
X148308074Y-89728362D01*
X148193297Y-89760849D01*
X148120120Y-89771649D01*
X147995700Y-89780442D01*
X147876170Y-89777663D01*
X147766346Y-89764023D01*
X147671044Y-89740232D01*
X147595079Y-89706998D01*
X147543267Y-89665033D01*
X147541436Y-89662403D01*
X147532000Y-89628818D01*
X147526356Y-89565910D01*
X147524480Y-89473428D01*
X147525625Y-89390574D01*
X147531909Y-89327491D01*
X147547472Y-89284750D01*
X147576455Y-89258719D01*
X147622998Y-89245764D01*
X147691241Y-89242253D01*
X147785324Y-89244554D01*
X147850055Y-89248564D01*
X147916884Y-89259471D01*
X147960145Y-89278181D01*
X147983389Y-89306453D01*
X147990167Y-89346048D01*
X147990026Y-89352094D01*
X147978440Y-89398417D01*
X147946475Y-89429594D01*
X147891536Y-89447168D01*
X147811031Y-89452683D01*
X147719865Y-89452683D01*
X147719865Y-89503743D01*
X147719932Y-89515906D01*
X147722888Y-89538873D01*
X147735226Y-89552578D01*
X147763692Y-89561814D01*
X147815031Y-89571376D01*
X147822319Y-89572620D01*
X147951395Y-89585805D01*
X148071206Y-89581918D01*
X148178924Y-89562307D01*
X148271718Y-89528317D01*
X148346760Y-89481293D01*
X148401220Y-89422581D01*
X148432270Y-89353527D01*
X148437079Y-89275478D01*
X148429732Y-89237008D01*
X148394207Y-89162599D01*
X148332713Y-89101810D01*
X148246199Y-89055431D01*
X148135614Y-89024252D01*
X148102763Y-89018329D01*
X147983834Y-89004351D01*
X147877582Y-89005987D01*
X147773613Y-89023209D01*
X147726824Y-89032248D01*
X147666330Y-89033603D01*
X147624639Y-89016919D01*
X147597807Y-88981256D01*
X147589308Y-88943649D01*
X147601938Y-88902078D01*
X147614358Y-88884204D01*
X147659936Y-88852875D01*
X147729995Y-88829082D01*
X147821216Y-88813776D01*
X147930279Y-88807909D01*
X148059621Y-88813217D01*
G36*
X148059621Y-88813217D02*
G01*
X148200754Y-88834938D01*
X148325652Y-88872285D01*
X148430557Y-88924083D01*
X148511709Y-88989162D01*
X148546418Y-89032913D01*
X148585703Y-89098414D01*
X148619349Y-89170119D01*
X148642847Y-89238241D01*
X148651688Y-89292993D01*
X148649611Y-89319241D01*
X148632381Y-89387583D01*
X148601543Y-89462840D01*
X148561746Y-89534622D01*
X148517640Y-89592542D01*
X148504065Y-89606319D01*
X148414750Y-89675250D01*
X148308074Y-89728362D01*
X148193297Y-89760849D01*
X148120120Y-89771649D01*
X147995700Y-89780442D01*
X147876170Y-89777663D01*
X147766346Y-89764023D01*
X147671044Y-89740232D01*
X147595079Y-89706998D01*
X147543267Y-89665033D01*
X147541436Y-89662403D01*
X147532000Y-89628818D01*
X147526356Y-89565910D01*
X147524480Y-89473428D01*
X147525625Y-89390574D01*
X147531909Y-89327491D01*
X147547472Y-89284750D01*
X147576455Y-89258719D01*
X147622998Y-89245764D01*
X147691241Y-89242253D01*
X147785324Y-89244554D01*
X147850055Y-89248564D01*
X147916884Y-89259471D01*
X147960145Y-89278181D01*
X147983389Y-89306453D01*
X147990167Y-89346048D01*
X147990026Y-89352094D01*
X147978440Y-89398417D01*
X147946475Y-89429594D01*
X147891536Y-89447168D01*
X147811031Y-89452683D01*
X147719865Y-89452683D01*
X147719865Y-89503743D01*
X147719932Y-89515906D01*
X147722888Y-89538873D01*
X147735226Y-89552578D01*
X147763692Y-89561814D01*
X147815031Y-89571376D01*
X147822319Y-89572620D01*
X147951395Y-89585805D01*
X148071206Y-89581918D01*
X148178924Y-89562307D01*
X148271718Y-89528317D01*
X148346760Y-89481293D01*
X148401220Y-89422581D01*
X148432270Y-89353527D01*
X148437079Y-89275478D01*
X148429732Y-89237008D01*
X148394207Y-89162599D01*
X148332713Y-89101810D01*
X148246199Y-89055431D01*
X148135614Y-89024252D01*
X148102763Y-89018329D01*
X147983834Y-89004351D01*
X147877582Y-89005987D01*
X147773613Y-89023209D01*
X147726824Y-89032248D01*
X147666330Y-89033603D01*
X147624639Y-89016919D01*
X147597807Y-88981256D01*
X147589308Y-88943649D01*
X147601938Y-88902078D01*
X147614358Y-88884204D01*
X147659936Y-88852875D01*
X147729995Y-88829082D01*
X147821216Y-88813776D01*
X147930279Y-88807909D01*
X148059621Y-88813217D01*
G37*
X145464336Y-88846011D02*
X145470925Y-88854910D01*
X145478706Y-88868984D01*
X145484645Y-88887739D01*
X145488991Y-88914799D01*
X145491990Y-88953790D01*
X145493892Y-89008339D01*
X145494943Y-89082069D01*
X145495392Y-89178608D01*
X145495486Y-89301580D01*
X145495448Y-89389339D01*
X145495139Y-89493607D01*
X145494313Y-89573845D01*
X145492725Y-89633621D01*
X145490132Y-89676502D01*
X145486291Y-89706056D01*
X145480958Y-89725852D01*
X145473890Y-89739457D01*
X145464842Y-89750440D01*
X145458831Y-89756641D01*
X145447874Y-89765277D01*
X145432750Y-89771816D01*
X145409760Y-89776550D01*
X145375204Y-89779769D01*
X145325386Y-89781766D01*
X145256604Y-89782831D01*
X145165161Y-89783256D01*
X145047357Y-89783334D01*
X145021163Y-89783325D01*
X144905302Y-89782970D01*
X144815232Y-89781951D01*
X144747393Y-89780068D01*
X144698224Y-89777123D01*
X144664162Y-89772919D01*
X144641646Y-89767256D01*
X144627115Y-89759937D01*
X144613145Y-89746642D01*
X144595490Y-89705214D01*
X144597064Y-89657434D01*
X144618585Y-89615434D01*
X144621500Y-89612404D01*
X144633066Y-89604059D01*
X144650829Y-89597847D01*
X144678765Y-89593458D01*
X144720851Y-89590584D01*
X144781065Y-89588914D01*
X144863382Y-89588139D01*
X144971780Y-89587949D01*
X145300102Y-89587949D01*
X145300102Y-89377535D01*
X145083838Y-89377535D01*
X145036350Y-89377428D01*
X144962100Y-89376366D01*
X144909993Y-89373697D01*
X144874774Y-89368849D01*
X144851185Y-89361249D01*
X144833971Y-89350325D01*
X144829121Y-89346086D01*
X144804614Y-89304847D01*
X144803770Y-89256471D01*
X144827120Y-89211711D01*
X144827203Y-89211620D01*
X144840078Y-89200135D01*
X144857777Y-89192073D01*
X144885346Y-89186839D01*
X144927831Y-89183837D01*
X144990279Y-89182473D01*
X145077737Y-89182150D01*
X145301602Y-89182150D01*
X145297094Y-89095730D01*
X145292587Y-89009310D01*
X144970295Y-89005245D01*
X144936989Y-89004809D01*
X144828324Y-89002839D01*
X144745354Y-88999665D01*
X144684626Y-88994345D01*
X144642685Y-88985940D01*
X144616078Y-88973506D01*
X144601349Y-88956103D01*
X144595045Y-88932790D01*
X144593711Y-88902626D01*
X144593719Y-88899476D01*
X144595255Y-88872808D01*
X144601643Y-88851782D01*
X144616032Y-88835731D01*
X144641573Y-88823984D01*
X144681419Y-88815874D01*
X144738718Y-88810730D01*
X144816623Y-88807884D01*
X144918284Y-88806667D01*
X145046852Y-88806410D01*
X145433186Y-88806410D01*
X145464336Y-88846011D01*
G36*
X145464336Y-88846011D02*
G01*
X145470925Y-88854910D01*
X145478706Y-88868984D01*
X145484645Y-88887739D01*
X145488991Y-88914799D01*
X145491990Y-88953790D01*
X145493892Y-89008339D01*
X145494943Y-89082069D01*
X145495392Y-89178608D01*
X145495486Y-89301580D01*
X145495448Y-89389339D01*
X145495139Y-89493607D01*
X145494313Y-89573845D01*
X145492725Y-89633621D01*
X145490132Y-89676502D01*
X145486291Y-89706056D01*
X145480958Y-89725852D01*
X145473890Y-89739457D01*
X145464842Y-89750440D01*
X145458831Y-89756641D01*
X145447874Y-89765277D01*
X145432750Y-89771816D01*
X145409760Y-89776550D01*
X145375204Y-89779769D01*
X145325386Y-89781766D01*
X145256604Y-89782831D01*
X145165161Y-89783256D01*
X145047357Y-89783334D01*
X145021163Y-89783325D01*
X144905302Y-89782970D01*
X144815232Y-89781951D01*
X144747393Y-89780068D01*
X144698224Y-89777123D01*
X144664162Y-89772919D01*
X144641646Y-89767256D01*
X144627115Y-89759937D01*
X144613145Y-89746642D01*
X144595490Y-89705214D01*
X144597064Y-89657434D01*
X144618585Y-89615434D01*
X144621500Y-89612404D01*
X144633066Y-89604059D01*
X144650829Y-89597847D01*
X144678765Y-89593458D01*
X144720851Y-89590584D01*
X144781065Y-89588914D01*
X144863382Y-89588139D01*
X144971780Y-89587949D01*
X145300102Y-89587949D01*
X145300102Y-89377535D01*
X145083838Y-89377535D01*
X145036350Y-89377428D01*
X144962100Y-89376366D01*
X144909993Y-89373697D01*
X144874774Y-89368849D01*
X144851185Y-89361249D01*
X144833971Y-89350325D01*
X144829121Y-89346086D01*
X144804614Y-89304847D01*
X144803770Y-89256471D01*
X144827120Y-89211711D01*
X144827203Y-89211620D01*
X144840078Y-89200135D01*
X144857777Y-89192073D01*
X144885346Y-89186839D01*
X144927831Y-89183837D01*
X144990279Y-89182473D01*
X145077737Y-89182150D01*
X145301602Y-89182150D01*
X145297094Y-89095730D01*
X145292587Y-89009310D01*
X144970295Y-89005245D01*
X144936989Y-89004809D01*
X144828324Y-89002839D01*
X144745354Y-88999665D01*
X144684626Y-88994345D01*
X144642685Y-88985940D01*
X144616078Y-88973506D01*
X144601349Y-88956103D01*
X144595045Y-88932790D01*
X144593711Y-88902626D01*
X144593719Y-88899476D01*
X144595255Y-88872808D01*
X144601643Y-88851782D01*
X144616032Y-88835731D01*
X144641573Y-88823984D01*
X144681419Y-88815874D01*
X144738718Y-88810730D01*
X144816623Y-88807884D01*
X144918284Y-88806667D01*
X145046852Y-88806410D01*
X145433186Y-88806410D01*
X145464336Y-88846011D01*
G37*
X151691020Y-88806432D02*
X151793663Y-88806688D01*
X151872142Y-88807466D01*
X151930172Y-88809052D01*
X151971469Y-88811732D01*
X151999750Y-88815790D01*
X152018732Y-88821512D01*
X152032129Y-88829183D01*
X152043660Y-88839090D01*
X152046036Y-88841327D01*
X152055680Y-88851364D01*
X152063191Y-88863370D01*
X152068837Y-88880857D01*
X152072883Y-88907334D01*
X152075596Y-88946315D01*
X152077242Y-89001310D01*
X152078088Y-89075830D01*
X152078400Y-89173387D01*
X152078445Y-89297492D01*
X152078396Y-89394401D01*
X152078065Y-89498481D01*
X152077218Y-89578648D01*
X152075624Y-89638398D01*
X152073053Y-89681228D01*
X152069275Y-89710634D01*
X152064058Y-89730112D01*
X152057171Y-89743160D01*
X152048386Y-89753274D01*
X152043947Y-89757504D01*
X152032601Y-89765640D01*
X152016622Y-89771863D01*
X151992377Y-89776430D01*
X151956235Y-89779595D01*
X151904563Y-89781613D01*
X151833728Y-89782739D01*
X151740098Y-89783227D01*
X151620043Y-89783334D01*
X151563981Y-89783318D01*
X151455945Y-89783075D01*
X151372745Y-89782339D01*
X151310749Y-89780854D01*
X151266325Y-89778365D01*
X151235840Y-89774618D01*
X151215662Y-89769357D01*
X151202159Y-89762327D01*
X151191699Y-89753274D01*
X151172093Y-89724518D01*
X151161640Y-89685641D01*
X151168961Y-89653813D01*
X151191699Y-89618008D01*
X151198328Y-89611873D01*
X151211342Y-89603503D01*
X151230135Y-89597345D01*
X151258753Y-89593063D01*
X151301243Y-89590320D01*
X151361651Y-89588778D01*
X151444024Y-89588100D01*
X151552409Y-89587949D01*
X151883060Y-89587949D01*
X151883060Y-89377535D01*
X151668475Y-89377535D01*
X151620789Y-89377341D01*
X151533420Y-89375048D01*
X151470525Y-89369143D01*
X151428274Y-89358353D01*
X151402837Y-89341404D01*
X151390384Y-89317021D01*
X151387084Y-89283931D01*
X151388146Y-89256963D01*
X151395138Y-89227905D01*
X151412171Y-89207467D01*
X151443245Y-89194159D01*
X151492357Y-89186496D01*
X151563508Y-89182989D01*
X151660696Y-89182150D01*
X151884560Y-89182150D01*
X151875546Y-89009310D01*
X151545745Y-89005251D01*
X151462414Y-89004081D01*
X151371268Y-89002158D01*
X151303496Y-88999588D01*
X151255230Y-88996059D01*
X151222602Y-88991261D01*
X151201746Y-88984885D01*
X151188793Y-88976620D01*
X151180784Y-88968095D01*
X151163465Y-88925916D01*
X151168205Y-88878404D01*
X151194533Y-88837055D01*
X151198863Y-88833163D01*
X151210818Y-88824707D01*
X151226932Y-88818247D01*
X151250905Y-88813515D01*
X151286437Y-88810244D01*
X151337227Y-88808165D01*
X151406976Y-88807012D01*
X151499384Y-88806516D01*
X151618150Y-88806410D01*
X151691020Y-88806432D01*
G36*
X151691020Y-88806432D02*
G01*
X151793663Y-88806688D01*
X151872142Y-88807466D01*
X151930172Y-88809052D01*
X151971469Y-88811732D01*
X151999750Y-88815790D01*
X152018732Y-88821512D01*
X152032129Y-88829183D01*
X152043660Y-88839090D01*
X152046036Y-88841327D01*
X152055680Y-88851364D01*
X152063191Y-88863370D01*
X152068837Y-88880857D01*
X152072883Y-88907334D01*
X152075596Y-88946315D01*
X152077242Y-89001310D01*
X152078088Y-89075830D01*
X152078400Y-89173387D01*
X152078445Y-89297492D01*
X152078396Y-89394401D01*
X152078065Y-89498481D01*
X152077218Y-89578648D01*
X152075624Y-89638398D01*
X152073053Y-89681228D01*
X152069275Y-89710634D01*
X152064058Y-89730112D01*
X152057171Y-89743160D01*
X152048386Y-89753274D01*
X152043947Y-89757504D01*
X152032601Y-89765640D01*
X152016622Y-89771863D01*
X151992377Y-89776430D01*
X151956235Y-89779595D01*
X151904563Y-89781613D01*
X151833728Y-89782739D01*
X151740098Y-89783227D01*
X151620043Y-89783334D01*
X151563981Y-89783318D01*
X151455945Y-89783075D01*
X151372745Y-89782339D01*
X151310749Y-89780854D01*
X151266325Y-89778365D01*
X151235840Y-89774618D01*
X151215662Y-89769357D01*
X151202159Y-89762327D01*
X151191699Y-89753274D01*
X151172093Y-89724518D01*
X151161640Y-89685641D01*
X151168961Y-89653813D01*
X151191699Y-89618008D01*
X151198328Y-89611873D01*
X151211342Y-89603503D01*
X151230135Y-89597345D01*
X151258753Y-89593063D01*
X151301243Y-89590320D01*
X151361651Y-89588778D01*
X151444024Y-89588100D01*
X151552409Y-89587949D01*
X151883060Y-89587949D01*
X151883060Y-89377535D01*
X151668475Y-89377535D01*
X151620789Y-89377341D01*
X151533420Y-89375048D01*
X151470525Y-89369143D01*
X151428274Y-89358353D01*
X151402837Y-89341404D01*
X151390384Y-89317021D01*
X151387084Y-89283931D01*
X151388146Y-89256963D01*
X151395138Y-89227905D01*
X151412171Y-89207467D01*
X151443245Y-89194159D01*
X151492357Y-89186496D01*
X151563508Y-89182989D01*
X151660696Y-89182150D01*
X151884560Y-89182150D01*
X151875546Y-89009310D01*
X151545745Y-89005251D01*
X151462414Y-89004081D01*
X151371268Y-89002158D01*
X151303496Y-88999588D01*
X151255230Y-88996059D01*
X151222602Y-88991261D01*
X151201746Y-88984885D01*
X151188793Y-88976620D01*
X151180784Y-88968095D01*
X151163465Y-88925916D01*
X151168205Y-88878404D01*
X151194533Y-88837055D01*
X151198863Y-88833163D01*
X151210818Y-88824707D01*
X151226932Y-88818247D01*
X151250905Y-88813515D01*
X151286437Y-88810244D01*
X151337227Y-88808165D01*
X151406976Y-88807012D01*
X151499384Y-88806516D01*
X151618150Y-88806410D01*
X151691020Y-88806432D01*
G37*
X140285208Y-88818940D02*
X140309119Y-88843585D01*
X140336546Y-88884966D01*
X140369607Y-88945790D01*
X140410420Y-89028763D01*
X140461104Y-89136594D01*
X140480587Y-89178376D01*
X140520193Y-89262496D01*
X140554935Y-89335196D01*
X140582886Y-89392507D01*
X140602120Y-89430455D01*
X140610711Y-89445069D01*
X140612520Y-89444296D01*
X140625823Y-89425727D01*
X140648844Y-89386401D01*
X140678928Y-89330994D01*
X140713422Y-89264180D01*
X140734687Y-89222258D01*
X140773230Y-89148562D01*
X140803170Y-89096617D01*
X140827422Y-89062697D01*
X140848898Y-89043079D01*
X140870512Y-89034040D01*
X140895177Y-89031854D01*
X140909160Y-89032487D01*
X140930616Y-89038088D01*
X140951005Y-89052552D01*
X140973103Y-89079542D01*
X140999689Y-89122725D01*
X141033540Y-89185765D01*
X141077434Y-89272328D01*
X141090392Y-89297963D01*
X141122954Y-89360096D01*
X141149895Y-89408241D01*
X141168710Y-89438049D01*
X141176897Y-89445168D01*
X141178717Y-89440813D01*
X141191198Y-89412975D01*
X141213646Y-89363796D01*
X141244156Y-89297426D01*
X141280823Y-89218014D01*
X141321742Y-89129707D01*
X141357309Y-89053525D01*
X141396749Y-88970995D01*
X141427465Y-88910100D01*
X141451401Y-88867442D01*
X141470502Y-88839625D01*
X141486713Y-88823253D01*
X141501978Y-88814931D01*
X141514506Y-88811080D01*
X141547930Y-88810882D01*
X141584067Y-88831308D01*
X141585798Y-88832620D01*
X141615200Y-88862756D01*
X141629909Y-88892345D01*
X141629971Y-88893197D01*
X141623926Y-88916711D01*
X141606799Y-88962731D01*
X141580493Y-89027096D01*
X141546910Y-89105645D01*
X141507952Y-89194221D01*
X141465522Y-89288661D01*
X141421522Y-89384807D01*
X141377854Y-89478499D01*
X141336420Y-89565576D01*
X141299123Y-89641880D01*
X141267864Y-89703249D01*
X141244546Y-89745525D01*
X141231071Y-89764547D01*
X141185262Y-89782345D01*
X141129748Y-89773876D01*
X141122606Y-89767622D01*
X141101532Y-89738131D01*
X141071973Y-89689190D01*
X141036803Y-89625661D01*
X140998894Y-89552407D01*
X140892686Y-89340397D01*
X140795248Y-89535563D01*
X140782340Y-89561246D01*
X140746421Y-89630940D01*
X140714431Y-89690571D01*
X140689449Y-89734486D01*
X140674556Y-89757032D01*
X140673030Y-89758687D01*
X140635591Y-89779039D01*
X140588911Y-89781280D01*
X140547584Y-89764547D01*
X140544354Y-89760754D01*
X140528031Y-89733294D01*
X140501754Y-89683300D01*
X140467266Y-89614298D01*
X140426310Y-89529814D01*
X140380630Y-89433373D01*
X140331969Y-89328503D01*
X140305022Y-89269759D01*
X140256064Y-89162281D01*
X140218178Y-89077502D01*
X140190187Y-89012353D01*
X140170912Y-88963764D01*
X140159178Y-88928667D01*
X140153805Y-88903992D01*
X140153616Y-88886672D01*
X140157434Y-88873636D01*
X140176948Y-88845834D01*
X140212366Y-88818806D01*
X140213372Y-88818350D01*
X140239453Y-88809030D01*
X140262692Y-88808324D01*
X140285208Y-88818940D01*
G36*
X140285208Y-88818940D02*
G01*
X140309119Y-88843585D01*
X140336546Y-88884966D01*
X140369607Y-88945790D01*
X140410420Y-89028763D01*
X140461104Y-89136594D01*
X140480587Y-89178376D01*
X140520193Y-89262496D01*
X140554935Y-89335196D01*
X140582886Y-89392507D01*
X140602120Y-89430455D01*
X140610711Y-89445069D01*
X140612520Y-89444296D01*
X140625823Y-89425727D01*
X140648844Y-89386401D01*
X140678928Y-89330994D01*
X140713422Y-89264180D01*
X140734687Y-89222258D01*
X140773230Y-89148562D01*
X140803170Y-89096617D01*
X140827422Y-89062697D01*
X140848898Y-89043079D01*
X140870512Y-89034040D01*
X140895177Y-89031854D01*
X140909160Y-89032487D01*
X140930616Y-89038088D01*
X140951005Y-89052552D01*
X140973103Y-89079542D01*
X140999689Y-89122725D01*
X141033540Y-89185765D01*
X141077434Y-89272328D01*
X141090392Y-89297963D01*
X141122954Y-89360096D01*
X141149895Y-89408241D01*
X141168710Y-89438049D01*
X141176897Y-89445168D01*
X141178717Y-89440813D01*
X141191198Y-89412975D01*
X141213646Y-89363796D01*
X141244156Y-89297426D01*
X141280823Y-89218014D01*
X141321742Y-89129707D01*
X141357309Y-89053525D01*
X141396749Y-88970995D01*
X141427465Y-88910100D01*
X141451401Y-88867442D01*
X141470502Y-88839625D01*
X141486713Y-88823253D01*
X141501978Y-88814931D01*
X141514506Y-88811080D01*
X141547930Y-88810882D01*
X141584067Y-88831308D01*
X141585798Y-88832620D01*
X141615200Y-88862756D01*
X141629909Y-88892345D01*
X141629971Y-88893197D01*
X141623926Y-88916711D01*
X141606799Y-88962731D01*
X141580493Y-89027096D01*
X141546910Y-89105645D01*
X141507952Y-89194221D01*
X141465522Y-89288661D01*
X141421522Y-89384807D01*
X141377854Y-89478499D01*
X141336420Y-89565576D01*
X141299123Y-89641880D01*
X141267864Y-89703249D01*
X141244546Y-89745525D01*
X141231071Y-89764547D01*
X141185262Y-89782345D01*
X141129748Y-89773876D01*
X141122606Y-89767622D01*
X141101532Y-89738131D01*
X141071973Y-89689190D01*
X141036803Y-89625661D01*
X140998894Y-89552407D01*
X140892686Y-89340397D01*
X140795248Y-89535563D01*
X140782340Y-89561246D01*
X140746421Y-89630940D01*
X140714431Y-89690571D01*
X140689449Y-89734486D01*
X140674556Y-89757032D01*
X140673030Y-89758687D01*
X140635591Y-89779039D01*
X140588911Y-89781280D01*
X140547584Y-89764547D01*
X140544354Y-89760754D01*
X140528031Y-89733294D01*
X140501754Y-89683300D01*
X140467266Y-89614298D01*
X140426310Y-89529814D01*
X140380630Y-89433373D01*
X140331969Y-89328503D01*
X140305022Y-89269759D01*
X140256064Y-89162281D01*
X140218178Y-89077502D01*
X140190187Y-89012353D01*
X140170912Y-88963764D01*
X140159178Y-88928667D01*
X140153805Y-88903992D01*
X140153616Y-88886672D01*
X140157434Y-88873636D01*
X140176948Y-88845834D01*
X140212366Y-88818806D01*
X140213372Y-88818350D01*
X140239453Y-88809030D01*
X140262692Y-88808324D01*
X140285208Y-88818940D01*
G37*
X150338515Y-88807568D02*
X150426713Y-88814797D01*
X150500338Y-88827576D01*
X150568081Y-88847361D01*
X150663024Y-88891472D01*
X150731132Y-88948298D01*
X150772169Y-89017615D01*
X150785901Y-89099199D01*
X150784653Y-89140802D01*
X150776941Y-89173816D01*
X150757227Y-89202666D01*
X150719986Y-89239080D01*
X150709364Y-89248837D01*
X150677798Y-89276666D01*
X150647984Y-89299260D01*
X150615986Y-89317837D01*
X150577872Y-89333615D01*
X150529708Y-89347812D01*
X150467560Y-89361647D01*
X150387494Y-89376338D01*
X150285576Y-89393103D01*
X150157874Y-89413161D01*
X150133425Y-89417200D01*
X150050442Y-89435334D01*
X149990241Y-89456281D01*
X149955247Y-89479009D01*
X149947886Y-89502487D01*
X149951375Y-89508172D01*
X149975250Y-89528229D01*
X150012695Y-89550375D01*
X150029736Y-89558351D01*
X150058092Y-89567927D01*
X150093221Y-89574287D01*
X150140943Y-89578040D01*
X150207076Y-89579794D01*
X150297439Y-89580158D01*
X150321117Y-89580061D01*
X150411145Y-89578582D01*
X150497602Y-89575619D01*
X150571659Y-89571537D01*
X150624489Y-89566698D01*
X150671767Y-89561282D01*
X150710712Y-89560240D01*
X150735876Y-89566363D01*
X150755998Y-89580576D01*
X150760866Y-89585359D01*
X150782623Y-89627662D01*
X150780865Y-89675130D01*
X150755627Y-89715895D01*
X150728506Y-89731346D01*
X150680599Y-89748248D01*
X150624118Y-89761628D01*
X150619524Y-89762425D01*
X150562716Y-89769370D01*
X150486313Y-89775193D01*
X150399752Y-89779304D01*
X150312469Y-89781113D01*
X150290857Y-89781169D01*
X150159968Y-89777870D01*
X150053390Y-89767211D01*
X149966612Y-89747864D01*
X149895124Y-89718502D01*
X149834413Y-89677798D01*
X149779969Y-89624424D01*
X149753181Y-89589507D01*
X149737702Y-89550169D01*
X149733830Y-89497292D01*
X149734017Y-89481357D01*
X149739173Y-89437846D01*
X149755662Y-89402531D01*
X149789165Y-89361460D01*
X149817406Y-89331984D01*
X149852549Y-89301967D01*
X149892113Y-89277513D01*
X149940347Y-89257202D01*
X150001500Y-89239612D01*
X150079819Y-89223323D01*
X150179554Y-89206913D01*
X150304954Y-89188962D01*
X150365280Y-89179630D01*
X150455752Y-89160246D01*
X150521169Y-89138280D01*
X150560534Y-89114451D01*
X150572850Y-89089482D01*
X150557118Y-89064093D01*
X150512342Y-89039005D01*
X150508287Y-89037389D01*
X150446566Y-89021309D01*
X150363156Y-89010391D01*
X150265389Y-89004852D01*
X150160598Y-89004909D01*
X150056115Y-89010778D01*
X149959273Y-89022675D01*
X149954045Y-89023539D01*
X149889053Y-89033800D01*
X149846114Y-89038608D01*
X149818159Y-89037813D01*
X149798117Y-89031261D01*
X149778918Y-89018801D01*
X149777361Y-89017642D01*
X149744720Y-88977204D01*
X149738338Y-88929939D01*
X149759383Y-88883899D01*
X149765435Y-88877966D01*
X149804862Y-88857810D01*
X149867412Y-88840338D01*
X149947698Y-88825959D01*
X150040337Y-88815084D01*
X150139942Y-88808121D01*
X150241130Y-88805479D01*
X150338515Y-88807568D01*
G36*
X150338515Y-88807568D02*
G01*
X150426713Y-88814797D01*
X150500338Y-88827576D01*
X150568081Y-88847361D01*
X150663024Y-88891472D01*
X150731132Y-88948298D01*
X150772169Y-89017615D01*
X150785901Y-89099199D01*
X150784653Y-89140802D01*
X150776941Y-89173816D01*
X150757227Y-89202666D01*
X150719986Y-89239080D01*
X150709364Y-89248837D01*
X150677798Y-89276666D01*
X150647984Y-89299260D01*
X150615986Y-89317837D01*
X150577872Y-89333615D01*
X150529708Y-89347812D01*
X150467560Y-89361647D01*
X150387494Y-89376338D01*
X150285576Y-89393103D01*
X150157874Y-89413161D01*
X150133425Y-89417200D01*
X150050442Y-89435334D01*
X149990241Y-89456281D01*
X149955247Y-89479009D01*
X149947886Y-89502487D01*
X149951375Y-89508172D01*
X149975250Y-89528229D01*
X150012695Y-89550375D01*
X150029736Y-89558351D01*
X150058092Y-89567927D01*
X150093221Y-89574287D01*
X150140943Y-89578040D01*
X150207076Y-89579794D01*
X150297439Y-89580158D01*
X150321117Y-89580061D01*
X150411145Y-89578582D01*
X150497602Y-89575619D01*
X150571659Y-89571537D01*
X150624489Y-89566698D01*
X150671767Y-89561282D01*
X150710712Y-89560240D01*
X150735876Y-89566363D01*
X150755998Y-89580576D01*
X150760866Y-89585359D01*
X150782623Y-89627662D01*
X150780865Y-89675130D01*
X150755627Y-89715895D01*
X150728506Y-89731346D01*
X150680599Y-89748248D01*
X150624118Y-89761628D01*
X150619524Y-89762425D01*
X150562716Y-89769370D01*
X150486313Y-89775193D01*
X150399752Y-89779304D01*
X150312469Y-89781113D01*
X150290857Y-89781169D01*
X150159968Y-89777870D01*
X150053390Y-89767211D01*
X149966612Y-89747864D01*
X149895124Y-89718502D01*
X149834413Y-89677798D01*
X149779969Y-89624424D01*
X149753181Y-89589507D01*
X149737702Y-89550169D01*
X149733830Y-89497292D01*
X149734017Y-89481357D01*
X149739173Y-89437846D01*
X149755662Y-89402531D01*
X149789165Y-89361460D01*
X149817406Y-89331984D01*
X149852549Y-89301967D01*
X149892113Y-89277513D01*
X149940347Y-89257202D01*
X150001500Y-89239612D01*
X150079819Y-89223323D01*
X150179554Y-89206913D01*
X150304954Y-89188962D01*
X150365280Y-89179630D01*
X150455752Y-89160246D01*
X150521169Y-89138280D01*
X150560534Y-89114451D01*
X150572850Y-89089482D01*
X150557118Y-89064093D01*
X150512342Y-89039005D01*
X150508287Y-89037389D01*
X150446566Y-89021309D01*
X150363156Y-89010391D01*
X150265389Y-89004852D01*
X150160598Y-89004909D01*
X150056115Y-89010778D01*
X149959273Y-89022675D01*
X149954045Y-89023539D01*
X149889053Y-89033800D01*
X149846114Y-89038608D01*
X149818159Y-89037813D01*
X149798117Y-89031261D01*
X149778918Y-89018801D01*
X149777361Y-89017642D01*
X149744720Y-88977204D01*
X149738338Y-88929939D01*
X149759383Y-88883899D01*
X149765435Y-88877966D01*
X149804862Y-88857810D01*
X149867412Y-88840338D01*
X149947698Y-88825959D01*
X150040337Y-88815084D01*
X150139942Y-88808121D01*
X150241130Y-88805479D01*
X150338515Y-88807568D01*
G37*
X145173834Y-81766031D02*
X145417638Y-81788413D01*
X145644132Y-81833551D01*
X145861742Y-81903345D01*
X146078891Y-81999696D01*
X146293845Y-82122715D01*
X146524534Y-82290422D01*
X146738459Y-82484323D01*
X146930911Y-82699618D01*
X147097180Y-82931507D01*
X147232553Y-83175190D01*
X147244841Y-83201258D01*
X147347750Y-83452881D01*
X147425946Y-83714345D01*
X147480439Y-83990646D01*
X147512241Y-84286779D01*
X147522360Y-84607739D01*
X147510056Y-84939528D01*
X147471001Y-85266276D01*
X147404590Y-85572149D01*
X147310227Y-85859317D01*
X147187320Y-86129949D01*
X147035273Y-86386214D01*
X146892450Y-86582000D01*
X146695243Y-86802289D01*
X146480296Y-86990974D01*
X146247703Y-87147993D01*
X145997558Y-87273285D01*
X145729957Y-87366786D01*
X145444992Y-87428437D01*
X145441740Y-87428917D01*
X145386862Y-87433732D01*
X145304049Y-87437304D01*
X145200958Y-87439465D01*
X145085246Y-87440050D01*
X144964572Y-87438891D01*
X144879997Y-87437192D01*
X144754512Y-87433258D01*
X144653958Y-87427626D01*
X144571083Y-87419694D01*
X144498634Y-87408863D01*
X144429357Y-87394530D01*
X144351416Y-87376007D01*
X144270099Y-87354914D01*
X144196556Y-87332787D01*
X144124112Y-87307033D01*
X144046093Y-87275060D01*
X143955825Y-87234278D01*
X143846631Y-87182093D01*
X143711839Y-87115915D01*
X143339036Y-86931677D01*
X143637628Y-86441231D01*
X143676719Y-86377041D01*
X143746950Y-86261810D01*
X143809811Y-86158794D01*
X143863004Y-86071748D01*
X143904233Y-86004432D01*
X143931200Y-85960601D01*
X143941607Y-85944015D01*
X143944502Y-85944510D01*
X143967820Y-85960742D01*
X144008786Y-85994429D01*
X144060927Y-86040345D01*
X144153787Y-86119678D01*
X144319562Y-86236990D01*
X144480403Y-86318771D01*
X144596631Y-86359611D01*
X144793222Y-86401348D01*
X144986378Y-86408746D01*
X145173299Y-86382309D01*
X145351183Y-86322540D01*
X145517230Y-86229943D01*
X145668637Y-86105022D01*
X145752886Y-86013014D01*
X145871574Y-85842831D01*
X145968964Y-85645342D01*
X146045519Y-85419536D01*
X146101707Y-85164401D01*
X146104256Y-85148562D01*
X146116033Y-85045903D01*
X146124800Y-84918351D01*
X146130486Y-84774622D01*
X146133021Y-84623431D01*
X146132333Y-84473493D01*
X146128352Y-84333524D01*
X146121006Y-84212241D01*
X146110225Y-84118357D01*
X146068900Y-83905692D01*
X145999365Y-83657270D01*
X145911915Y-83439781D01*
X145806665Y-83253393D01*
X145683732Y-83098273D01*
X145543235Y-82974590D01*
X145385288Y-82882512D01*
X145210010Y-82822209D01*
X145171121Y-82814724D01*
X145073666Y-82804951D01*
X144959773Y-82801761D01*
X144842204Y-82804979D01*
X144733717Y-82814429D01*
X144647072Y-82829936D01*
X144502732Y-82879313D01*
X144335228Y-82969456D01*
X144186080Y-83088084D01*
X144159756Y-83113073D01*
X144112057Y-83157285D01*
X144078345Y-83187042D01*
X144064649Y-83196941D01*
X144061277Y-83192207D01*
X144040523Y-83162313D01*
X144003028Y-83108033D01*
X143951270Y-83032962D01*
X143887728Y-82940694D01*
X143814877Y-82834823D01*
X143735197Y-82718944D01*
X143409286Y-82244817D01*
X143482092Y-82223004D01*
X143489690Y-82220532D01*
X143539145Y-82200898D01*
X143610447Y-82169239D01*
X143695228Y-82129362D01*
X143785120Y-82085076D01*
X143824292Y-82065496D01*
X144041804Y-81964409D01*
X144242283Y-81886238D01*
X144433438Y-81828985D01*
X144622981Y-81790649D01*
X144818622Y-81769231D01*
X145028072Y-81762731D01*
X145173834Y-81766031D01*
G36*
X145173834Y-81766031D02*
G01*
X145417638Y-81788413D01*
X145644132Y-81833551D01*
X145861742Y-81903345D01*
X146078891Y-81999696D01*
X146293845Y-82122715D01*
X146524534Y-82290422D01*
X146738459Y-82484323D01*
X146930911Y-82699618D01*
X147097180Y-82931507D01*
X147232553Y-83175190D01*
X147244841Y-83201258D01*
X147347750Y-83452881D01*
X147425946Y-83714345D01*
X147480439Y-83990646D01*
X147512241Y-84286779D01*
X147522360Y-84607739D01*
X147510056Y-84939528D01*
X147471001Y-85266276D01*
X147404590Y-85572149D01*
X147310227Y-85859317D01*
X147187320Y-86129949D01*
X147035273Y-86386214D01*
X146892450Y-86582000D01*
X146695243Y-86802289D01*
X146480296Y-86990974D01*
X146247703Y-87147993D01*
X145997558Y-87273285D01*
X145729957Y-87366786D01*
X145444992Y-87428437D01*
X145441740Y-87428917D01*
X145386862Y-87433732D01*
X145304049Y-87437304D01*
X145200958Y-87439465D01*
X145085246Y-87440050D01*
X144964572Y-87438891D01*
X144879997Y-87437192D01*
X144754512Y-87433258D01*
X144653958Y-87427626D01*
X144571083Y-87419694D01*
X144498634Y-87408863D01*
X144429357Y-87394530D01*
X144351416Y-87376007D01*
X144270099Y-87354914D01*
X144196556Y-87332787D01*
X144124112Y-87307033D01*
X144046093Y-87275060D01*
X143955825Y-87234278D01*
X143846631Y-87182093D01*
X143711839Y-87115915D01*
X143339036Y-86931677D01*
X143637628Y-86441231D01*
X143676719Y-86377041D01*
X143746950Y-86261810D01*
X143809811Y-86158794D01*
X143863004Y-86071748D01*
X143904233Y-86004432D01*
X143931200Y-85960601D01*
X143941607Y-85944015D01*
X143944502Y-85944510D01*
X143967820Y-85960742D01*
X144008786Y-85994429D01*
X144060927Y-86040345D01*
X144153787Y-86119678D01*
X144319562Y-86236990D01*
X144480403Y-86318771D01*
X144596631Y-86359611D01*
X144793222Y-86401348D01*
X144986378Y-86408746D01*
X145173299Y-86382309D01*
X145351183Y-86322540D01*
X145517230Y-86229943D01*
X145668637Y-86105022D01*
X145752886Y-86013014D01*
X145871574Y-85842831D01*
X145968964Y-85645342D01*
X146045519Y-85419536D01*
X146101707Y-85164401D01*
X146104256Y-85148562D01*
X146116033Y-85045903D01*
X146124800Y-84918351D01*
X146130486Y-84774622D01*
X146133021Y-84623431D01*
X146132333Y-84473493D01*
X146128352Y-84333524D01*
X146121006Y-84212241D01*
X146110225Y-84118357D01*
X146068900Y-83905692D01*
X145999365Y-83657270D01*
X145911915Y-83439781D01*
X145806665Y-83253393D01*
X145683732Y-83098273D01*
X145543235Y-82974590D01*
X145385288Y-82882512D01*
X145210010Y-82822209D01*
X145171121Y-82814724D01*
X145073666Y-82804951D01*
X144959773Y-82801761D01*
X144842204Y-82804979D01*
X144733717Y-82814429D01*
X144647072Y-82829936D01*
X144502732Y-82879313D01*
X144335228Y-82969456D01*
X144186080Y-83088084D01*
X144159756Y-83113073D01*
X144112057Y-83157285D01*
X144078345Y-83187042D01*
X144064649Y-83196941D01*
X144061277Y-83192207D01*
X144040523Y-83162313D01*
X144003028Y-83108033D01*
X143951270Y-83032962D01*
X143887728Y-82940694D01*
X143814877Y-82834823D01*
X143735197Y-82718944D01*
X143409286Y-82244817D01*
X143482092Y-82223004D01*
X143489690Y-82220532D01*
X143539145Y-82200898D01*
X143610447Y-82169239D01*
X143695228Y-82129362D01*
X143785120Y-82085076D01*
X143824292Y-82065496D01*
X144041804Y-81964409D01*
X144242283Y-81886238D01*
X144433438Y-81828985D01*
X144622981Y-81790649D01*
X144818622Y-81769231D01*
X145028072Y-81762731D01*
X145173834Y-81766031D01*
G37*
X139247105Y-85546537D02*
X139243255Y-85714433D01*
X139232247Y-85862502D01*
X139213229Y-85998798D01*
X139185349Y-86131375D01*
X139147754Y-86268286D01*
X139090743Y-86431936D01*
X138986036Y-86652857D01*
X138857598Y-86850734D01*
X138707393Y-87023697D01*
X138537387Y-87169876D01*
X138349545Y-87287401D01*
X138145832Y-87374402D01*
X137928212Y-87429009D01*
X137925593Y-87429447D01*
X137766553Y-87444750D01*
X137591809Y-87442707D01*
X137413820Y-87424579D01*
X137245046Y-87391624D01*
X137097948Y-87345101D01*
X137035161Y-87316791D01*
X136953387Y-87273761D01*
X136869359Y-87224546D01*
X136791845Y-87174563D01*
X136729612Y-87129229D01*
X136691429Y-87093960D01*
X136682663Y-87084277D01*
X136672214Y-87080892D01*
X136665229Y-87097696D01*
X136660082Y-87140045D01*
X136655143Y-87213295D01*
X136646072Y-87365929D01*
X135256360Y-87375433D01*
X135304439Y-87293393D01*
X135307305Y-87288543D01*
X135321285Y-87265772D01*
X135333969Y-87245487D01*
X135345423Y-87225925D01*
X135355715Y-87205324D01*
X135364915Y-87181920D01*
X135373090Y-87153953D01*
X135380309Y-87119660D01*
X135386640Y-87077278D01*
X135392151Y-87025046D01*
X135396910Y-86961200D01*
X135400985Y-86883979D01*
X135404446Y-86791620D01*
X135407359Y-86682361D01*
X135409794Y-86554440D01*
X135411818Y-86406094D01*
X135413452Y-86240556D01*
X136736786Y-86240556D01*
X136827500Y-86300057D01*
X136862386Y-86321491D01*
X136942265Y-86364311D01*
X137018000Y-86398410D01*
X137051168Y-86409955D01*
X137156705Y-86433004D01*
X137290143Y-86444773D01*
X137357996Y-86447222D01*
X137420980Y-86446666D01*
X137467866Y-86440375D01*
X137509920Y-86426626D01*
X137558409Y-86403692D01*
X137651595Y-86342259D01*
X137732324Y-86255358D01*
X137796945Y-86143369D01*
X137846073Y-86004539D01*
X137880321Y-85837111D01*
X137900306Y-85639329D01*
X137906641Y-85409440D01*
X137906333Y-85357175D01*
X137897225Y-85115015D01*
X137875109Y-84904302D01*
X137839447Y-84722814D01*
X137789701Y-84568327D01*
X137725333Y-84438619D01*
X137645805Y-84331466D01*
X137612812Y-84298763D01*
X137510560Y-84230632D01*
X137390526Y-84189173D01*
X137257910Y-84174622D01*
X137117913Y-84187214D01*
X136975733Y-84227185D01*
X136836572Y-84294771D01*
X136736786Y-84354584D01*
X136736786Y-86240556D01*
X135413452Y-86240556D01*
X135413501Y-86235562D01*
X135414909Y-86041081D01*
X135416112Y-85820888D01*
X135417177Y-85573221D01*
X135418173Y-85296318D01*
X135419168Y-84988417D01*
X135420231Y-84647756D01*
X135421429Y-84272572D01*
X135430500Y-81505786D01*
X136151679Y-81501042D01*
X136204124Y-81500723D01*
X136358429Y-81500089D01*
X136499564Y-81499961D01*
X136623677Y-81500311D01*
X136726915Y-81501112D01*
X136805426Y-81502340D01*
X136855357Y-81503967D01*
X136872857Y-81505967D01*
X136870618Y-81512305D01*
X136853917Y-81542356D01*
X136826255Y-81586057D01*
X136823495Y-81590235D01*
X136802048Y-81623977D01*
X136784065Y-81656806D01*
X136769242Y-81692105D01*
X136757274Y-81733255D01*
X136747856Y-81783638D01*
X136740683Y-81846634D01*
X136735450Y-81925627D01*
X136731852Y-82023997D01*
X136729584Y-82145126D01*
X136728342Y-82292396D01*
X136727821Y-82469188D01*
X136727714Y-82678884D01*
X136727905Y-82842603D01*
X136728487Y-83003339D01*
X136729419Y-83149083D01*
X136730659Y-83276286D01*
X136732164Y-83381400D01*
X136733893Y-83460875D01*
X136735802Y-83511163D01*
X136737850Y-83528714D01*
X136744455Y-83525990D01*
X136773490Y-83506807D01*
X136814957Y-83475303D01*
X136875072Y-83432936D01*
X136988021Y-83370511D01*
X137117116Y-83314828D01*
X137250309Y-83271525D01*
X137362215Y-83249444D01*
X137501587Y-83235368D01*
X137652426Y-83230492D01*
X137803093Y-83234820D01*
X137941946Y-83248359D01*
X138057345Y-83271115D01*
X138174847Y-83309447D01*
X138370869Y-83402371D01*
X138552371Y-83525908D01*
X138716004Y-83677212D01*
X138858419Y-83853440D01*
X138976270Y-84051746D01*
X139005528Y-84112556D01*
X139087518Y-84317670D01*
X139151619Y-84540285D01*
X139198642Y-84784325D01*
X139229395Y-85053713D01*
X139244690Y-85352374D01*
X139245400Y-85409440D01*
X139247105Y-85546537D01*
G36*
X139247105Y-85546537D02*
G01*
X139243255Y-85714433D01*
X139232247Y-85862502D01*
X139213229Y-85998798D01*
X139185349Y-86131375D01*
X139147754Y-86268286D01*
X139090743Y-86431936D01*
X138986036Y-86652857D01*
X138857598Y-86850734D01*
X138707393Y-87023697D01*
X138537387Y-87169876D01*
X138349545Y-87287401D01*
X138145832Y-87374402D01*
X137928212Y-87429009D01*
X137925593Y-87429447D01*
X137766553Y-87444750D01*
X137591809Y-87442707D01*
X137413820Y-87424579D01*
X137245046Y-87391624D01*
X137097948Y-87345101D01*
X137035161Y-87316791D01*
X136953387Y-87273761D01*
X136869359Y-87224546D01*
X136791845Y-87174563D01*
X136729612Y-87129229D01*
X136691429Y-87093960D01*
X136682663Y-87084277D01*
X136672214Y-87080892D01*
X136665229Y-87097696D01*
X136660082Y-87140045D01*
X136655143Y-87213295D01*
X136646072Y-87365929D01*
X135256360Y-87375433D01*
X135304439Y-87293393D01*
X135307305Y-87288543D01*
X135321285Y-87265772D01*
X135333969Y-87245487D01*
X135345423Y-87225925D01*
X135355715Y-87205324D01*
X135364915Y-87181920D01*
X135373090Y-87153953D01*
X135380309Y-87119660D01*
X135386640Y-87077278D01*
X135392151Y-87025046D01*
X135396910Y-86961200D01*
X135400985Y-86883979D01*
X135404446Y-86791620D01*
X135407359Y-86682361D01*
X135409794Y-86554440D01*
X135411818Y-86406094D01*
X135413452Y-86240556D01*
X136736786Y-86240556D01*
X136827500Y-86300057D01*
X136862386Y-86321491D01*
X136942265Y-86364311D01*
X137018000Y-86398410D01*
X137051168Y-86409955D01*
X137156705Y-86433004D01*
X137290143Y-86444773D01*
X137357996Y-86447222D01*
X137420980Y-86446666D01*
X137467866Y-86440375D01*
X137509920Y-86426626D01*
X137558409Y-86403692D01*
X137651595Y-86342259D01*
X137732324Y-86255358D01*
X137796945Y-86143369D01*
X137846073Y-86004539D01*
X137880321Y-85837111D01*
X137900306Y-85639329D01*
X137906641Y-85409440D01*
X137906333Y-85357175D01*
X137897225Y-85115015D01*
X137875109Y-84904302D01*
X137839447Y-84722814D01*
X137789701Y-84568327D01*
X137725333Y-84438619D01*
X137645805Y-84331466D01*
X137612812Y-84298763D01*
X137510560Y-84230632D01*
X137390526Y-84189173D01*
X137257910Y-84174622D01*
X137117913Y-84187214D01*
X136975733Y-84227185D01*
X136836572Y-84294771D01*
X136736786Y-84354584D01*
X136736786Y-86240556D01*
X135413452Y-86240556D01*
X135413501Y-86235562D01*
X135414909Y-86041081D01*
X135416112Y-85820888D01*
X135417177Y-85573221D01*
X135418173Y-85296318D01*
X135419168Y-84988417D01*
X135420231Y-84647756D01*
X135421429Y-84272572D01*
X135430500Y-81505786D01*
X136151679Y-81501042D01*
X136204124Y-81500723D01*
X136358429Y-81500089D01*
X136499564Y-81499961D01*
X136623677Y-81500311D01*
X136726915Y-81501112D01*
X136805426Y-81502340D01*
X136855357Y-81503967D01*
X136872857Y-81505967D01*
X136870618Y-81512305D01*
X136853917Y-81542356D01*
X136826255Y-81586057D01*
X136823495Y-81590235D01*
X136802048Y-81623977D01*
X136784065Y-81656806D01*
X136769242Y-81692105D01*
X136757274Y-81733255D01*
X136747856Y-81783638D01*
X136740683Y-81846634D01*
X136735450Y-81925627D01*
X136731852Y-82023997D01*
X136729584Y-82145126D01*
X136728342Y-82292396D01*
X136727821Y-82469188D01*
X136727714Y-82678884D01*
X136727905Y-82842603D01*
X136728487Y-83003339D01*
X136729419Y-83149083D01*
X136730659Y-83276286D01*
X136732164Y-83381400D01*
X136733893Y-83460875D01*
X136735802Y-83511163D01*
X136737850Y-83528714D01*
X136744455Y-83525990D01*
X136773490Y-83506807D01*
X136814957Y-83475303D01*
X136875072Y-83432936D01*
X136988021Y-83370511D01*
X137117116Y-83314828D01*
X137250309Y-83271525D01*
X137362215Y-83249444D01*
X137501587Y-83235368D01*
X137652426Y-83230492D01*
X137803093Y-83234820D01*
X137941946Y-83248359D01*
X138057345Y-83271115D01*
X138174847Y-83309447D01*
X138370869Y-83402371D01*
X138552371Y-83525908D01*
X138716004Y-83677212D01*
X138858419Y-83853440D01*
X138976270Y-84051746D01*
X139005528Y-84112556D01*
X139087518Y-84317670D01*
X139151619Y-84540285D01*
X139198642Y-84784325D01*
X139229395Y-85053713D01*
X139244690Y-85352374D01*
X139245400Y-85409440D01*
X139247105Y-85546537D01*
G37*
X143347990Y-86117437D02*
X143339842Y-86263722D01*
X143322232Y-86399833D01*
X143295659Y-86513214D01*
X143253259Y-86629867D01*
X143154976Y-86822110D01*
X143029350Y-86991247D01*
X142877681Y-87136126D01*
X142701271Y-87255594D01*
X142501420Y-87348499D01*
X142279429Y-87413689D01*
X142188907Y-87428392D01*
X142059552Y-87438611D01*
X141918675Y-87440909D01*
X141778050Y-87435472D01*
X141649449Y-87422485D01*
X141544643Y-87402133D01*
X141491979Y-87386109D01*
X141372369Y-87339219D01*
X141250783Y-87279688D01*
X141139765Y-87213971D01*
X141051859Y-87148524D01*
X141050778Y-87147579D01*
X141002607Y-87106736D01*
X140965545Y-87077653D01*
X140947537Y-87066572D01*
X140945568Y-87069217D01*
X140941113Y-87097794D01*
X140938018Y-87151094D01*
X140936857Y-87220786D01*
X140936857Y-87375000D01*
X140256500Y-87375000D01*
X140238389Y-87374997D01*
X140086490Y-87374731D01*
X139947078Y-87374070D01*
X139824118Y-87373062D01*
X139721579Y-87371758D01*
X139643426Y-87370205D01*
X139593625Y-87368454D01*
X139576143Y-87366553D01*
X139576550Y-87364893D01*
X139587988Y-87340377D01*
X139611962Y-87294317D01*
X139644179Y-87235018D01*
X139712215Y-87111929D01*
X139722190Y-85896689D01*
X141009429Y-85896689D01*
X141009935Y-85992703D01*
X141012387Y-86093587D01*
X141017190Y-86166507D01*
X141024695Y-86216212D01*
X141035250Y-86247449D01*
X141048828Y-86269755D01*
X141099962Y-86330561D01*
X141168475Y-86393863D01*
X141243568Y-86450265D01*
X141314440Y-86490370D01*
X141353761Y-86505085D01*
X141444302Y-86524677D01*
X141562555Y-86534694D01*
X141687232Y-86533177D01*
X141805627Y-86512574D01*
X141904449Y-86470011D01*
X141989948Y-86403571D01*
X142014000Y-86378995D01*
X142076622Y-86295185D01*
X142110504Y-86204850D01*
X142120679Y-86096151D01*
X142117922Y-86038725D01*
X142090661Y-85920507D01*
X142033390Y-85819039D01*
X141945068Y-85733179D01*
X141824651Y-85661784D01*
X141671097Y-85603714D01*
X141609193Y-85588475D01*
X141534251Y-85578041D01*
X141439937Y-85572246D01*
X141317857Y-85570298D01*
X141298026Y-85570299D01*
X141206696Y-85571414D01*
X141128244Y-85574108D01*
X141070471Y-85578029D01*
X141041179Y-85582824D01*
X141037808Y-85584380D01*
X141026910Y-85594154D01*
X141019192Y-85613794D01*
X141014119Y-85648585D01*
X141011157Y-85703809D01*
X141009772Y-85784750D01*
X141009429Y-85896689D01*
X139722190Y-85896689D01*
X139722714Y-85832857D01*
X139724275Y-85646561D01*
X139726458Y-85408965D01*
X139728750Y-85202698D01*
X139731335Y-85024842D01*
X139734400Y-84872481D01*
X139738128Y-84742696D01*
X139742705Y-84632572D01*
X139748316Y-84539190D01*
X139755147Y-84459635D01*
X139763383Y-84390988D01*
X139773208Y-84330333D01*
X139784808Y-84274752D01*
X139798368Y-84221329D01*
X139814073Y-84167146D01*
X139832109Y-84109286D01*
X139903161Y-83927898D01*
X140000464Y-83760258D01*
X140121641Y-83616732D01*
X140267803Y-83496570D01*
X140440057Y-83399020D01*
X140639515Y-83323331D01*
X140867285Y-83268753D01*
X141124477Y-83234535D01*
X141214368Y-83227730D01*
X141365760Y-83222755D01*
X141515814Y-83227235D01*
X141671554Y-83241927D01*
X141840005Y-83267584D01*
X142028193Y-83304962D01*
X142243143Y-83354818D01*
X142292828Y-83366881D01*
X142417601Y-83396565D01*
X142535861Y-83423898D01*
X142640436Y-83447263D01*
X142724154Y-83465047D01*
X142779845Y-83475636D01*
X142908333Y-83496740D01*
X142727695Y-83934549D01*
X142682512Y-84043859D01*
X142638061Y-84150969D01*
X142599923Y-84242418D01*
X142569969Y-84313733D01*
X142550071Y-84360437D01*
X142542103Y-84378058D01*
X142540850Y-84378310D01*
X142517758Y-84370443D01*
X142472353Y-84350283D01*
X142412824Y-84321417D01*
X142289096Y-84265203D01*
X142118837Y-84203740D01*
X141944578Y-84156670D01*
X141773133Y-84125177D01*
X141611317Y-84110443D01*
X141465944Y-84113650D01*
X141343829Y-84135979D01*
X141258601Y-84171409D01*
X141161809Y-84244017D01*
X141087297Y-84342518D01*
X141037199Y-84463883D01*
X141013649Y-84605080D01*
X141005355Y-84735215D01*
X141438285Y-84736400D01*
X141584285Y-84737624D01*
X141745771Y-84741972D01*
X141883725Y-84750178D01*
X142005281Y-84763039D01*
X142117577Y-84781354D01*
X142227747Y-84805919D01*
X142342929Y-84837533D01*
X142515268Y-84897709D01*
X142717975Y-84996806D01*
X142895876Y-85118190D01*
X143047217Y-85260155D01*
X143170243Y-85420993D01*
X143263199Y-85598997D01*
X143324330Y-85792460D01*
X143333904Y-85844565D01*
X143346177Y-85973533D01*
X143347722Y-86096151D01*
X143347990Y-86117437D01*
G36*
X143347990Y-86117437D02*
G01*
X143339842Y-86263722D01*
X143322232Y-86399833D01*
X143295659Y-86513214D01*
X143253259Y-86629867D01*
X143154976Y-86822110D01*
X143029350Y-86991247D01*
X142877681Y-87136126D01*
X142701271Y-87255594D01*
X142501420Y-87348499D01*
X142279429Y-87413689D01*
X142188907Y-87428392D01*
X142059552Y-87438611D01*
X141918675Y-87440909D01*
X141778050Y-87435472D01*
X141649449Y-87422485D01*
X141544643Y-87402133D01*
X141491979Y-87386109D01*
X141372369Y-87339219D01*
X141250783Y-87279688D01*
X141139765Y-87213971D01*
X141051859Y-87148524D01*
X141050778Y-87147579D01*
X141002607Y-87106736D01*
X140965545Y-87077653D01*
X140947537Y-87066572D01*
X140945568Y-87069217D01*
X140941113Y-87097794D01*
X140938018Y-87151094D01*
X140936857Y-87220786D01*
X140936857Y-87375000D01*
X140256500Y-87375000D01*
X140238389Y-87374997D01*
X140086490Y-87374731D01*
X139947078Y-87374070D01*
X139824118Y-87373062D01*
X139721579Y-87371758D01*
X139643426Y-87370205D01*
X139593625Y-87368454D01*
X139576143Y-87366553D01*
X139576550Y-87364893D01*
X139587988Y-87340377D01*
X139611962Y-87294317D01*
X139644179Y-87235018D01*
X139712215Y-87111929D01*
X139722190Y-85896689D01*
X141009429Y-85896689D01*
X141009935Y-85992703D01*
X141012387Y-86093587D01*
X141017190Y-86166507D01*
X141024695Y-86216212D01*
X141035250Y-86247449D01*
X141048828Y-86269755D01*
X141099962Y-86330561D01*
X141168475Y-86393863D01*
X141243568Y-86450265D01*
X141314440Y-86490370D01*
X141353761Y-86505085D01*
X141444302Y-86524677D01*
X141562555Y-86534694D01*
X141687232Y-86533177D01*
X141805627Y-86512574D01*
X141904449Y-86470011D01*
X141989948Y-86403571D01*
X142014000Y-86378995D01*
X142076622Y-86295185D01*
X142110504Y-86204850D01*
X142120679Y-86096151D01*
X142117922Y-86038725D01*
X142090661Y-85920507D01*
X142033390Y-85819039D01*
X141945068Y-85733179D01*
X141824651Y-85661784D01*
X141671097Y-85603714D01*
X141609193Y-85588475D01*
X141534251Y-85578041D01*
X141439937Y-85572246D01*
X141317857Y-85570298D01*
X141298026Y-85570299D01*
X141206696Y-85571414D01*
X141128244Y-85574108D01*
X141070471Y-85578029D01*
X141041179Y-85582824D01*
X141037808Y-85584380D01*
X141026910Y-85594154D01*
X141019192Y-85613794D01*
X141014119Y-85648585D01*
X141011157Y-85703809D01*
X141009772Y-85784750D01*
X141009429Y-85896689D01*
X139722190Y-85896689D01*
X139722714Y-85832857D01*
X139724275Y-85646561D01*
X139726458Y-85408965D01*
X139728750Y-85202698D01*
X139731335Y-85024842D01*
X139734400Y-84872481D01*
X139738128Y-84742696D01*
X139742705Y-84632572D01*
X139748316Y-84539190D01*
X139755147Y-84459635D01*
X139763383Y-84390988D01*
X139773208Y-84330333D01*
X139784808Y-84274752D01*
X139798368Y-84221329D01*
X139814073Y-84167146D01*
X139832109Y-84109286D01*
X139903161Y-83927898D01*
X140000464Y-83760258D01*
X140121641Y-83616732D01*
X140267803Y-83496570D01*
X140440057Y-83399020D01*
X140639515Y-83323331D01*
X140867285Y-83268753D01*
X141124477Y-83234535D01*
X141214368Y-83227730D01*
X141365760Y-83222755D01*
X141515814Y-83227235D01*
X141671554Y-83241927D01*
X141840005Y-83267584D01*
X142028193Y-83304962D01*
X142243143Y-83354818D01*
X142292828Y-83366881D01*
X142417601Y-83396565D01*
X142535861Y-83423898D01*
X142640436Y-83447263D01*
X142724154Y-83465047D01*
X142779845Y-83475636D01*
X142908333Y-83496740D01*
X142727695Y-83934549D01*
X142682512Y-84043859D01*
X142638061Y-84150969D01*
X142599923Y-84242418D01*
X142569969Y-84313733D01*
X142550071Y-84360437D01*
X142542103Y-84378058D01*
X142540850Y-84378310D01*
X142517758Y-84370443D01*
X142472353Y-84350283D01*
X142412824Y-84321417D01*
X142289096Y-84265203D01*
X142118837Y-84203740D01*
X141944578Y-84156670D01*
X141773133Y-84125177D01*
X141611317Y-84110443D01*
X141465944Y-84113650D01*
X141343829Y-84135979D01*
X141258601Y-84171409D01*
X141161809Y-84244017D01*
X141087297Y-84342518D01*
X141037199Y-84463883D01*
X141013649Y-84605080D01*
X141005355Y-84735215D01*
X141438285Y-84736400D01*
X141584285Y-84737624D01*
X141745771Y-84741972D01*
X141883725Y-84750178D01*
X142005281Y-84763039D01*
X142117577Y-84781354D01*
X142227747Y-84805919D01*
X142342929Y-84837533D01*
X142515268Y-84897709D01*
X142717975Y-84996806D01*
X142895876Y-85118190D01*
X143047217Y-85260155D01*
X143170243Y-85420993D01*
X143263199Y-85598997D01*
X143324330Y-85792460D01*
X143333904Y-85844565D01*
X143346177Y-85973533D01*
X143347722Y-86096151D01*
X143347990Y-86117437D01*
G37*
X155519428Y-87410860D02*
X155517560Y-87551553D01*
X155515241Y-87672746D01*
X155512425Y-87775940D01*
X155509064Y-87862635D01*
X155505110Y-87934332D01*
X155500517Y-87992530D01*
X155495238Y-88038730D01*
X155489225Y-88074433D01*
X155482430Y-88101137D01*
X155474808Y-88120345D01*
X155466309Y-88133555D01*
X155456889Y-88142268D01*
X155446498Y-88147985D01*
X155435090Y-88152206D01*
X155422618Y-88156430D01*
X155409034Y-88162159D01*
X155401391Y-88165030D01*
X155387371Y-88168165D01*
X155366538Y-88171037D01*
X155337421Y-88173659D01*
X155298544Y-88176040D01*
X155248434Y-88178194D01*
X155185617Y-88180130D01*
X155108620Y-88181862D01*
X155015969Y-88183400D01*
X154906190Y-88184756D01*
X154777810Y-88185941D01*
X154629354Y-88186968D01*
X154459350Y-88187846D01*
X154266323Y-88188589D01*
X154048800Y-88189207D01*
X153805308Y-88189713D01*
X153534371Y-88190116D01*
X153234517Y-88190430D01*
X152904273Y-88190665D01*
X152542164Y-88190834D01*
X152146716Y-88190947D01*
X151716456Y-88191016D01*
X151580108Y-88191029D01*
X151159186Y-88191038D01*
X150772647Y-88190985D01*
X150419034Y-88190860D01*
X150096890Y-88190652D01*
X149804761Y-88190351D01*
X149541188Y-88189946D01*
X149304716Y-88189426D01*
X149093890Y-88188782D01*
X148907251Y-88188002D01*
X148743345Y-88187076D01*
X148600715Y-88185993D01*
X148477905Y-88184743D01*
X148373458Y-88183315D01*
X148285919Y-88181698D01*
X148213830Y-88179883D01*
X148155736Y-88177858D01*
X148110180Y-88175613D01*
X148075707Y-88173137D01*
X148050859Y-88170420D01*
X148034181Y-88167451D01*
X148024217Y-88164220D01*
X148021046Y-88162782D01*
X148008067Y-88158058D01*
X147996165Y-88154608D01*
X147985292Y-88150930D01*
X147975398Y-88145521D01*
X147966437Y-88136879D01*
X147958359Y-88123502D01*
X147951116Y-88103886D01*
X147944661Y-88076531D01*
X147938945Y-88039933D01*
X147933919Y-87992590D01*
X147929536Y-87933000D01*
X147925747Y-87859659D01*
X147922504Y-87771067D01*
X147919759Y-87665720D01*
X147917463Y-87542117D01*
X147915568Y-87398754D01*
X147914946Y-87332367D01*
X148393373Y-87332367D01*
X148393898Y-87338725D01*
X148403521Y-87343877D01*
X148425264Y-87347950D01*
X148462148Y-87351070D01*
X148517193Y-87353365D01*
X148593419Y-87354959D01*
X148693848Y-87355979D01*
X148821501Y-87356551D01*
X148979398Y-87356802D01*
X149170559Y-87356857D01*
X149971314Y-87356857D01*
X149903621Y-87234393D01*
X149835929Y-87111929D01*
X149835929Y-83555929D01*
X149903621Y-83433465D01*
X149971314Y-83311000D01*
X148539993Y-83311000D01*
X148534818Y-85193322D01*
X148529643Y-87075643D01*
X148478903Y-87184008D01*
X148452151Y-87237719D01*
X148421860Y-87291524D01*
X148398984Y-87324615D01*
X148398926Y-87324679D01*
X148393373Y-87332367D01*
X147914946Y-87332367D01*
X147914026Y-87234129D01*
X147912789Y-87046740D01*
X147911808Y-86835085D01*
X147911035Y-86597661D01*
X147910422Y-86332966D01*
X147909921Y-86039498D01*
X147909484Y-85715753D01*
X147909061Y-85360230D01*
X147908605Y-84971426D01*
X147908068Y-84547840D01*
X147907999Y-84496560D01*
X147907400Y-84075657D01*
X147906827Y-83689362D01*
X147906323Y-83336172D01*
X147905930Y-83014584D01*
X147905690Y-82723094D01*
X147905646Y-82460200D01*
X147905840Y-82224398D01*
X147906314Y-82014186D01*
X147907112Y-81828060D01*
X147908274Y-81664517D01*
X147909844Y-81522055D01*
X147911864Y-81399170D01*
X147914377Y-81294359D01*
X147917424Y-81206119D01*
X147921049Y-81132947D01*
X147925293Y-81073340D01*
X147930198Y-81025795D01*
X147935808Y-80988808D01*
X147942165Y-80960878D01*
X147949311Y-80940500D01*
X147957288Y-80926171D01*
X147966139Y-80916390D01*
X147975906Y-80909651D01*
X147986632Y-80904454D01*
X147998358Y-80899293D01*
X148011128Y-80892667D01*
X148014865Y-80890556D01*
X148071405Y-80870118D01*
X148133300Y-80861717D01*
X148203072Y-80861720D01*
X148204234Y-81020467D01*
X148204529Y-81038735D01*
X148226706Y-81224427D01*
X148283188Y-81399147D01*
X148373192Y-81561043D01*
X148495932Y-81708265D01*
X148561798Y-81768311D01*
X148708454Y-81867838D01*
X148868470Y-81937242D01*
X149037185Y-81976487D01*
X149209939Y-81985537D01*
X149382072Y-81964353D01*
X149548922Y-81912899D01*
X149686080Y-81841429D01*
X150293127Y-81841429D01*
X150372957Y-81898862D01*
X150440470Y-81952841D01*
X150535603Y-82040886D01*
X150643507Y-82151230D01*
X150760097Y-82279670D01*
X150881285Y-82422000D01*
X150912494Y-82460062D01*
X150965629Y-82525343D01*
X151035083Y-82610988D01*
X151118556Y-82714140D01*
X151213746Y-82831939D01*
X151318354Y-82961528D01*
X151430077Y-83100047D01*
X151546615Y-83244639D01*
X151600067Y-83311000D01*
X151665667Y-83392444D01*
X151784932Y-83540603D01*
X151902109Y-83686260D01*
X152014896Y-83826554D01*
X152120994Y-83958627D01*
X152218101Y-84079621D01*
X152303916Y-84186678D01*
X152376138Y-84276938D01*
X152432466Y-84347543D01*
X152470599Y-84395635D01*
X152488237Y-84418355D01*
X152489692Y-84426893D01*
X152484850Y-84443132D01*
X152472302Y-84468679D01*
X152450797Y-84505347D01*
X152419080Y-84554949D01*
X152375900Y-84619295D01*
X152320005Y-84700198D01*
X152250141Y-84799471D01*
X152165057Y-84918926D01*
X152063499Y-85060374D01*
X151944216Y-85225629D01*
X151805954Y-85416501D01*
X151647462Y-85634804D01*
X151521177Y-85808571D01*
X151367105Y-86020407D01*
X151231580Y-86206440D01*
X151113024Y-86368734D01*
X151009861Y-86509354D01*
X150920515Y-86630365D01*
X150843411Y-86733832D01*
X150776972Y-86821818D01*
X150719623Y-86896390D01*
X150669786Y-86959610D01*
X150625886Y-87013545D01*
X150586347Y-87060258D01*
X150549593Y-87101814D01*
X150514047Y-87140279D01*
X150478135Y-87177715D01*
X150440278Y-87216189D01*
X150300771Y-87356857D01*
X152176357Y-87356933D01*
X152170464Y-87243275D01*
X152170179Y-87237564D01*
X152169060Y-87192127D01*
X152171181Y-87148593D01*
X152177958Y-87104576D01*
X152190812Y-87057693D01*
X152211160Y-87005558D01*
X152240420Y-86945786D01*
X152280012Y-86875994D01*
X152331353Y-86793797D01*
X152395862Y-86696809D01*
X152474957Y-86582647D01*
X152570057Y-86448925D01*
X152682581Y-86293260D01*
X152813946Y-86113265D01*
X152965572Y-85906557D01*
X153500786Y-85177911D01*
X153505501Y-86022755D01*
X153505919Y-86101562D01*
X153506656Y-86313832D01*
X153506321Y-86494381D01*
X153504519Y-86646628D01*
X153500856Y-86773988D01*
X153494936Y-86879878D01*
X153486367Y-86967715D01*
X153474751Y-87040916D01*
X153459697Y-87102898D01*
X153440807Y-87157076D01*
X153417689Y-87206869D01*
X153389947Y-87255693D01*
X153357187Y-87306964D01*
X153324256Y-87356857D01*
X155035704Y-87356857D01*
X154991496Y-87297893D01*
X154984572Y-87288565D01*
X154929221Y-87203070D01*
X154891064Y-87116644D01*
X154866008Y-87017613D01*
X154849959Y-86894304D01*
X154849518Y-86888929D01*
X154847189Y-86838067D01*
X154845087Y-86753206D01*
X154843219Y-86636286D01*
X154841596Y-86489246D01*
X154840227Y-86314026D01*
X154839120Y-86112563D01*
X154838285Y-85886798D01*
X154837732Y-85638669D01*
X154837468Y-85370115D01*
X154837503Y-85083077D01*
X154837847Y-84779492D01*
X154838508Y-84461300D01*
X154839209Y-84175881D01*
X154839958Y-83865196D01*
X154840696Y-83587226D01*
X154841515Y-83340022D01*
X154842507Y-83121637D01*
X154843766Y-82930125D01*
X154845383Y-82763537D01*
X154847452Y-82619925D01*
X154850065Y-82497344D01*
X154853315Y-82393844D01*
X154857293Y-82307479D01*
X154862094Y-82236301D01*
X154867809Y-82178363D01*
X154874532Y-82131717D01*
X154882354Y-82094416D01*
X154891368Y-82064512D01*
X154901667Y-82040058D01*
X154913344Y-82019106D01*
X154926492Y-81999709D01*
X154941202Y-81979920D01*
X154957567Y-81957791D01*
X154973396Y-81935615D01*
X155003991Y-81891769D01*
X155022317Y-81864107D01*
X155022759Y-81862949D01*
X155016360Y-81857718D01*
X154993779Y-81853353D01*
X154952502Y-81849788D01*
X154890017Y-81846954D01*
X154803812Y-81844787D01*
X154691373Y-81843217D01*
X154550188Y-81842179D01*
X154377745Y-81841605D01*
X154171530Y-81841429D01*
X153307060Y-81841429D01*
X153352621Y-81895574D01*
X153379026Y-81932763D01*
X153422978Y-82020446D01*
X153461495Y-82129499D01*
X153490893Y-82250468D01*
X153492766Y-82261952D01*
X153498341Y-82322492D01*
X153502563Y-82416056D01*
X153505443Y-82543292D01*
X153506992Y-82704846D01*
X153507221Y-82901368D01*
X153506143Y-83133504D01*
X153500786Y-83908508D01*
X152947429Y-83208742D01*
X152931579Y-83188698D01*
X152791253Y-83011052D01*
X152671453Y-82858914D01*
X152570270Y-82729698D01*
X152485800Y-82620817D01*
X152416135Y-82529685D01*
X152359368Y-82453714D01*
X152313594Y-82390317D01*
X152276906Y-82336908D01*
X152247396Y-82290901D01*
X152223159Y-82249707D01*
X152202288Y-82210741D01*
X152182877Y-82171415D01*
X152153015Y-82101805D01*
X152133724Y-82028372D01*
X152128592Y-81949165D01*
X152129108Y-81841429D01*
X150293127Y-81841429D01*
X149686080Y-81841429D01*
X149705830Y-81831138D01*
X149848136Y-81719032D01*
X149887695Y-81679510D01*
X150004620Y-81533175D01*
X150087588Y-81374367D01*
X150137043Y-81202063D01*
X150153429Y-81015238D01*
X150153429Y-80861715D01*
X152757830Y-80861714D01*
X152920540Y-80861707D01*
X153270089Y-80861660D01*
X153585856Y-80861626D01*
X153869588Y-80861673D01*
X154123031Y-80861872D01*
X154347931Y-80862291D01*
X154546034Y-80862998D01*
X154719087Y-80864065D01*
X154868835Y-80865558D01*
X154997025Y-80867547D01*
X155105403Y-80870102D01*
X155195715Y-80873291D01*
X155269707Y-80877183D01*
X155329125Y-80881848D01*
X155375716Y-80887354D01*
X155411226Y-80893771D01*
X155437400Y-80901167D01*
X155455986Y-80909611D01*
X155468728Y-80919173D01*
X155477374Y-80929922D01*
X155483670Y-80941926D01*
X155489360Y-80955255D01*
X155496193Y-80969978D01*
X155496316Y-80970218D01*
X155499633Y-80979856D01*
X155502676Y-80995993D01*
X155505456Y-81020121D01*
X155507985Y-81053727D01*
X155510274Y-81098301D01*
X155512334Y-81155333D01*
X155514179Y-81226311D01*
X155515817Y-81312725D01*
X155517263Y-81416064D01*
X155518526Y-81537818D01*
X155519619Y-81679475D01*
X155520553Y-81842526D01*
X155521340Y-82028458D01*
X155521991Y-82238762D01*
X155522517Y-82474927D01*
X155522931Y-82738442D01*
X155523244Y-83030797D01*
X155523467Y-83353480D01*
X155523612Y-83707981D01*
X155523691Y-84095789D01*
X155523714Y-84518393D01*
X155523715Y-84601414D01*
X155523755Y-85019614D01*
X155523817Y-85403313D01*
X155523854Y-85754009D01*
X155523817Y-86073204D01*
X155523662Y-86362398D01*
X155523339Y-86623091D01*
X155522801Y-86856784D01*
X155522001Y-87064976D01*
X155520892Y-87249168D01*
X155519916Y-87356857D01*
X155519428Y-87410860D01*
G36*
X155519428Y-87410860D02*
G01*
X155517560Y-87551553D01*
X155515241Y-87672746D01*
X155512425Y-87775940D01*
X155509064Y-87862635D01*
X155505110Y-87934332D01*
X155500517Y-87992530D01*
X155495238Y-88038730D01*
X155489225Y-88074433D01*
X155482430Y-88101137D01*
X155474808Y-88120345D01*
X155466309Y-88133555D01*
X155456889Y-88142268D01*
X155446498Y-88147985D01*
X155435090Y-88152206D01*
X155422618Y-88156430D01*
X155409034Y-88162159D01*
X155401391Y-88165030D01*
X155387371Y-88168165D01*
X155366538Y-88171037D01*
X155337421Y-88173659D01*
X155298544Y-88176040D01*
X155248434Y-88178194D01*
X155185617Y-88180130D01*
X155108620Y-88181862D01*
X155015969Y-88183400D01*
X154906190Y-88184756D01*
X154777810Y-88185941D01*
X154629354Y-88186968D01*
X154459350Y-88187846D01*
X154266323Y-88188589D01*
X154048800Y-88189207D01*
X153805308Y-88189713D01*
X153534371Y-88190116D01*
X153234517Y-88190430D01*
X152904273Y-88190665D01*
X152542164Y-88190834D01*
X152146716Y-88190947D01*
X151716456Y-88191016D01*
X151580108Y-88191029D01*
X151159186Y-88191038D01*
X150772647Y-88190985D01*
X150419034Y-88190860D01*
X150096890Y-88190652D01*
X149804761Y-88190351D01*
X149541188Y-88189946D01*
X149304716Y-88189426D01*
X149093890Y-88188782D01*
X148907251Y-88188002D01*
X148743345Y-88187076D01*
X148600715Y-88185993D01*
X148477905Y-88184743D01*
X148373458Y-88183315D01*
X148285919Y-88181698D01*
X148213830Y-88179883D01*
X148155736Y-88177858D01*
X148110180Y-88175613D01*
X148075707Y-88173137D01*
X148050859Y-88170420D01*
X148034181Y-88167451D01*
X148024217Y-88164220D01*
X148021046Y-88162782D01*
X148008067Y-88158058D01*
X147996165Y-88154608D01*
X147985292Y-88150930D01*
X147975398Y-88145521D01*
X147966437Y-88136879D01*
X147958359Y-88123502D01*
X147951116Y-88103886D01*
X147944661Y-88076531D01*
X147938945Y-88039933D01*
X147933919Y-87992590D01*
X147929536Y-87933000D01*
X147925747Y-87859659D01*
X147922504Y-87771067D01*
X147919759Y-87665720D01*
X147917463Y-87542117D01*
X147915568Y-87398754D01*
X147914946Y-87332367D01*
X148393373Y-87332367D01*
X148393898Y-87338725D01*
X148403521Y-87343877D01*
X148425264Y-87347950D01*
X148462148Y-87351070D01*
X148517193Y-87353365D01*
X148593419Y-87354959D01*
X148693848Y-87355979D01*
X148821501Y-87356551D01*
X148979398Y-87356802D01*
X149170559Y-87356857D01*
X149971314Y-87356857D01*
X149903621Y-87234393D01*
X149835929Y-87111929D01*
X149835929Y-83555929D01*
X149903621Y-83433465D01*
X149971314Y-83311000D01*
X148539993Y-83311000D01*
X148534818Y-85193322D01*
X148529643Y-87075643D01*
X148478903Y-87184008D01*
X148452151Y-87237719D01*
X148421860Y-87291524D01*
X148398984Y-87324615D01*
X148398926Y-87324679D01*
X148393373Y-87332367D01*
X147914946Y-87332367D01*
X147914026Y-87234129D01*
X147912789Y-87046740D01*
X147911808Y-86835085D01*
X147911035Y-86597661D01*
X147910422Y-86332966D01*
X147909921Y-86039498D01*
X147909484Y-85715753D01*
X147909061Y-85360230D01*
X147908605Y-84971426D01*
X147908068Y-84547840D01*
X147907999Y-84496560D01*
X147907400Y-84075657D01*
X147906827Y-83689362D01*
X147906323Y-83336172D01*
X147905930Y-83014584D01*
X147905690Y-82723094D01*
X147905646Y-82460200D01*
X147905840Y-82224398D01*
X147906314Y-82014186D01*
X147907112Y-81828060D01*
X147908274Y-81664517D01*
X147909844Y-81522055D01*
X147911864Y-81399170D01*
X147914377Y-81294359D01*
X147917424Y-81206119D01*
X147921049Y-81132947D01*
X147925293Y-81073340D01*
X147930198Y-81025795D01*
X147935808Y-80988808D01*
X147942165Y-80960878D01*
X147949311Y-80940500D01*
X147957288Y-80926171D01*
X147966139Y-80916390D01*
X147975906Y-80909651D01*
X147986632Y-80904454D01*
X147998358Y-80899293D01*
X148011128Y-80892667D01*
X148014865Y-80890556D01*
X148071405Y-80870118D01*
X148133300Y-80861717D01*
X148203072Y-80861720D01*
X148204234Y-81020467D01*
X148204529Y-81038735D01*
X148226706Y-81224427D01*
X148283188Y-81399147D01*
X148373192Y-81561043D01*
X148495932Y-81708265D01*
X148561798Y-81768311D01*
X148708454Y-81867838D01*
X148868470Y-81937242D01*
X149037185Y-81976487D01*
X149209939Y-81985537D01*
X149382072Y-81964353D01*
X149548922Y-81912899D01*
X149686080Y-81841429D01*
X150293127Y-81841429D01*
X150372957Y-81898862D01*
X150440470Y-81952841D01*
X150535603Y-82040886D01*
X150643507Y-82151230D01*
X150760097Y-82279670D01*
X150881285Y-82422000D01*
X150912494Y-82460062D01*
X150965629Y-82525343D01*
X151035083Y-82610988D01*
X151118556Y-82714140D01*
X151213746Y-82831939D01*
X151318354Y-82961528D01*
X151430077Y-83100047D01*
X151546615Y-83244639D01*
X151600067Y-83311000D01*
X151665667Y-83392444D01*
X151784932Y-83540603D01*
X151902109Y-83686260D01*
X152014896Y-83826554D01*
X152120994Y-83958627D01*
X152218101Y-84079621D01*
X152303916Y-84186678D01*
X152376138Y-84276938D01*
X152432466Y-84347543D01*
X152470599Y-84395635D01*
X152488237Y-84418355D01*
X152489692Y-84426893D01*
X152484850Y-84443132D01*
X152472302Y-84468679D01*
X152450797Y-84505347D01*
X152419080Y-84554949D01*
X152375900Y-84619295D01*
X152320005Y-84700198D01*
X152250141Y-84799471D01*
X152165057Y-84918926D01*
X152063499Y-85060374D01*
X151944216Y-85225629D01*
X151805954Y-85416501D01*
X151647462Y-85634804D01*
X151521177Y-85808571D01*
X151367105Y-86020407D01*
X151231580Y-86206440D01*
X151113024Y-86368734D01*
X151009861Y-86509354D01*
X150920515Y-86630365D01*
X150843411Y-86733832D01*
X150776972Y-86821818D01*
X150719623Y-86896390D01*
X150669786Y-86959610D01*
X150625886Y-87013545D01*
X150586347Y-87060258D01*
X150549593Y-87101814D01*
X150514047Y-87140279D01*
X150478135Y-87177715D01*
X150440278Y-87216189D01*
X150300771Y-87356857D01*
X152176357Y-87356933D01*
X152170464Y-87243275D01*
X152170179Y-87237564D01*
X152169060Y-87192127D01*
X152171181Y-87148593D01*
X152177958Y-87104576D01*
X152190812Y-87057693D01*
X152211160Y-87005558D01*
X152240420Y-86945786D01*
X152280012Y-86875994D01*
X152331353Y-86793797D01*
X152395862Y-86696809D01*
X152474957Y-86582647D01*
X152570057Y-86448925D01*
X152682581Y-86293260D01*
X152813946Y-86113265D01*
X152965572Y-85906557D01*
X153500786Y-85177911D01*
X153505501Y-86022755D01*
X153505919Y-86101562D01*
X153506656Y-86313832D01*
X153506321Y-86494381D01*
X153504519Y-86646628D01*
X153500856Y-86773988D01*
X153494936Y-86879878D01*
X153486367Y-86967715D01*
X153474751Y-87040916D01*
X153459697Y-87102898D01*
X153440807Y-87157076D01*
X153417689Y-87206869D01*
X153389947Y-87255693D01*
X153357187Y-87306964D01*
X153324256Y-87356857D01*
X155035704Y-87356857D01*
X154991496Y-87297893D01*
X154984572Y-87288565D01*
X154929221Y-87203070D01*
X154891064Y-87116644D01*
X154866008Y-87017613D01*
X154849959Y-86894304D01*
X154849518Y-86888929D01*
X154847189Y-86838067D01*
X154845087Y-86753206D01*
X154843219Y-86636286D01*
X154841596Y-86489246D01*
X154840227Y-86314026D01*
X154839120Y-86112563D01*
X154838285Y-85886798D01*
X154837732Y-85638669D01*
X154837468Y-85370115D01*
X154837503Y-85083077D01*
X154837847Y-84779492D01*
X154838508Y-84461300D01*
X154839209Y-84175881D01*
X154839958Y-83865196D01*
X154840696Y-83587226D01*
X154841515Y-83340022D01*
X154842507Y-83121637D01*
X154843766Y-82930125D01*
X154845383Y-82763537D01*
X154847452Y-82619925D01*
X154850065Y-82497344D01*
X154853315Y-82393844D01*
X154857293Y-82307479D01*
X154862094Y-82236301D01*
X154867809Y-82178363D01*
X154874532Y-82131717D01*
X154882354Y-82094416D01*
X154891368Y-82064512D01*
X154901667Y-82040058D01*
X154913344Y-82019106D01*
X154926492Y-81999709D01*
X154941202Y-81979920D01*
X154957567Y-81957791D01*
X154973396Y-81935615D01*
X155003991Y-81891769D01*
X155022317Y-81864107D01*
X155022759Y-81862949D01*
X155016360Y-81857718D01*
X154993779Y-81853353D01*
X154952502Y-81849788D01*
X154890017Y-81846954D01*
X154803812Y-81844787D01*
X154691373Y-81843217D01*
X154550188Y-81842179D01*
X154377745Y-81841605D01*
X154171530Y-81841429D01*
X153307060Y-81841429D01*
X153352621Y-81895574D01*
X153379026Y-81932763D01*
X153422978Y-82020446D01*
X153461495Y-82129499D01*
X153490893Y-82250468D01*
X153492766Y-82261952D01*
X153498341Y-82322492D01*
X153502563Y-82416056D01*
X153505443Y-82543292D01*
X153506992Y-82704846D01*
X153507221Y-82901368D01*
X153506143Y-83133504D01*
X153500786Y-83908508D01*
X152947429Y-83208742D01*
X152931579Y-83188698D01*
X152791253Y-83011052D01*
X152671453Y-82858914D01*
X152570270Y-82729698D01*
X152485800Y-82620817D01*
X152416135Y-82529685D01*
X152359368Y-82453714D01*
X152313594Y-82390317D01*
X152276906Y-82336908D01*
X152247396Y-82290901D01*
X152223159Y-82249707D01*
X152202288Y-82210741D01*
X152182877Y-82171415D01*
X152153015Y-82101805D01*
X152133724Y-82028372D01*
X152128592Y-81949165D01*
X152129108Y-81841429D01*
X150293127Y-81841429D01*
X149686080Y-81841429D01*
X149705830Y-81831138D01*
X149848136Y-81719032D01*
X149887695Y-81679510D01*
X150004620Y-81533175D01*
X150087588Y-81374367D01*
X150137043Y-81202063D01*
X150153429Y-81015238D01*
X150153429Y-80861715D01*
X152757830Y-80861714D01*
X152920540Y-80861707D01*
X153270089Y-80861660D01*
X153585856Y-80861626D01*
X153869588Y-80861673D01*
X154123031Y-80861872D01*
X154347931Y-80862291D01*
X154546034Y-80862998D01*
X154719087Y-80864065D01*
X154868835Y-80865558D01*
X154997025Y-80867547D01*
X155105403Y-80870102D01*
X155195715Y-80873291D01*
X155269707Y-80877183D01*
X155329125Y-80881848D01*
X155375716Y-80887354D01*
X155411226Y-80893771D01*
X155437400Y-80901167D01*
X155455986Y-80909611D01*
X155468728Y-80919173D01*
X155477374Y-80929922D01*
X155483670Y-80941926D01*
X155489360Y-80955255D01*
X155496193Y-80969978D01*
X155496316Y-80970218D01*
X155499633Y-80979856D01*
X155502676Y-80995993D01*
X155505456Y-81020121D01*
X155507985Y-81053727D01*
X155510274Y-81098301D01*
X155512334Y-81155333D01*
X155514179Y-81226311D01*
X155515817Y-81312725D01*
X155517263Y-81416064D01*
X155518526Y-81537818D01*
X155519619Y-81679475D01*
X155520553Y-81842526D01*
X155521340Y-82028458D01*
X155521991Y-82238762D01*
X155522517Y-82474927D01*
X155522931Y-82738442D01*
X155523244Y-83030797D01*
X155523467Y-83353480D01*
X155523612Y-83707981D01*
X155523691Y-84095789D01*
X155523714Y-84518393D01*
X155523715Y-84601414D01*
X155523755Y-85019614D01*
X155523817Y-85403313D01*
X155523854Y-85754009D01*
X155523817Y-86073204D01*
X155523662Y-86362398D01*
X155523339Y-86623091D01*
X155522801Y-86856784D01*
X155522001Y-87064976D01*
X155520892Y-87249168D01*
X155519916Y-87356857D01*
X155519428Y-87410860D01*
G37*
X152476913Y-64972952D02*
X152545033Y-65002431D01*
X152608866Y-65050098D01*
X152653012Y-65105839D01*
X152663218Y-65129193D01*
X152680282Y-65217619D01*
X152673524Y-65311501D01*
X152643560Y-65392167D01*
X152621046Y-65425714D01*
X152588788Y-65459687D01*
X152547754Y-65483919D01*
X152491892Y-65500001D01*
X152415149Y-65509521D01*
X152311475Y-65514068D01*
X152174816Y-65515231D01*
X152104195Y-65515003D01*
X152007692Y-65513860D01*
X151930677Y-65511919D01*
X151879681Y-65509365D01*
X151861231Y-65506381D01*
X151867333Y-65486962D01*
X151883905Y-65447766D01*
X151884442Y-65446589D01*
X151895097Y-65426235D01*
X151909718Y-65412546D01*
X151935327Y-65404199D01*
X151978946Y-65399874D01*
X152047597Y-65398248D01*
X152148302Y-65398000D01*
X152212187Y-65397500D01*
X152332249Y-65392164D01*
X152420191Y-65379945D01*
X152480625Y-65359552D01*
X152518164Y-65329695D01*
X152537419Y-65289082D01*
X152538761Y-65283448D01*
X152539809Y-65207378D01*
X152505729Y-65148052D01*
X152437402Y-65107077D01*
X152417649Y-65099770D01*
X152373934Y-65083114D01*
X152353845Y-65074679D01*
X152356613Y-65057356D01*
X152371635Y-65019525D01*
X152396444Y-64984240D01*
X152443330Y-64968154D01*
X152476913Y-64972952D01*
G36*
X152476913Y-64972952D02*
G01*
X152545033Y-65002431D01*
X152608866Y-65050098D01*
X152653012Y-65105839D01*
X152663218Y-65129193D01*
X152680282Y-65217619D01*
X152673524Y-65311501D01*
X152643560Y-65392167D01*
X152621046Y-65425714D01*
X152588788Y-65459687D01*
X152547754Y-65483919D01*
X152491892Y-65500001D01*
X152415149Y-65509521D01*
X152311475Y-65514068D01*
X152174816Y-65515231D01*
X152104195Y-65515003D01*
X152007692Y-65513860D01*
X151930677Y-65511919D01*
X151879681Y-65509365D01*
X151861231Y-65506381D01*
X151867333Y-65486962D01*
X151883905Y-65447766D01*
X151884442Y-65446589D01*
X151895097Y-65426235D01*
X151909718Y-65412546D01*
X151935327Y-65404199D01*
X151978946Y-65399874D01*
X152047597Y-65398248D01*
X152148302Y-65398000D01*
X152212187Y-65397500D01*
X152332249Y-65392164D01*
X152420191Y-65379945D01*
X152480625Y-65359552D01*
X152518164Y-65329695D01*
X152537419Y-65289082D01*
X152538761Y-65283448D01*
X152539809Y-65207378D01*
X152505729Y-65148052D01*
X152437402Y-65107077D01*
X152417649Y-65099770D01*
X152373934Y-65083114D01*
X152353845Y-65074679D01*
X152356613Y-65057356D01*
X152371635Y-65019525D01*
X152396444Y-64984240D01*
X152443330Y-64968154D01*
X152476913Y-64972952D01*
G37*
X152293081Y-70243883D02*
X152404569Y-70246847D01*
X152487579Y-70254351D01*
X152548801Y-70268190D01*
X152594925Y-70290155D01*
X152632642Y-70322039D01*
X152668642Y-70365633D01*
X152704911Y-70428336D01*
X152728588Y-70527117D01*
X152718316Y-70626372D01*
X152675431Y-70717629D01*
X152601271Y-70792416D01*
X152578056Y-70807917D01*
X152551744Y-70820774D01*
X152518580Y-70829893D01*
X152472119Y-70836102D01*
X152405918Y-70840233D01*
X152313532Y-70843116D01*
X152188515Y-70845579D01*
X151841722Y-70851697D01*
X151861262Y-70800303D01*
X151879213Y-70753246D01*
X151896489Y-70718015D01*
X151918758Y-70695017D01*
X151952835Y-70681655D01*
X152005537Y-70675328D01*
X152083677Y-70673437D01*
X152194072Y-70673385D01*
X152282065Y-70673117D01*
X152366498Y-70671521D01*
X152424166Y-70667712D01*
X152462012Y-70660820D01*
X152486976Y-70649975D01*
X152506000Y-70634308D01*
X152532847Y-70595792D01*
X152542966Y-70531091D01*
X152517394Y-70467081D01*
X152514120Y-70462856D01*
X152498993Y-70449689D01*
X152474732Y-70439975D01*
X152435350Y-70432903D01*
X152374859Y-70427656D01*
X152287271Y-70423421D01*
X152166598Y-70419385D01*
X151843485Y-70409615D01*
X151917935Y-70243539D01*
X152212938Y-70243539D01*
X152293081Y-70243883D01*
G36*
X152293081Y-70243883D02*
G01*
X152404569Y-70246847D01*
X152487579Y-70254351D01*
X152548801Y-70268190D01*
X152594925Y-70290155D01*
X152632642Y-70322039D01*
X152668642Y-70365633D01*
X152704911Y-70428336D01*
X152728588Y-70527117D01*
X152718316Y-70626372D01*
X152675431Y-70717629D01*
X152601271Y-70792416D01*
X152578056Y-70807917D01*
X152551744Y-70820774D01*
X152518580Y-70829893D01*
X152472119Y-70836102D01*
X152405918Y-70840233D01*
X152313532Y-70843116D01*
X152188515Y-70845579D01*
X151841722Y-70851697D01*
X151861262Y-70800303D01*
X151879213Y-70753246D01*
X151896489Y-70718015D01*
X151918758Y-70695017D01*
X151952835Y-70681655D01*
X152005537Y-70675328D01*
X152083677Y-70673437D01*
X152194072Y-70673385D01*
X152282065Y-70673117D01*
X152366498Y-70671521D01*
X152424166Y-70667712D01*
X152462012Y-70660820D01*
X152486976Y-70649975D01*
X152506000Y-70634308D01*
X152532847Y-70595792D01*
X152542966Y-70531091D01*
X152517394Y-70467081D01*
X152514120Y-70462856D01*
X152498993Y-70449689D01*
X152474732Y-70439975D01*
X152435350Y-70432903D01*
X152374859Y-70427656D01*
X152287271Y-70423421D01*
X152166598Y-70419385D01*
X151843485Y-70409615D01*
X151917935Y-70243539D01*
X152212938Y-70243539D01*
X152293081Y-70243883D01*
G37*
X152543872Y-67797856D02*
X152584650Y-67825978D01*
X152642579Y-67897883D01*
X152675330Y-67986638D01*
X152679788Y-68081542D01*
X152652833Y-68171892D01*
X152649419Y-68178060D01*
X152610308Y-68228447D01*
X152560025Y-68273498D01*
X152548661Y-68281355D01*
X152522140Y-68296376D01*
X152490664Y-68307107D01*
X152447409Y-68314486D01*
X152385551Y-68319452D01*
X152298267Y-68322942D01*
X152178731Y-68325893D01*
X152158522Y-68326311D01*
X152027501Y-68327654D01*
X151934704Y-68325761D01*
X151879493Y-68320605D01*
X151861231Y-68312158D01*
X151866699Y-68286594D01*
X151883267Y-68243166D01*
X151888112Y-68232940D01*
X151899080Y-68216967D01*
X151917110Y-68205954D01*
X151948604Y-68198750D01*
X151999964Y-68194208D01*
X152077590Y-68191180D01*
X152187885Y-68188516D01*
X152220125Y-68187785D01*
X152321950Y-68184965D01*
X152393212Y-68181304D01*
X152440668Y-68175694D01*
X152471075Y-68167029D01*
X152491190Y-68154202D01*
X152507771Y-68136105D01*
X152536839Y-68082525D01*
X152542436Y-68016612D01*
X152520193Y-67957635D01*
X152474141Y-67915203D01*
X152408308Y-67898923D01*
X152390413Y-67898470D01*
X152358018Y-67889578D01*
X152353075Y-67863325D01*
X152372367Y-67811919D01*
X152378554Y-67800013D01*
X152414942Y-67767835D01*
X152469046Y-67767198D01*
X152543872Y-67797856D01*
G36*
X152543872Y-67797856D02*
G01*
X152584650Y-67825978D01*
X152642579Y-67897883D01*
X152675330Y-67986638D01*
X152679788Y-68081542D01*
X152652833Y-68171892D01*
X152649419Y-68178060D01*
X152610308Y-68228447D01*
X152560025Y-68273498D01*
X152548661Y-68281355D01*
X152522140Y-68296376D01*
X152490664Y-68307107D01*
X152447409Y-68314486D01*
X152385551Y-68319452D01*
X152298267Y-68322942D01*
X152178731Y-68325893D01*
X152158522Y-68326311D01*
X152027501Y-68327654D01*
X151934704Y-68325761D01*
X151879493Y-68320605D01*
X151861231Y-68312158D01*
X151866699Y-68286594D01*
X151883267Y-68243166D01*
X151888112Y-68232940D01*
X151899080Y-68216967D01*
X151917110Y-68205954D01*
X151948604Y-68198750D01*
X151999964Y-68194208D01*
X152077590Y-68191180D01*
X152187885Y-68188516D01*
X152220125Y-68187785D01*
X152321950Y-68184965D01*
X152393212Y-68181304D01*
X152440668Y-68175694D01*
X152471075Y-68167029D01*
X152491190Y-68154202D01*
X152507771Y-68136105D01*
X152536839Y-68082525D01*
X152542436Y-68016612D01*
X152520193Y-67957635D01*
X152474141Y-67915203D01*
X152408308Y-67898923D01*
X152390413Y-67898470D01*
X152358018Y-67889578D01*
X152353075Y-67863325D01*
X152372367Y-67811919D01*
X152378554Y-67800013D01*
X152414942Y-67767835D01*
X152469046Y-67767198D01*
X152543872Y-67797856D01*
G37*
X152180642Y-69110338D02*
X152205258Y-69110384D01*
X152333581Y-69112970D01*
X152430616Y-69120913D01*
X152502943Y-69136155D01*
X152557145Y-69160636D01*
X152599802Y-69196298D01*
X152637495Y-69245082D01*
X152661090Y-69292661D01*
X152679328Y-69368732D01*
X152680364Y-69443556D01*
X152662622Y-69501077D01*
X152660171Y-69505402D01*
X152660434Y-69518738D01*
X152680961Y-69527851D01*
X152728020Y-69534428D01*
X152807880Y-69540154D01*
X152971764Y-69549923D01*
X152918194Y-69676923D01*
X152383545Y-69676923D01*
X152244906Y-69676660D01*
X152120195Y-69675958D01*
X152014443Y-69674883D01*
X151932678Y-69673500D01*
X151879931Y-69671874D01*
X151861231Y-69670070D01*
X151861294Y-69669364D01*
X151868088Y-69645387D01*
X151882680Y-69601685D01*
X151904130Y-69540154D01*
X152179383Y-69540154D01*
X152287534Y-69539763D01*
X152365974Y-69537946D01*
X152419353Y-69533767D01*
X152454744Y-69526286D01*
X152479221Y-69514567D01*
X152499856Y-69497671D01*
X152510830Y-69486152D01*
X152541225Y-69423864D01*
X152538534Y-69355211D01*
X152502594Y-69292298D01*
X152493675Y-69283139D01*
X152475156Y-69268471D01*
X152450674Y-69258433D01*
X152413607Y-69252151D01*
X152357333Y-69248748D01*
X152275229Y-69247349D01*
X152160671Y-69247077D01*
X152102570Y-69246947D01*
X152007007Y-69246099D01*
X151930474Y-69244594D01*
X151879655Y-69242585D01*
X151861231Y-69240223D01*
X151861294Y-69239518D01*
X151868088Y-69215541D01*
X151882680Y-69171839D01*
X151904130Y-69110308D01*
X152180642Y-69110338D01*
G36*
X152180642Y-69110338D02*
G01*
X152205258Y-69110384D01*
X152333581Y-69112970D01*
X152430616Y-69120913D01*
X152502943Y-69136155D01*
X152557145Y-69160636D01*
X152599802Y-69196298D01*
X152637495Y-69245082D01*
X152661090Y-69292661D01*
X152679328Y-69368732D01*
X152680364Y-69443556D01*
X152662622Y-69501077D01*
X152660171Y-69505402D01*
X152660434Y-69518738D01*
X152680961Y-69527851D01*
X152728020Y-69534428D01*
X152807880Y-69540154D01*
X152971764Y-69549923D01*
X152918194Y-69676923D01*
X152383545Y-69676923D01*
X152244906Y-69676660D01*
X152120195Y-69675958D01*
X152014443Y-69674883D01*
X151932678Y-69673500D01*
X151879931Y-69671874D01*
X151861231Y-69670070D01*
X151861294Y-69669364D01*
X151868088Y-69645387D01*
X151882680Y-69601685D01*
X151904130Y-69540154D01*
X152179383Y-69540154D01*
X152287534Y-69539763D01*
X152365974Y-69537946D01*
X152419353Y-69533767D01*
X152454744Y-69526286D01*
X152479221Y-69514567D01*
X152499856Y-69497671D01*
X152510830Y-69486152D01*
X152541225Y-69423864D01*
X152538534Y-69355211D01*
X152502594Y-69292298D01*
X152493675Y-69283139D01*
X152475156Y-69268471D01*
X152450674Y-69258433D01*
X152413607Y-69252151D01*
X152357333Y-69248748D01*
X152275229Y-69247349D01*
X152160671Y-69247077D01*
X152102570Y-69246947D01*
X152007007Y-69246099D01*
X151930474Y-69244594D01*
X151879655Y-69242585D01*
X151861231Y-69240223D01*
X151861294Y-69239518D01*
X151868088Y-69215541D01*
X151882680Y-69171839D01*
X151904130Y-69110308D01*
X152180642Y-69110338D01*
G37*
X152435143Y-66297251D02*
X152533808Y-66298753D01*
X152611932Y-66301089D01*
X152663338Y-66304071D01*
X152681846Y-66307509D01*
X152681796Y-66308230D01*
X152672587Y-66333203D01*
X152652293Y-66375399D01*
X152622739Y-66432549D01*
X152315254Y-66437928D01*
X152007769Y-66443308D01*
X152007769Y-66560539D01*
X152344808Y-66565885D01*
X152436426Y-66567579D01*
X152534351Y-66570005D01*
X152612094Y-66572634D01*
X152663358Y-66575246D01*
X152681846Y-66577623D01*
X152681781Y-66578306D01*
X152674980Y-66601996D01*
X152660396Y-66645546D01*
X152638946Y-66707077D01*
X152342896Y-66707376D01*
X152291468Y-66707676D01*
X152191534Y-66709754D01*
X152108075Y-66713470D01*
X152048623Y-66718430D01*
X152020713Y-66724240D01*
X152005786Y-66745024D01*
X152001175Y-66787440D01*
X152007769Y-66834077D01*
X152344808Y-66839423D01*
X152430454Y-66841336D01*
X152531828Y-66845303D01*
X152611345Y-66850491D01*
X152663264Y-66856499D01*
X152681846Y-66862927D01*
X152675966Y-66887998D01*
X152659171Y-66930850D01*
X152636497Y-66980615D01*
X151981467Y-66980615D01*
X151919637Y-66918785D01*
X151905772Y-66904662D01*
X151874954Y-66865536D01*
X151864972Y-66826078D01*
X151869567Y-66767362D01*
X151872538Y-66743456D01*
X151878824Y-66681801D01*
X151881328Y-66638692D01*
X151880945Y-66625905D01*
X151876800Y-66573446D01*
X151869567Y-66510022D01*
X151867082Y-66489730D01*
X151866105Y-66438610D01*
X151881538Y-66401207D01*
X151919637Y-66358599D01*
X151981467Y-66296769D01*
X152331657Y-66296769D01*
X152435143Y-66297251D01*
G36*
X152435143Y-66297251D02*
G01*
X152533808Y-66298753D01*
X152611932Y-66301089D01*
X152663338Y-66304071D01*
X152681846Y-66307509D01*
X152681796Y-66308230D01*
X152672587Y-66333203D01*
X152652293Y-66375399D01*
X152622739Y-66432549D01*
X152315254Y-66437928D01*
X152007769Y-66443308D01*
X152007769Y-66560539D01*
X152344808Y-66565885D01*
X152436426Y-66567579D01*
X152534351Y-66570005D01*
X152612094Y-66572634D01*
X152663358Y-66575246D01*
X152681846Y-66577623D01*
X152681781Y-66578306D01*
X152674980Y-66601996D01*
X152660396Y-66645546D01*
X152638946Y-66707077D01*
X152342896Y-66707376D01*
X152291468Y-66707676D01*
X152191534Y-66709754D01*
X152108075Y-66713470D01*
X152048623Y-66718430D01*
X152020713Y-66724240D01*
X152005786Y-66745024D01*
X152001175Y-66787440D01*
X152007769Y-66834077D01*
X152344808Y-66839423D01*
X152430454Y-66841336D01*
X152531828Y-66845303D01*
X152611345Y-66850491D01*
X152663264Y-66856499D01*
X152681846Y-66862927D01*
X152675966Y-66887998D01*
X152659171Y-66930850D01*
X152636497Y-66980615D01*
X151981467Y-66980615D01*
X151919637Y-66918785D01*
X151905772Y-66904662D01*
X151874954Y-66865536D01*
X151864972Y-66826078D01*
X151869567Y-66767362D01*
X151872538Y-66743456D01*
X151878824Y-66681801D01*
X151881328Y-66638692D01*
X151880945Y-66625905D01*
X151876800Y-66573446D01*
X151869567Y-66510022D01*
X151867082Y-66489730D01*
X151866105Y-66438610D01*
X151881538Y-66401207D01*
X151919637Y-66358599D01*
X151981467Y-66296769D01*
X152331657Y-66296769D01*
X152435143Y-66297251D01*
G37*
X152367948Y-72471699D02*
X152462467Y-72481262D01*
X152537273Y-72499943D01*
X152587095Y-72523951D01*
X152664591Y-72591536D01*
X152712744Y-72683114D01*
X152729297Y-72795213D01*
X152728401Y-72825151D01*
X152710071Y-72913315D01*
X152663896Y-72985733D01*
X152584352Y-73052192D01*
X152578452Y-73056147D01*
X152546712Y-73074040D01*
X152510837Y-73085678D01*
X152462094Y-73092371D01*
X152391751Y-73095426D01*
X152297818Y-73096106D01*
X152291077Y-73096154D01*
X152269895Y-73096135D01*
X152175416Y-73095076D01*
X152109586Y-73091436D01*
X152063606Y-73083892D01*
X152028679Y-73071122D01*
X151996005Y-73051803D01*
X151989225Y-73047050D01*
X151935769Y-72996759D01*
X151895453Y-72939457D01*
X151882371Y-72910032D01*
X151862746Y-72814942D01*
X152042739Y-72814942D01*
X152076154Y-72861692D01*
X152084947Y-72869824D01*
X152111259Y-72885754D01*
X152149480Y-72895159D01*
X152208651Y-72899632D01*
X152297818Y-72900769D01*
X152381336Y-72898822D01*
X152460905Y-72889105D01*
X152511192Y-72869047D01*
X152537487Y-72836240D01*
X152545077Y-72788280D01*
X152543568Y-72770016D01*
X152515893Y-72718848D01*
X152453828Y-72685035D01*
X152357963Y-72668796D01*
X152228886Y-72670349D01*
X152220580Y-72670974D01*
X152149357Y-72680077D01*
X152104191Y-72696288D01*
X152073248Y-72723660D01*
X152044263Y-72769553D01*
X152042739Y-72814942D01*
X151862746Y-72814942D01*
X151860550Y-72804299D01*
X151874664Y-72699734D01*
X151922895Y-72603368D01*
X152003421Y-72522235D01*
X152014209Y-72515385D01*
X152076847Y-72493097D01*
X152164065Y-72478079D01*
X152264790Y-72470792D01*
X152367948Y-72471699D01*
G36*
X152367948Y-72471699D02*
G01*
X152462467Y-72481262D01*
X152537273Y-72499943D01*
X152587095Y-72523951D01*
X152664591Y-72591536D01*
X152712744Y-72683114D01*
X152729297Y-72795213D01*
X152728401Y-72825151D01*
X152710071Y-72913315D01*
X152663896Y-72985733D01*
X152584352Y-73052192D01*
X152578452Y-73056147D01*
X152546712Y-73074040D01*
X152510837Y-73085678D01*
X152462094Y-73092371D01*
X152391751Y-73095426D01*
X152297818Y-73096106D01*
X152291077Y-73096154D01*
X152269895Y-73096135D01*
X152175416Y-73095076D01*
X152109586Y-73091436D01*
X152063606Y-73083892D01*
X152028679Y-73071122D01*
X151996005Y-73051803D01*
X151989225Y-73047050D01*
X151935769Y-72996759D01*
X151895453Y-72939457D01*
X151882371Y-72910032D01*
X151862746Y-72814942D01*
X152042739Y-72814942D01*
X152076154Y-72861692D01*
X152084947Y-72869824D01*
X152111259Y-72885754D01*
X152149480Y-72895159D01*
X152208651Y-72899632D01*
X152297818Y-72900769D01*
X152381336Y-72898822D01*
X152460905Y-72889105D01*
X152511192Y-72869047D01*
X152537487Y-72836240D01*
X152545077Y-72788280D01*
X152543568Y-72770016D01*
X152515893Y-72718848D01*
X152453828Y-72685035D01*
X152357963Y-72668796D01*
X152228886Y-72670349D01*
X152220580Y-72670974D01*
X152149357Y-72680077D01*
X152104191Y-72696288D01*
X152073248Y-72723660D01*
X152044263Y-72769553D01*
X152042739Y-72814942D01*
X151862746Y-72814942D01*
X151860550Y-72804299D01*
X151874664Y-72699734D01*
X151922895Y-72603368D01*
X152003421Y-72522235D01*
X152014209Y-72515385D01*
X152076847Y-72493097D01*
X152164065Y-72478079D01*
X152264790Y-72470792D01*
X152367948Y-72471699D01*
G37*
X152187448Y-64362346D02*
X152161636Y-64404994D01*
X152101072Y-64442064D01*
X152081680Y-64449803D01*
X152026765Y-64493074D01*
X151999121Y-64551976D01*
X152001607Y-64616111D01*
X152037077Y-64675077D01*
X152059195Y-64695342D01*
X152092564Y-64713720D01*
X152122883Y-64707971D01*
X152154087Y-64674887D01*
X152190113Y-64611261D01*
X152234897Y-64513885D01*
X152322555Y-64313615D01*
X152409393Y-64308301D01*
X152474337Y-64310647D01*
X152556410Y-64340186D01*
X152601639Y-64377472D01*
X152652162Y-64454776D01*
X152677684Y-64546478D01*
X152675664Y-64641274D01*
X152643560Y-64727859D01*
X152631233Y-64746920D01*
X152593088Y-64790640D01*
X152544833Y-64820540D01*
X152479290Y-64838968D01*
X152389280Y-64848270D01*
X152330052Y-64849499D01*
X152267624Y-64850794D01*
X152215551Y-64850413D01*
X152112953Y-64845641D01*
X152037874Y-64833150D01*
X151982252Y-64810121D01*
X151938025Y-64773732D01*
X151901479Y-64726751D01*
X152291077Y-64726751D01*
X152296562Y-64730161D01*
X152330052Y-64731529D01*
X152383884Y-64726651D01*
X152436527Y-64714364D01*
X152502849Y-64676041D01*
X152540220Y-64620720D01*
X152545279Y-64554640D01*
X152514661Y-64484040D01*
X152499352Y-64464474D01*
X152464704Y-64440783D01*
X152430462Y-64450688D01*
X152393904Y-64495756D01*
X152352308Y-64577557D01*
X152346282Y-64591092D01*
X152318247Y-64655818D01*
X152298528Y-64704247D01*
X152291077Y-64726751D01*
X151901479Y-64726751D01*
X151897131Y-64721162D01*
X151878534Y-64687714D01*
X151866009Y-64634098D01*
X151866997Y-64558780D01*
X151870965Y-64516672D01*
X151883080Y-64465879D01*
X151909415Y-64425280D01*
X151958486Y-64378049D01*
X151965654Y-64371738D01*
X152020811Y-64329277D01*
X152068850Y-64309018D01*
X152125816Y-64303846D01*
X152209529Y-64303846D01*
X152187448Y-64362346D01*
G36*
X152187448Y-64362346D02*
G01*
X152161636Y-64404994D01*
X152101072Y-64442064D01*
X152081680Y-64449803D01*
X152026765Y-64493074D01*
X151999121Y-64551976D01*
X152001607Y-64616111D01*
X152037077Y-64675077D01*
X152059195Y-64695342D01*
X152092564Y-64713720D01*
X152122883Y-64707971D01*
X152154087Y-64674887D01*
X152190113Y-64611261D01*
X152234897Y-64513885D01*
X152322555Y-64313615D01*
X152409393Y-64308301D01*
X152474337Y-64310647D01*
X152556410Y-64340186D01*
X152601639Y-64377472D01*
X152652162Y-64454776D01*
X152677684Y-64546478D01*
X152675664Y-64641274D01*
X152643560Y-64727859D01*
X152631233Y-64746920D01*
X152593088Y-64790640D01*
X152544833Y-64820540D01*
X152479290Y-64838968D01*
X152389280Y-64848270D01*
X152330052Y-64849499D01*
X152267624Y-64850794D01*
X152215551Y-64850413D01*
X152112953Y-64845641D01*
X152037874Y-64833150D01*
X151982252Y-64810121D01*
X151938025Y-64773732D01*
X151901479Y-64726751D01*
X152291077Y-64726751D01*
X152296562Y-64730161D01*
X152330052Y-64731529D01*
X152383884Y-64726651D01*
X152436527Y-64714364D01*
X152502849Y-64676041D01*
X152540220Y-64620720D01*
X152545279Y-64554640D01*
X152514661Y-64484040D01*
X152499352Y-64464474D01*
X152464704Y-64440783D01*
X152430462Y-64450688D01*
X152393904Y-64495756D01*
X152352308Y-64577557D01*
X152346282Y-64591092D01*
X152318247Y-64655818D01*
X152298528Y-64704247D01*
X152291077Y-64726751D01*
X151901479Y-64726751D01*
X151897131Y-64721162D01*
X151878534Y-64687714D01*
X151866009Y-64634098D01*
X151866997Y-64558780D01*
X151870965Y-64516672D01*
X151883080Y-64465879D01*
X151909415Y-64425280D01*
X151958486Y-64378049D01*
X151965654Y-64371738D01*
X152020811Y-64329277D01*
X152068850Y-64309018D01*
X152125816Y-64303846D01*
X152209529Y-64303846D01*
X152187448Y-64362346D01*
G37*
X152946436Y-67161346D02*
X152939155Y-67178136D01*
X152922713Y-67204859D01*
X152897813Y-67220156D01*
X152854268Y-67228563D01*
X152781894Y-67234615D01*
X152716911Y-67240144D01*
X152674250Y-67247450D01*
X152658330Y-67257918D01*
X152662600Y-67273692D01*
X152677603Y-67313890D01*
X152681322Y-67385728D01*
X152667428Y-67463010D01*
X152637495Y-67529688D01*
X152609789Y-67566371D01*
X152555731Y-67613472D01*
X152486423Y-67643638D01*
X152394235Y-67659678D01*
X152277014Y-67664191D01*
X152271538Y-67664401D01*
X152195348Y-67662839D01*
X152091493Y-67651810D01*
X152013667Y-67627814D01*
X151954240Y-67588043D01*
X151905582Y-67529688D01*
X151877454Y-67474100D01*
X151861801Y-67380751D01*
X151867656Y-67348863D01*
X152002705Y-67348863D01*
X152006110Y-67416625D01*
X152045958Y-67479734D01*
X152066602Y-67498526D01*
X152093971Y-67514254D01*
X152131808Y-67523039D01*
X152189645Y-67526859D01*
X152277014Y-67527692D01*
X152343681Y-67527281D01*
X152408755Y-67524434D01*
X152450749Y-67517256D01*
X152478937Y-67503889D01*
X152502594Y-67482472D01*
X152513247Y-67469890D01*
X152541943Y-67404699D01*
X152537425Y-67336400D01*
X152499856Y-67277098D01*
X152484960Y-67264333D01*
X152456911Y-67248764D01*
X152417742Y-67239762D01*
X152358142Y-67235617D01*
X152268800Y-67234615D01*
X152197684Y-67235077D01*
X152133359Y-67237999D01*
X152091834Y-67245221D01*
X152063933Y-67258561D01*
X152040483Y-67279836D01*
X152035975Y-67284821D01*
X152002705Y-67348863D01*
X151867656Y-67348863D01*
X151878916Y-67287530D01*
X151926612Y-67203272D01*
X152002706Y-67136818D01*
X152016738Y-67128793D01*
X152041321Y-67118196D01*
X152072691Y-67110335D01*
X152116231Y-67104807D01*
X152177322Y-67101206D01*
X152261345Y-67099128D01*
X152373680Y-67098167D01*
X152519711Y-67097919D01*
X152973037Y-67097846D01*
X152946436Y-67161346D01*
G36*
X152946436Y-67161346D02*
G01*
X152939155Y-67178136D01*
X152922713Y-67204859D01*
X152897813Y-67220156D01*
X152854268Y-67228563D01*
X152781894Y-67234615D01*
X152716911Y-67240144D01*
X152674250Y-67247450D01*
X152658330Y-67257918D01*
X152662600Y-67273692D01*
X152677603Y-67313890D01*
X152681322Y-67385728D01*
X152667428Y-67463010D01*
X152637495Y-67529688D01*
X152609789Y-67566371D01*
X152555731Y-67613472D01*
X152486423Y-67643638D01*
X152394235Y-67659678D01*
X152277014Y-67664191D01*
X152271538Y-67664401D01*
X152195348Y-67662839D01*
X152091493Y-67651810D01*
X152013667Y-67627814D01*
X151954240Y-67588043D01*
X151905582Y-67529688D01*
X151877454Y-67474100D01*
X151861801Y-67380751D01*
X151867656Y-67348863D01*
X152002705Y-67348863D01*
X152006110Y-67416625D01*
X152045958Y-67479734D01*
X152066602Y-67498526D01*
X152093971Y-67514254D01*
X152131808Y-67523039D01*
X152189645Y-67526859D01*
X152277014Y-67527692D01*
X152343681Y-67527281D01*
X152408755Y-67524434D01*
X152450749Y-67517256D01*
X152478937Y-67503889D01*
X152502594Y-67482472D01*
X152513247Y-67469890D01*
X152541943Y-67404699D01*
X152537425Y-67336400D01*
X152499856Y-67277098D01*
X152484960Y-67264333D01*
X152456911Y-67248764D01*
X152417742Y-67239762D01*
X152358142Y-67235617D01*
X152268800Y-67234615D01*
X152197684Y-67235077D01*
X152133359Y-67237999D01*
X152091834Y-67245221D01*
X152063933Y-67258561D01*
X152040483Y-67279836D01*
X152035975Y-67284821D01*
X152002705Y-67348863D01*
X151867656Y-67348863D01*
X151878916Y-67287530D01*
X151926612Y-67203272D01*
X152002706Y-67136818D01*
X152016738Y-67128793D01*
X152041321Y-67118196D01*
X152072691Y-67110335D01*
X152116231Y-67104807D01*
X152177322Y-67101206D01*
X152261345Y-67099128D01*
X152373680Y-67098167D01*
X152519711Y-67097919D01*
X152973037Y-67097846D01*
X152946436Y-67161346D01*
G37*
X152254785Y-70985582D02*
X152271538Y-70996548D01*
X152270520Y-71006290D01*
X152251991Y-71052877D01*
X152217919Y-71105682D01*
X152178478Y-71150603D01*
X152143845Y-71173535D01*
X152096867Y-71197373D01*
X152054138Y-71246230D01*
X152037077Y-71302963D01*
X152042010Y-71323758D01*
X152066843Y-71364804D01*
X152101315Y-71400557D01*
X152132589Y-71415846D01*
X152132705Y-71415842D01*
X152145750Y-71400086D01*
X152359874Y-71400086D01*
X152372448Y-71413410D01*
X152415532Y-71415846D01*
X152469153Y-71405724D01*
X152517881Y-71370631D01*
X152543144Y-71319823D01*
X152540594Y-71263181D01*
X152505880Y-71210584D01*
X152481893Y-71189910D01*
X152463637Y-71185000D01*
X152446223Y-71204911D01*
X152420128Y-71254521D01*
X152419390Y-71255976D01*
X152391517Y-71314506D01*
X152369281Y-71366868D01*
X152359874Y-71400086D01*
X152145750Y-71400086D01*
X152147067Y-71398495D01*
X152172975Y-71352247D01*
X152206790Y-71284067D01*
X152244871Y-71200923D01*
X152245073Y-71200466D01*
X152285291Y-71110138D01*
X152314267Y-71049592D01*
X152336526Y-71012888D01*
X152356593Y-70994086D01*
X152378991Y-70987246D01*
X152408244Y-70986429D01*
X152478346Y-70993622D01*
X152573588Y-71029184D01*
X152648433Y-71088714D01*
X152700255Y-71165746D01*
X152726427Y-71253815D01*
X152724324Y-71346454D01*
X152691319Y-71437198D01*
X152624785Y-71519579D01*
X152558945Y-71565222D01*
X152464964Y-71598008D01*
X152415532Y-71603339D01*
X152346464Y-71610787D01*
X152198357Y-71604574D01*
X152166979Y-71601066D01*
X152055295Y-71574927D01*
X151970358Y-71527694D01*
X151905259Y-71455862D01*
X151902572Y-71451802D01*
X151864366Y-71360487D01*
X151860966Y-71265144D01*
X151890061Y-71173274D01*
X151949340Y-71092379D01*
X152036490Y-71029962D01*
X152038591Y-71028914D01*
X152092711Y-71008173D01*
X152154219Y-70992980D01*
X152211961Y-70984921D01*
X152254785Y-70985582D01*
G36*
X152254785Y-70985582D02*
G01*
X152271538Y-70996548D01*
X152270520Y-71006290D01*
X152251991Y-71052877D01*
X152217919Y-71105682D01*
X152178478Y-71150603D01*
X152143845Y-71173535D01*
X152096867Y-71197373D01*
X152054138Y-71246230D01*
X152037077Y-71302963D01*
X152042010Y-71323758D01*
X152066843Y-71364804D01*
X152101315Y-71400557D01*
X152132589Y-71415846D01*
X152132705Y-71415842D01*
X152145750Y-71400086D01*
X152359874Y-71400086D01*
X152372448Y-71413410D01*
X152415532Y-71415846D01*
X152469153Y-71405724D01*
X152517881Y-71370631D01*
X152543144Y-71319823D01*
X152540594Y-71263181D01*
X152505880Y-71210584D01*
X152481893Y-71189910D01*
X152463637Y-71185000D01*
X152446223Y-71204911D01*
X152420128Y-71254521D01*
X152419390Y-71255976D01*
X152391517Y-71314506D01*
X152369281Y-71366868D01*
X152359874Y-71400086D01*
X152145750Y-71400086D01*
X152147067Y-71398495D01*
X152172975Y-71352247D01*
X152206790Y-71284067D01*
X152244871Y-71200923D01*
X152245073Y-71200466D01*
X152285291Y-71110138D01*
X152314267Y-71049592D01*
X152336526Y-71012888D01*
X152356593Y-70994086D01*
X152378991Y-70987246D01*
X152408244Y-70986429D01*
X152478346Y-70993622D01*
X152573588Y-71029184D01*
X152648433Y-71088714D01*
X152700255Y-71165746D01*
X152726427Y-71253815D01*
X152724324Y-71346454D01*
X152691319Y-71437198D01*
X152624785Y-71519579D01*
X152558945Y-71565222D01*
X152464964Y-71598008D01*
X152415532Y-71603339D01*
X152346464Y-71610787D01*
X152198357Y-71604574D01*
X152166979Y-71601066D01*
X152055295Y-71574927D01*
X151970358Y-71527694D01*
X151905259Y-71455862D01*
X151902572Y-71451802D01*
X151864366Y-71360487D01*
X151860966Y-71265144D01*
X151890061Y-71173274D01*
X151949340Y-71092379D01*
X152036490Y-71029962D01*
X152038591Y-71028914D01*
X152092711Y-71008173D01*
X152154219Y-70992980D01*
X152211961Y-70984921D01*
X152254785Y-70985582D01*
G37*
X152199702Y-68429923D02*
X152218072Y-68430414D01*
X152347008Y-68436025D01*
X152444186Y-68445938D01*
X152516075Y-68462175D01*
X152569148Y-68486759D01*
X152609873Y-68521715D01*
X152644721Y-68569064D01*
X152645267Y-68569940D01*
X152673697Y-68646499D01*
X152678500Y-68735044D01*
X152660772Y-68820458D01*
X152621611Y-68887622D01*
X152591098Y-68917169D01*
X152499890Y-68973948D01*
X152400452Y-68993077D01*
X152332040Y-68993077D01*
X152358482Y-68930191D01*
X152385163Y-68886700D01*
X152440554Y-68852426D01*
X152451976Y-68848907D01*
X152510162Y-68811028D01*
X152541593Y-68753936D01*
X152542942Y-68688383D01*
X152510884Y-68625117D01*
X152502617Y-68615672D01*
X152466689Y-68584087D01*
X152435365Y-68578871D01*
X152404609Y-68602765D01*
X152370383Y-68658510D01*
X152328650Y-68748846D01*
X152326007Y-68754956D01*
X152279245Y-68855241D01*
X152237819Y-68923735D01*
X152196458Y-68965899D01*
X152149889Y-68987193D01*
X152092840Y-68993077D01*
X152029592Y-68985366D01*
X151948636Y-68946430D01*
X151890478Y-68877932D01*
X151873017Y-68828388D01*
X151863463Y-68758469D01*
X151865504Y-68690575D01*
X151879918Y-68642093D01*
X151883507Y-68636943D01*
X151908584Y-68623267D01*
X151952782Y-68632757D01*
X151987473Y-68649246D01*
X152001916Y-68675687D01*
X152001197Y-68725834D01*
X152005340Y-68795453D01*
X152033946Y-68840943D01*
X152086896Y-68856308D01*
X152088418Y-68856294D01*
X152119155Y-68846983D01*
X152147357Y-68815311D01*
X152179864Y-68753731D01*
X152219002Y-68669986D01*
X152240294Y-68614518D01*
X152238921Y-68582497D01*
X152210797Y-68567534D01*
X152151830Y-68563242D01*
X152057932Y-68563231D01*
X151999969Y-68562752D01*
X151928388Y-68560556D01*
X151879394Y-68556986D01*
X151861231Y-68552491D01*
X151861354Y-68551290D01*
X151871198Y-68525319D01*
X151891972Y-68482305D01*
X151922713Y-68422859D01*
X152199702Y-68429923D01*
G36*
X152199702Y-68429923D02*
G01*
X152218072Y-68430414D01*
X152347008Y-68436025D01*
X152444186Y-68445938D01*
X152516075Y-68462175D01*
X152569148Y-68486759D01*
X152609873Y-68521715D01*
X152644721Y-68569064D01*
X152645267Y-68569940D01*
X152673697Y-68646499D01*
X152678500Y-68735044D01*
X152660772Y-68820458D01*
X152621611Y-68887622D01*
X152591098Y-68917169D01*
X152499890Y-68973948D01*
X152400452Y-68993077D01*
X152332040Y-68993077D01*
X152358482Y-68930191D01*
X152385163Y-68886700D01*
X152440554Y-68852426D01*
X152451976Y-68848907D01*
X152510162Y-68811028D01*
X152541593Y-68753936D01*
X152542942Y-68688383D01*
X152510884Y-68625117D01*
X152502617Y-68615672D01*
X152466689Y-68584087D01*
X152435365Y-68578871D01*
X152404609Y-68602765D01*
X152370383Y-68658510D01*
X152328650Y-68748846D01*
X152326007Y-68754956D01*
X152279245Y-68855241D01*
X152237819Y-68923735D01*
X152196458Y-68965899D01*
X152149889Y-68987193D01*
X152092840Y-68993077D01*
X152029592Y-68985366D01*
X151948636Y-68946430D01*
X151890478Y-68877932D01*
X151873017Y-68828388D01*
X151863463Y-68758469D01*
X151865504Y-68690575D01*
X151879918Y-68642093D01*
X151883507Y-68636943D01*
X151908584Y-68623267D01*
X151952782Y-68632757D01*
X151987473Y-68649246D01*
X152001916Y-68675687D01*
X152001197Y-68725834D01*
X152005340Y-68795453D01*
X152033946Y-68840943D01*
X152086896Y-68856308D01*
X152088418Y-68856294D01*
X152119155Y-68846983D01*
X152147357Y-68815311D01*
X152179864Y-68753731D01*
X152219002Y-68669986D01*
X152240294Y-68614518D01*
X152238921Y-68582497D01*
X152210797Y-68567534D01*
X152151830Y-68563242D01*
X152057932Y-68563231D01*
X151999969Y-68562752D01*
X151928388Y-68560556D01*
X151879394Y-68556986D01*
X151861231Y-68552491D01*
X151861354Y-68551290D01*
X151871198Y-68525319D01*
X151891972Y-68482305D01*
X151922713Y-68422859D01*
X152199702Y-68429923D01*
G37*
X152397464Y-71729187D02*
X152466902Y-71732490D01*
X152515055Y-71739828D01*
X152551134Y-71752655D01*
X152584352Y-71772423D01*
X152609739Y-71790569D01*
X152678273Y-71856461D01*
X152715495Y-71931114D01*
X152727278Y-72024904D01*
X152715533Y-72132240D01*
X152673405Y-72225031D01*
X152599102Y-72298421D01*
X152591236Y-72303954D01*
X152570332Y-72316857D01*
X152546445Y-72326742D01*
X152514418Y-72334093D01*
X152469095Y-72339394D01*
X152405321Y-72343127D01*
X152317940Y-72345778D01*
X152299958Y-72346096D01*
X152201795Y-72347828D01*
X152051731Y-72349763D01*
X152008198Y-72350300D01*
X151862656Y-72352019D01*
X151751289Y-72352365D01*
X151670196Y-72350277D01*
X151615478Y-72344698D01*
X151583239Y-72334567D01*
X151569578Y-72318826D01*
X151570597Y-72296417D01*
X151582397Y-72266280D01*
X151601080Y-72227355D01*
X151605067Y-72219038D01*
X151624581Y-72184402D01*
X151647798Y-72166314D01*
X151686508Y-72159392D01*
X151752503Y-72158256D01*
X151871000Y-72158205D01*
X151871000Y-72036141D01*
X151872063Y-72011858D01*
X152042372Y-72011858D01*
X152045583Y-72058110D01*
X152085035Y-72110350D01*
X152098518Y-72123128D01*
X152126163Y-72141949D01*
X152162120Y-72152562D01*
X152216636Y-72157252D01*
X152299958Y-72158308D01*
X152350402Y-72157394D01*
X152442143Y-72147477D01*
X152502248Y-72124842D01*
X152535100Y-72087238D01*
X152545077Y-72032416D01*
X152542950Y-72009317D01*
X152521853Y-71969350D01*
X152474839Y-71942926D01*
X152397825Y-71928330D01*
X152286729Y-71923846D01*
X152268869Y-71923880D01*
X152188252Y-71925735D01*
X152135553Y-71931693D01*
X152101332Y-71943506D01*
X152076154Y-71962923D01*
X152074951Y-71964133D01*
X152042372Y-72011858D01*
X151872063Y-72011858D01*
X151874288Y-71961055D01*
X151887623Y-71902015D01*
X151914577Y-71852986D01*
X151917212Y-71849330D01*
X151961714Y-71799581D01*
X152015477Y-71764959D01*
X152085846Y-71743123D01*
X152180170Y-71731737D01*
X152305794Y-71728462D01*
X152397464Y-71729187D01*
G36*
X152397464Y-71729187D02*
G01*
X152466902Y-71732490D01*
X152515055Y-71739828D01*
X152551134Y-71752655D01*
X152584352Y-71772423D01*
X152609739Y-71790569D01*
X152678273Y-71856461D01*
X152715495Y-71931114D01*
X152727278Y-72024904D01*
X152715533Y-72132240D01*
X152673405Y-72225031D01*
X152599102Y-72298421D01*
X152591236Y-72303954D01*
X152570332Y-72316857D01*
X152546445Y-72326742D01*
X152514418Y-72334093D01*
X152469095Y-72339394D01*
X152405321Y-72343127D01*
X152317940Y-72345778D01*
X152299958Y-72346096D01*
X152201795Y-72347828D01*
X152051731Y-72349763D01*
X152008198Y-72350300D01*
X151862656Y-72352019D01*
X151751289Y-72352365D01*
X151670196Y-72350277D01*
X151615478Y-72344698D01*
X151583239Y-72334567D01*
X151569578Y-72318826D01*
X151570597Y-72296417D01*
X151582397Y-72266280D01*
X151601080Y-72227355D01*
X151605067Y-72219038D01*
X151624581Y-72184402D01*
X151647798Y-72166314D01*
X151686508Y-72159392D01*
X151752503Y-72158256D01*
X151871000Y-72158205D01*
X151871000Y-72036141D01*
X151872063Y-72011858D01*
X152042372Y-72011858D01*
X152045583Y-72058110D01*
X152085035Y-72110350D01*
X152098518Y-72123128D01*
X152126163Y-72141949D01*
X152162120Y-72152562D01*
X152216636Y-72157252D01*
X152299958Y-72158308D01*
X152350402Y-72157394D01*
X152442143Y-72147477D01*
X152502248Y-72124842D01*
X152535100Y-72087238D01*
X152545077Y-72032416D01*
X152542950Y-72009317D01*
X152521853Y-71969350D01*
X152474839Y-71942926D01*
X152397825Y-71928330D01*
X152286729Y-71923846D01*
X152268869Y-71923880D01*
X152188252Y-71925735D01*
X152135553Y-71931693D01*
X152101332Y-71943506D01*
X152076154Y-71962923D01*
X152074951Y-71964133D01*
X152042372Y-72011858D01*
X151872063Y-72011858D01*
X151874288Y-71961055D01*
X151887623Y-71902015D01*
X151914577Y-71852986D01*
X151917212Y-71849330D01*
X151961714Y-71799581D01*
X152015477Y-71764959D01*
X152085846Y-71743123D01*
X152180170Y-71731737D01*
X152305794Y-71728462D01*
X152397464Y-71729187D01*
G37*
X152272060Y-65632780D02*
X152385299Y-65635789D01*
X152469308Y-65643454D01*
X152530480Y-65657562D01*
X152575205Y-65679899D01*
X152609876Y-65712253D01*
X152640883Y-65756410D01*
X152666472Y-65812667D01*
X152681846Y-65916540D01*
X152680089Y-65963936D01*
X152669453Y-66005807D01*
X152642938Y-66044791D01*
X152593580Y-66094965D01*
X152558721Y-66127232D01*
X152513466Y-66160844D01*
X152471049Y-66176003D01*
X152417232Y-66179539D01*
X152329150Y-66179539D01*
X152360213Y-66119470D01*
X152398064Y-66071867D01*
X152449050Y-66039261D01*
X152462912Y-66033661D01*
X152516642Y-65990992D01*
X152543583Y-65931707D01*
X152540961Y-65867061D01*
X152506000Y-65808308D01*
X152477606Y-65783450D01*
X152441282Y-65768970D01*
X152408954Y-65784470D01*
X152376435Y-65832667D01*
X152339539Y-65916274D01*
X152334443Y-65928962D01*
X152301093Y-66005078D01*
X152268207Y-66070396D01*
X152242231Y-66111953D01*
X152195833Y-66153576D01*
X152121789Y-66181247D01*
X152042330Y-66178310D01*
X151967132Y-66145571D01*
X151905869Y-66083841D01*
X151879790Y-66033858D01*
X151861530Y-65937303D01*
X151863993Y-65883647D01*
X151877313Y-65833976D01*
X151905261Y-65814919D01*
X151951290Y-65822045D01*
X151957376Y-65824118D01*
X151989651Y-65840556D01*
X152001867Y-65867926D01*
X152001050Y-65920068D01*
X151999939Y-65956884D01*
X152009472Y-65999961D01*
X152037974Y-66029475D01*
X152073065Y-66046286D01*
X152109825Y-66048161D01*
X152110039Y-66048074D01*
X152129902Y-66026279D01*
X152158808Y-65979632D01*
X152191114Y-65919278D01*
X152221177Y-65856360D01*
X152243354Y-65802023D01*
X152252000Y-65767410D01*
X152243533Y-65762260D01*
X152203691Y-65755778D01*
X152138629Y-65751339D01*
X152056615Y-65749692D01*
X151999847Y-65749309D01*
X151928352Y-65747505D01*
X151879390Y-65744558D01*
X151861231Y-65740843D01*
X151867333Y-65721424D01*
X151883905Y-65682227D01*
X151906580Y-65632462D01*
X152197491Y-65632462D01*
X152272060Y-65632780D01*
G36*
X152272060Y-65632780D02*
G01*
X152385299Y-65635789D01*
X152469308Y-65643454D01*
X152530480Y-65657562D01*
X152575205Y-65679899D01*
X152609876Y-65712253D01*
X152640883Y-65756410D01*
X152666472Y-65812667D01*
X152681846Y-65916540D01*
X152680089Y-65963936D01*
X152669453Y-66005807D01*
X152642938Y-66044791D01*
X152593580Y-66094965D01*
X152558721Y-66127232D01*
X152513466Y-66160844D01*
X152471049Y-66176003D01*
X152417232Y-66179539D01*
X152329150Y-66179539D01*
X152360213Y-66119470D01*
X152398064Y-66071867D01*
X152449050Y-66039261D01*
X152462912Y-66033661D01*
X152516642Y-65990992D01*
X152543583Y-65931707D01*
X152540961Y-65867061D01*
X152506000Y-65808308D01*
X152477606Y-65783450D01*
X152441282Y-65768970D01*
X152408954Y-65784470D01*
X152376435Y-65832667D01*
X152339539Y-65916274D01*
X152334443Y-65928962D01*
X152301093Y-66005078D01*
X152268207Y-66070396D01*
X152242231Y-66111953D01*
X152195833Y-66153576D01*
X152121789Y-66181247D01*
X152042330Y-66178310D01*
X151967132Y-66145571D01*
X151905869Y-66083841D01*
X151879790Y-66033858D01*
X151861530Y-65937303D01*
X151863993Y-65883647D01*
X151877313Y-65833976D01*
X151905261Y-65814919D01*
X151951290Y-65822045D01*
X151957376Y-65824118D01*
X151989651Y-65840556D01*
X152001867Y-65867926D01*
X152001050Y-65920068D01*
X151999939Y-65956884D01*
X152009472Y-65999961D01*
X152037974Y-66029475D01*
X152073065Y-66046286D01*
X152109825Y-66048161D01*
X152110039Y-66048074D01*
X152129902Y-66026279D01*
X152158808Y-65979632D01*
X152191114Y-65919278D01*
X152221177Y-65856360D01*
X152243354Y-65802023D01*
X152252000Y-65767410D01*
X152243533Y-65762260D01*
X152203691Y-65755778D01*
X152138629Y-65751339D01*
X152056615Y-65749692D01*
X151999847Y-65749309D01*
X151928352Y-65747505D01*
X151879390Y-65744558D01*
X151861231Y-65740843D01*
X151867333Y-65721424D01*
X151883905Y-65682227D01*
X151906580Y-65632462D01*
X152197491Y-65632462D01*
X152272060Y-65632780D01*
G37*
X155977820Y-65612946D02*
X156105953Y-65613379D01*
X156201580Y-65614659D01*
X156269589Y-65617168D01*
X156314867Y-65621286D01*
X156342303Y-65627395D01*
X156356782Y-65635878D01*
X156363193Y-65647115D01*
X156365791Y-65657994D01*
X156374978Y-65702347D01*
X156389009Y-65773106D01*
X156406514Y-65863074D01*
X156426126Y-65965056D01*
X156446475Y-66071857D01*
X156466193Y-66176281D01*
X156483911Y-66271132D01*
X156498262Y-66349214D01*
X156507876Y-66403332D01*
X156511384Y-66426291D01*
X156513503Y-66427842D01*
X156540994Y-66440325D01*
X156593594Y-66461927D01*
X156662808Y-66489123D01*
X156756063Y-66526866D01*
X156863841Y-66573328D01*
X156958828Y-66616878D01*
X156980149Y-66626858D01*
X157046914Y-66654862D01*
X157098410Y-66671641D01*
X157124905Y-66673854D01*
X157126782Y-66672713D01*
X157154435Y-66654584D01*
X157208151Y-66618644D01*
X157282697Y-66568418D01*
X157372838Y-66507430D01*
X157473343Y-66439205D01*
X157587530Y-66362330D01*
X157676230Y-66304663D01*
X157741279Y-66265426D01*
X157786705Y-66242350D01*
X157816537Y-66233166D01*
X157834805Y-66235604D01*
X157836175Y-66236424D01*
X157862795Y-66258477D01*
X157911303Y-66303436D01*
X157976892Y-66366673D01*
X158054753Y-66443559D01*
X158140078Y-66529465D01*
X158226666Y-66618579D01*
X158308053Y-66705872D01*
X158362965Y-66770018D01*
X158392810Y-66812679D01*
X158398996Y-66835521D01*
X158397606Y-66838505D01*
X158378873Y-66869936D01*
X158342267Y-66926997D01*
X158291303Y-67004343D01*
X158229496Y-67096626D01*
X158160361Y-67198502D01*
X157933580Y-67530593D01*
X158001647Y-67680566D01*
X158003619Y-67684923D01*
X158043509Y-67777000D01*
X158083182Y-67874683D01*
X158114326Y-67957539D01*
X158114455Y-67957905D01*
X158138544Y-68023685D01*
X158158890Y-68074323D01*
X158171099Y-68098884D01*
X158171542Y-68099282D01*
X158196544Y-68107619D01*
X158253402Y-68121341D01*
X158335986Y-68139123D01*
X158438169Y-68159641D01*
X158553822Y-68181571D01*
X158557967Y-68182336D01*
X158675981Y-68204229D01*
X158782849Y-68224281D01*
X158871748Y-68241192D01*
X158935855Y-68253667D01*
X158968346Y-68260406D01*
X158970147Y-68260837D01*
X158984056Y-68265273D01*
X158994511Y-68274263D01*
X159002004Y-68292737D01*
X159007028Y-68325628D01*
X159010078Y-68377868D01*
X159011645Y-68454388D01*
X159012224Y-68560122D01*
X159012308Y-68700000D01*
X159012307Y-68717575D01*
X159012193Y-68853371D01*
X159011528Y-68955576D01*
X159009818Y-69029122D01*
X159006571Y-69078942D01*
X159001294Y-69109967D01*
X158993493Y-69127129D01*
X158982675Y-69135361D01*
X158968346Y-69139594D01*
X158967832Y-69139716D01*
X158934149Y-69146672D01*
X158869083Y-69159320D01*
X158779458Y-69176360D01*
X158672096Y-69196496D01*
X158553822Y-69218429D01*
X158544144Y-69220218D01*
X158429350Y-69242083D01*
X158328520Y-69262430D01*
X158247783Y-69279934D01*
X158193266Y-69293271D01*
X158171099Y-69301116D01*
X158171064Y-69301158D01*
X158158800Y-69325884D01*
X158138424Y-69376631D01*
X158114326Y-69442462D01*
X158113017Y-69446169D01*
X158081209Y-69530331D01*
X158041315Y-69628230D01*
X158001647Y-69719435D01*
X157933580Y-69869407D01*
X158160361Y-70201499D01*
X158176312Y-70224889D01*
X158244110Y-70325080D01*
X158303792Y-70414480D01*
X158351844Y-70487745D01*
X158384750Y-70539527D01*
X158398996Y-70564480D01*
X158395730Y-70581577D01*
X158370429Y-70620395D01*
X158320325Y-70680385D01*
X158244011Y-70763210D01*
X158140078Y-70870535D01*
X158130618Y-70880139D01*
X158045855Y-70965302D01*
X157969063Y-71040949D01*
X157905053Y-71102449D01*
X157858639Y-71145173D01*
X157834631Y-71164489D01*
X157834515Y-71164552D01*
X157816237Y-71167006D01*
X157786589Y-71157956D01*
X157741514Y-71135119D01*
X157676956Y-71096213D01*
X157588860Y-71038954D01*
X157473170Y-70961059D01*
X157453643Y-70947785D01*
X157354722Y-70880652D01*
X157267152Y-70821410D01*
X157196169Y-70773588D01*
X157147009Y-70740715D01*
X157124905Y-70726318D01*
X157120223Y-70725232D01*
X157085290Y-70732044D01*
X157028247Y-70752450D01*
X156958828Y-70783123D01*
X156868041Y-70824808D01*
X156760314Y-70871352D01*
X156662808Y-70910877D01*
X156637570Y-70920676D01*
X156573130Y-70946340D01*
X156528237Y-70965193D01*
X156511384Y-70973710D01*
X156510125Y-70983111D01*
X156502841Y-71025363D01*
X156490261Y-71094521D01*
X156473754Y-71183387D01*
X156454688Y-71284768D01*
X156434431Y-71391467D01*
X156414353Y-71496288D01*
X156395821Y-71592036D01*
X156380205Y-71671516D01*
X156368873Y-71727530D01*
X156363193Y-71752885D01*
X156361592Y-71757088D01*
X156352955Y-71767334D01*
X156334567Y-71774957D01*
X156301540Y-71780338D01*
X156248987Y-71783859D01*
X156172021Y-71785901D01*
X156065754Y-71786847D01*
X155925299Y-71787077D01*
X155498155Y-71787077D01*
X155477909Y-71684500D01*
X155475482Y-71672092D01*
X155462912Y-71606199D01*
X155445830Y-71515084D01*
X155426171Y-71409104D01*
X155405868Y-71298615D01*
X155397701Y-71255105D01*
X155377833Y-71157882D01*
X155359046Y-71076858D01*
X155343141Y-71019477D01*
X155331921Y-70993187D01*
X155313589Y-70981273D01*
X155265084Y-70959583D01*
X155202308Y-70937395D01*
X155178800Y-70929585D01*
X155101634Y-70900835D01*
X155010306Y-70863752D01*
X154919907Y-70824375D01*
X154872690Y-70803315D01*
X154802163Y-70773311D01*
X154749345Y-70752692D01*
X154723088Y-70745026D01*
X154721106Y-70745452D01*
X154693249Y-70759993D01*
X154639490Y-70792783D01*
X154565037Y-70840493D01*
X154475103Y-70899798D01*
X154374896Y-70967369D01*
X154048584Y-71189713D01*
X153755984Y-70897601D01*
X153727829Y-70869349D01*
X153643551Y-70782961D01*
X153570872Y-70705756D01*
X153513888Y-70642258D01*
X153476693Y-70596990D01*
X153463384Y-70574474D01*
X153473510Y-70550023D01*
X153502579Y-70498819D01*
X153547104Y-70426747D01*
X153603589Y-70339460D01*
X153668538Y-70242612D01*
X153732686Y-70147486D01*
X153789173Y-70061669D01*
X153833816Y-69991652D01*
X153863145Y-69942876D01*
X153873692Y-69920783D01*
X153873596Y-69919488D01*
X153863198Y-69890139D01*
X153838988Y-69838093D01*
X153805751Y-69773708D01*
X153805387Y-69773032D01*
X153762559Y-69687521D01*
X153741635Y-69628926D01*
X153741577Y-69592571D01*
X153761346Y-69573775D01*
X153780805Y-69565819D01*
X153832920Y-69544347D01*
X153913036Y-69511273D01*
X154016893Y-69468356D01*
X154140233Y-69417356D01*
X154278799Y-69360033D01*
X154428330Y-69298146D01*
X154564364Y-69242052D01*
X154703950Y-69184977D01*
X154828685Y-69134479D01*
X154934328Y-69092254D01*
X155016635Y-69059995D01*
X155071365Y-69039397D01*
X155094274Y-69032154D01*
X155115282Y-69045986D01*
X155150358Y-69084412D01*
X155191113Y-69138807D01*
X155297733Y-69269395D01*
X155433975Y-69386260D01*
X155583882Y-69471780D01*
X155743029Y-69525431D01*
X155906988Y-69546684D01*
X156071333Y-69535014D01*
X156231639Y-69489894D01*
X156383480Y-69410797D01*
X156522428Y-69297197D01*
X156576540Y-69237965D01*
X156672218Y-69096054D01*
X156734595Y-68944206D01*
X156765156Y-68786861D01*
X156765385Y-68628456D01*
X156736768Y-68473429D01*
X156680790Y-68326220D01*
X156598936Y-68191266D01*
X156492691Y-68073005D01*
X156363541Y-67975877D01*
X156212969Y-67904318D01*
X156042461Y-67862769D01*
X155960278Y-67855143D01*
X155782225Y-67865634D01*
X155613296Y-67912882D01*
X155456478Y-67995489D01*
X155314755Y-68112059D01*
X155191113Y-68261193D01*
X155152018Y-68313561D01*
X155116557Y-68352832D01*
X155094308Y-68367846D01*
X155074912Y-68361859D01*
X155022941Y-68342432D01*
X154942998Y-68311194D01*
X154839327Y-68269839D01*
X154716168Y-68220061D01*
X154577766Y-68163553D01*
X154428363Y-68102009D01*
X154292980Y-68046008D01*
X154153148Y-67988184D01*
X154028128Y-67936500D01*
X153922178Y-67892718D01*
X153839559Y-67858597D01*
X153784528Y-67835898D01*
X153761346Y-67826380D01*
X153761072Y-67826269D01*
X153741497Y-67807228D01*
X153741721Y-67770694D01*
X153762790Y-67711954D01*
X153805751Y-67626292D01*
X153809369Y-67619549D01*
X153841913Y-67555938D01*
X153864950Y-67505707D01*
X153873692Y-67479218D01*
X153863361Y-67457506D01*
X153834212Y-67408984D01*
X153789713Y-67339163D01*
X153733332Y-67253484D01*
X153668538Y-67157388D01*
X153605016Y-67062706D01*
X153548295Y-66975132D01*
X153503453Y-66902642D01*
X153473984Y-66850889D01*
X153463384Y-66825526D01*
X153464730Y-66821206D01*
X153485944Y-66791092D01*
X153529763Y-66739640D01*
X153592091Y-66671375D01*
X153668830Y-66590820D01*
X153755884Y-66502500D01*
X154048383Y-66210488D01*
X154717475Y-66665360D01*
X154867084Y-66596208D01*
X154867527Y-66596003D01*
X154962899Y-66554477D01*
X155069104Y-66512044D01*
X155163231Y-66477858D01*
X155178412Y-66472684D01*
X155248891Y-66446601D01*
X155303658Y-66423081D01*
X155331921Y-66406677D01*
X155335912Y-66399996D01*
X155349303Y-66359892D01*
X155366627Y-66291795D01*
X155386083Y-66203145D01*
X155405868Y-66101385D01*
X155411449Y-66070904D01*
X155431767Y-65960628D01*
X155450905Y-65857731D01*
X155466930Y-65772569D01*
X155477909Y-65715500D01*
X155498155Y-65612923D01*
X155925299Y-65612923D01*
X155977820Y-65612946D01*
G36*
X155977820Y-65612946D02*
G01*
X156105953Y-65613379D01*
X156201580Y-65614659D01*
X156269589Y-65617168D01*
X156314867Y-65621286D01*
X156342303Y-65627395D01*
X156356782Y-65635878D01*
X156363193Y-65647115D01*
X156365791Y-65657994D01*
X156374978Y-65702347D01*
X156389009Y-65773106D01*
X156406514Y-65863074D01*
X156426126Y-65965056D01*
X156446475Y-66071857D01*
X156466193Y-66176281D01*
X156483911Y-66271132D01*
X156498262Y-66349214D01*
X156507876Y-66403332D01*
X156511384Y-66426291D01*
X156513503Y-66427842D01*
X156540994Y-66440325D01*
X156593594Y-66461927D01*
X156662808Y-66489123D01*
X156756063Y-66526866D01*
X156863841Y-66573328D01*
X156958828Y-66616878D01*
X156980149Y-66626858D01*
X157046914Y-66654862D01*
X157098410Y-66671641D01*
X157124905Y-66673854D01*
X157126782Y-66672713D01*
X157154435Y-66654584D01*
X157208151Y-66618644D01*
X157282697Y-66568418D01*
X157372838Y-66507430D01*
X157473343Y-66439205D01*
X157587530Y-66362330D01*
X157676230Y-66304663D01*
X157741279Y-66265426D01*
X157786705Y-66242350D01*
X157816537Y-66233166D01*
X157834805Y-66235604D01*
X157836175Y-66236424D01*
X157862795Y-66258477D01*
X157911303Y-66303436D01*
X157976892Y-66366673D01*
X158054753Y-66443559D01*
X158140078Y-66529465D01*
X158226666Y-66618579D01*
X158308053Y-66705872D01*
X158362965Y-66770018D01*
X158392810Y-66812679D01*
X158398996Y-66835521D01*
X158397606Y-66838505D01*
X158378873Y-66869936D01*
X158342267Y-66926997D01*
X158291303Y-67004343D01*
X158229496Y-67096626D01*
X158160361Y-67198502D01*
X157933580Y-67530593D01*
X158001647Y-67680566D01*
X158003619Y-67684923D01*
X158043509Y-67777000D01*
X158083182Y-67874683D01*
X158114326Y-67957539D01*
X158114455Y-67957905D01*
X158138544Y-68023685D01*
X158158890Y-68074323D01*
X158171099Y-68098884D01*
X158171542Y-68099282D01*
X158196544Y-68107619D01*
X158253402Y-68121341D01*
X158335986Y-68139123D01*
X158438169Y-68159641D01*
X158553822Y-68181571D01*
X158557967Y-68182336D01*
X158675981Y-68204229D01*
X158782849Y-68224281D01*
X158871748Y-68241192D01*
X158935855Y-68253667D01*
X158968346Y-68260406D01*
X158970147Y-68260837D01*
X158984056Y-68265273D01*
X158994511Y-68274263D01*
X159002004Y-68292737D01*
X159007028Y-68325628D01*
X159010078Y-68377868D01*
X159011645Y-68454388D01*
X159012224Y-68560122D01*
X159012308Y-68700000D01*
X159012307Y-68717575D01*
X159012193Y-68853371D01*
X159011528Y-68955576D01*
X159009818Y-69029122D01*
X159006571Y-69078942D01*
X159001294Y-69109967D01*
X158993493Y-69127129D01*
X158982675Y-69135361D01*
X158968346Y-69139594D01*
X158967832Y-69139716D01*
X158934149Y-69146672D01*
X158869083Y-69159320D01*
X158779458Y-69176360D01*
X158672096Y-69196496D01*
X158553822Y-69218429D01*
X158544144Y-69220218D01*
X158429350Y-69242083D01*
X158328520Y-69262430D01*
X158247783Y-69279934D01*
X158193266Y-69293271D01*
X158171099Y-69301116D01*
X158171064Y-69301158D01*
X158158800Y-69325884D01*
X158138424Y-69376631D01*
X158114326Y-69442462D01*
X158113017Y-69446169D01*
X158081209Y-69530331D01*
X158041315Y-69628230D01*
X158001647Y-69719435D01*
X157933580Y-69869407D01*
X158160361Y-70201499D01*
X158176312Y-70224889D01*
X158244110Y-70325080D01*
X158303792Y-70414480D01*
X158351844Y-70487745D01*
X158384750Y-70539527D01*
X158398996Y-70564480D01*
X158395730Y-70581577D01*
X158370429Y-70620395D01*
X158320325Y-70680385D01*
X158244011Y-70763210D01*
X158140078Y-70870535D01*
X158130618Y-70880139D01*
X158045855Y-70965302D01*
X157969063Y-71040949D01*
X157905053Y-71102449D01*
X157858639Y-71145173D01*
X157834631Y-71164489D01*
X157834515Y-71164552D01*
X157816237Y-71167006D01*
X157786589Y-71157956D01*
X157741514Y-71135119D01*
X157676956Y-71096213D01*
X157588860Y-71038954D01*
X157473170Y-70961059D01*
X157453643Y-70947785D01*
X157354722Y-70880652D01*
X157267152Y-70821410D01*
X157196169Y-70773588D01*
X157147009Y-70740715D01*
X157124905Y-70726318D01*
X157120223Y-70725232D01*
X157085290Y-70732044D01*
X157028247Y-70752450D01*
X156958828Y-70783123D01*
X156868041Y-70824808D01*
X156760314Y-70871352D01*
X156662808Y-70910877D01*
X156637570Y-70920676D01*
X156573130Y-70946340D01*
X156528237Y-70965193D01*
X156511384Y-70973710D01*
X156510125Y-70983111D01*
X156502841Y-71025363D01*
X156490261Y-71094521D01*
X156473754Y-71183387D01*
X156454688Y-71284768D01*
X156434431Y-71391467D01*
X156414353Y-71496288D01*
X156395821Y-71592036D01*
X156380205Y-71671516D01*
X156368873Y-71727530D01*
X156363193Y-71752885D01*
X156361592Y-71757088D01*
X156352955Y-71767334D01*
X156334567Y-71774957D01*
X156301540Y-71780338D01*
X156248987Y-71783859D01*
X156172021Y-71785901D01*
X156065754Y-71786847D01*
X155925299Y-71787077D01*
X155498155Y-71787077D01*
X155477909Y-71684500D01*
X155475482Y-71672092D01*
X155462912Y-71606199D01*
X155445830Y-71515084D01*
X155426171Y-71409104D01*
X155405868Y-71298615D01*
X155397701Y-71255105D01*
X155377833Y-71157882D01*
X155359046Y-71076858D01*
X155343141Y-71019477D01*
X155331921Y-70993187D01*
X155313589Y-70981273D01*
X155265084Y-70959583D01*
X155202308Y-70937395D01*
X155178800Y-70929585D01*
X155101634Y-70900835D01*
X155010306Y-70863752D01*
X154919907Y-70824375D01*
X154872690Y-70803315D01*
X154802163Y-70773311D01*
X154749345Y-70752692D01*
X154723088Y-70745026D01*
X154721106Y-70745452D01*
X154693249Y-70759993D01*
X154639490Y-70792783D01*
X154565037Y-70840493D01*
X154475103Y-70899798D01*
X154374896Y-70967369D01*
X154048584Y-71189713D01*
X153755984Y-70897601D01*
X153727829Y-70869349D01*
X153643551Y-70782961D01*
X153570872Y-70705756D01*
X153513888Y-70642258D01*
X153476693Y-70596990D01*
X153463384Y-70574474D01*
X153473510Y-70550023D01*
X153502579Y-70498819D01*
X153547104Y-70426747D01*
X153603589Y-70339460D01*
X153668538Y-70242612D01*
X153732686Y-70147486D01*
X153789173Y-70061669D01*
X153833816Y-69991652D01*
X153863145Y-69942876D01*
X153873692Y-69920783D01*
X153873596Y-69919488D01*
X153863198Y-69890139D01*
X153838988Y-69838093D01*
X153805751Y-69773708D01*
X153805387Y-69773032D01*
X153762559Y-69687521D01*
X153741635Y-69628926D01*
X153741577Y-69592571D01*
X153761346Y-69573775D01*
X153780805Y-69565819D01*
X153832920Y-69544347D01*
X153913036Y-69511273D01*
X154016893Y-69468356D01*
X154140233Y-69417356D01*
X154278799Y-69360033D01*
X154428330Y-69298146D01*
X154564364Y-69242052D01*
X154703950Y-69184977D01*
X154828685Y-69134479D01*
X154934328Y-69092254D01*
X155016635Y-69059995D01*
X155071365Y-69039397D01*
X155094274Y-69032154D01*
X155115282Y-69045986D01*
X155150358Y-69084412D01*
X155191113Y-69138807D01*
X155297733Y-69269395D01*
X155433975Y-69386260D01*
X155583882Y-69471780D01*
X155743029Y-69525431D01*
X155906988Y-69546684D01*
X156071333Y-69535014D01*
X156231639Y-69489894D01*
X156383480Y-69410797D01*
X156522428Y-69297197D01*
X156576540Y-69237965D01*
X156672218Y-69096054D01*
X156734595Y-68944206D01*
X156765156Y-68786861D01*
X156765385Y-68628456D01*
X156736768Y-68473429D01*
X156680790Y-68326220D01*
X156598936Y-68191266D01*
X156492691Y-68073005D01*
X156363541Y-67975877D01*
X156212969Y-67904318D01*
X156042461Y-67862769D01*
X155960278Y-67855143D01*
X155782225Y-67865634D01*
X155613296Y-67912882D01*
X155456478Y-67995489D01*
X155314755Y-68112059D01*
X155191113Y-68261193D01*
X155152018Y-68313561D01*
X155116557Y-68352832D01*
X155094308Y-68367846D01*
X155074912Y-68361859D01*
X155022941Y-68342432D01*
X154942998Y-68311194D01*
X154839327Y-68269839D01*
X154716168Y-68220061D01*
X154577766Y-68163553D01*
X154428363Y-68102009D01*
X154292980Y-68046008D01*
X154153148Y-67988184D01*
X154028128Y-67936500D01*
X153922178Y-67892718D01*
X153839559Y-67858597D01*
X153784528Y-67835898D01*
X153761346Y-67826380D01*
X153761072Y-67826269D01*
X153741497Y-67807228D01*
X153741721Y-67770694D01*
X153762790Y-67711954D01*
X153805751Y-67626292D01*
X153809369Y-67619549D01*
X153841913Y-67555938D01*
X153864950Y-67505707D01*
X153873692Y-67479218D01*
X153863361Y-67457506D01*
X153834212Y-67408984D01*
X153789713Y-67339163D01*
X153733332Y-67253484D01*
X153668538Y-67157388D01*
X153605016Y-67062706D01*
X153548295Y-66975132D01*
X153503453Y-66902642D01*
X153473984Y-66850889D01*
X153463384Y-66825526D01*
X153464730Y-66821206D01*
X153485944Y-66791092D01*
X153529763Y-66739640D01*
X153592091Y-66671375D01*
X153668830Y-66590820D01*
X153755884Y-66502500D01*
X154048383Y-66210488D01*
X154717475Y-66665360D01*
X154867084Y-66596208D01*
X154867527Y-66596003D01*
X154962899Y-66554477D01*
X155069104Y-66512044D01*
X155163231Y-66477858D01*
X155178412Y-66472684D01*
X155248891Y-66446601D01*
X155303658Y-66423081D01*
X155331921Y-66406677D01*
X155335912Y-66399996D01*
X155349303Y-66359892D01*
X155366627Y-66291795D01*
X155386083Y-66203145D01*
X155405868Y-66101385D01*
X155411449Y-66070904D01*
X155431767Y-65960628D01*
X155450905Y-65857731D01*
X155466930Y-65772569D01*
X155477909Y-65715500D01*
X155498155Y-65612923D01*
X155925299Y-65612923D01*
X155977820Y-65612946D01*
G37*
%TD*%
%LPC*%
D11*
%TO.C,J2*%
X161120000Y-90015000D03*
X161120000Y-65015000D03*
D12*
X158580000Y-73190000D03*
D13*
X158580000Y-75480000D03*
X158580000Y-77770000D03*
X158580000Y-80060000D03*
X158580000Y-82350000D03*
X161120000Y-72045000D03*
X161120000Y-74335000D03*
X161120000Y-76625000D03*
X161120000Y-78915000D03*
X161120000Y-81205000D03*
X163660000Y-73190000D03*
X163660000Y-75480000D03*
X163660000Y-77770000D03*
X163660000Y-80060000D03*
X163660000Y-82350000D03*
%TD*%
D14*
%TO.C,J1*%
X132540000Y-79460000D03*
D15*
X132540000Y-82000000D03*
X132540000Y-84540000D03*
X132540000Y-87080000D03*
X132540000Y-89620000D03*
X132540000Y-92160000D03*
X130000000Y-79460000D03*
X130000000Y-82000000D03*
X130000000Y-84540000D03*
X130000000Y-87080000D03*
X130000000Y-89620000D03*
X130000000Y-92160000D03*
%TD*%
%LPD*%
M02*
