M48
; DRILL file {KiCad 8.0.2} date 2024-05-23T10:32:31+0200
; FORMAT={-:-/ absolute / inch / decimal}
; #@! TF.CreationDate,2024-05-23T10:32:31+02:00
; #@! TF.GenerationSoftware,Kicad,Pcbnew,8.0.2
; #@! TF.FileFunction,Plated,1,2,PTH
FMAT,2
INCH
; #@! TA.AperFunction,Plated,PTH,ViaDrill
T1C0.0157
; #@! TA.AperFunction,Plated,PTH,ComponentDrill
T2C0.0394
; #@! TA.AperFunction,Plated,PTH,ComponentDrill
T3C0.0433
; #@! TA.AperFunction,Plated,PTH,ComponentDrill
T4C0.1260
%
G90
G05
T1
X5.5039Y-3.5394
X5.6102Y-3.3996
X5.7165Y-3.4016
X5.7264Y-3.2106
X6.0512Y-2.9134
X6.0516Y-3.1732
X6.0551Y-2.6339
T2
X5.1181Y-3.1283
X5.1181Y-3.2283
X5.1181Y-3.3283
X5.1181Y-3.4283
X5.1181Y-3.5283
X5.1181Y-3.6283
X5.2181Y-3.1283
X5.2181Y-3.2283
X5.2181Y-3.3283
X5.2181Y-3.4283
X5.2181Y-3.5283
X5.2181Y-3.6283
T3
X6.2551Y-2.875
X6.2551Y-2.9636
X6.2551Y-3.0522
X6.2551Y-3.1407
X6.2551Y-3.2293
X6.3551Y-2.8307
X6.3551Y-2.9193
X6.3551Y-3.0079
X6.3551Y-3.0965
X6.3551Y-3.185
X6.4551Y-2.875
X6.4551Y-2.9636
X6.4551Y-3.0522
X6.4551Y-3.1407
X6.4551Y-3.2293
T4
X6.3551Y-2.5596
X6.3551Y-3.5439
M30
